<mxfile host="app.diagrams.net" modified="2021-09-29T12:05:16.367Z" agent="5.0 (Windows NT 10.0; Win64; x64) AppleWebKit/537.36 (KHTML, like Gecko) Chrome/93.0.4577.82 Safari/537.36" etag="aH9PP2pc1BzS5WPGzncP" version="15.3.5" type="github">
  <diagram id="2K9cU7jXb9DGQZPl1iZM" name="Page-1">
    <mxGraphModel dx="2926" dy="1112" grid="1" gridSize="10" guides="1" tooltips="1" connect="1" arrows="1" fold="1" page="1" pageScale="1" pageWidth="850" pageHeight="1100" background="#ffffff" math="0" shadow="0">
      <root>
        <mxCell id="0" />
        <mxCell id="1" parent="0" />
        <mxCell id="1c1d494c118603dd-1" value="&lt;p class=&quot;MsoListParagraph&quot; style=&quot;text-indent: -0.25in&quot;&gt;&lt;span style=&quot;line-height: 115%&quot;&gt;&lt;font style=&quot;font-size: 13px&quot;&gt;Data Flow of Conversations&lt;/font&gt;&lt;span style=&quot;font-size: 12pt&quot;&gt;&lt;/span&gt;&lt;/span&gt;&lt;/p&gt;" style="swimlane;html=1;childLayout=stackLayout;startSize=20;rounded=0;shadow=0;comic=0;labelBackgroundColor=none;strokeWidth=1;fontFamily=Verdana;fontSize=12;align=center;glass=0;sketch=0;" parent="1" vertex="1">
          <mxGeometry x="-590" y="20" width="3850" height="990" as="geometry">
            <mxRectangle x="160" y="20" width="60" height="20" as="alternateBounds" />
          </mxGeometry>
        </mxCell>
        <mxCell id="0ok2K6wH5HigkwixbM4u-1" value="(1st Case) Create Account" style="swimlane;hachureGap=4;pointerEvents=0;fillColor=#8AF3FF;" parent="1c1d494c118603dd-1" vertex="1">
          <mxGeometry y="20" width="550" height="970" as="geometry" />
        </mxCell>
        <mxCell id="0ok2K6wH5HigkwixbM4u-19" style="edgeStyle=orthogonalEdgeStyle;rounded=0;orthogonalLoop=1;jettySize=auto;html=1;entryX=0.5;entryY=0;entryDx=0;entryDy=0;endArrow=open;startSize=14;endSize=5;sourcePerimeterSpacing=8;targetPerimeterSpacing=8;strokeWidth=1;" parent="0ok2K6wH5HigkwixbM4u-1" source="0ok2K6wH5HigkwixbM4u-9" target="0ok2K6wH5HigkwixbM4u-16" edge="1">
          <mxGeometry relative="1" as="geometry" />
        </mxCell>
        <mxCell id="0ok2K6wH5HigkwixbM4u-20" style="edgeStyle=orthogonalEdgeStyle;rounded=0;orthogonalLoop=1;jettySize=auto;html=1;entryX=0.5;entryY=0;entryDx=0;entryDy=0;endArrow=open;startSize=14;endSize=5;sourcePerimeterSpacing=8;targetPerimeterSpacing=8;strokeWidth=1;" parent="0ok2K6wH5HigkwixbM4u-1" source="0ok2K6wH5HigkwixbM4u-9" target="0ok2K6wH5HigkwixbM4u-17" edge="1">
          <mxGeometry relative="1" as="geometry" />
        </mxCell>
        <mxCell id="0ok2K6wH5HigkwixbM4u-21" style="edgeStyle=orthogonalEdgeStyle;rounded=0;orthogonalLoop=1;jettySize=auto;html=1;entryX=0.5;entryY=0;entryDx=0;entryDy=0;endArrow=open;startSize=14;endSize=5;sourcePerimeterSpacing=8;targetPerimeterSpacing=8;strokeWidth=1;" parent="0ok2K6wH5HigkwixbM4u-1" source="0ok2K6wH5HigkwixbM4u-9" target="0ok2K6wH5HigkwixbM4u-18" edge="1">
          <mxGeometry relative="1" as="geometry" />
        </mxCell>
        <mxCell id="0ok2K6wH5HigkwixbM4u-23" style="edgeStyle=orthogonalEdgeStyle;rounded=0;orthogonalLoop=1;jettySize=auto;html=1;entryX=0.5;entryY=0;entryDx=0;entryDy=0;endArrow=open;startSize=14;endSize=5;sourcePerimeterSpacing=8;targetPerimeterSpacing=8;strokeWidth=1;" parent="0ok2K6wH5HigkwixbM4u-1" source="0ok2K6wH5HigkwixbM4u-9" target="0ok2K6wH5HigkwixbM4u-22" edge="1">
          <mxGeometry relative="1" as="geometry" />
        </mxCell>
        <mxCell id="0ok2K6wH5HigkwixbM4u-25" style="edgeStyle=orthogonalEdgeStyle;rounded=0;orthogonalLoop=1;jettySize=auto;html=1;endArrow=open;startSize=14;endSize=5;sourcePerimeterSpacing=8;targetPerimeterSpacing=8;strokeWidth=1;" parent="0ok2K6wH5HigkwixbM4u-1" source="0ok2K6wH5HigkwixbM4u-9" target="0ok2K6wH5HigkwixbM4u-24" edge="1">
          <mxGeometry relative="1" as="geometry" />
        </mxCell>
        <mxCell id="0ok2K6wH5HigkwixbM4u-9" value="&lt;font style=&quot;font-size: 10px&quot;&gt;&lt;b&gt;(1st Q).&lt;/b&gt;&lt;b&gt;&amp;nbsp;Please tell me what type of Account you need?&lt;/b&gt;&lt;/font&gt;" style="shape=parallelogram;perimeter=parallelogramPerimeter;whiteSpace=wrap;html=1;fixedSize=1;hachureGap=4;pointerEvents=0;" parent="0ok2K6wH5HigkwixbM4u-1" vertex="1">
          <mxGeometry x="20" y="120" width="190" height="40" as="geometry" />
        </mxCell>
        <mxCell id="0ok2K6wH5HigkwixbM4u-14" style="edgeStyle=orthogonalEdgeStyle;rounded=0;orthogonalLoop=1;jettySize=auto;html=1;entryX=0.5;entryY=0;entryDx=0;entryDy=0;endArrow=open;startSize=14;endSize=5;sourcePerimeterSpacing=8;targetPerimeterSpacing=8;strokeWidth=1;" parent="0ok2K6wH5HigkwixbM4u-1" source="0ok2K6wH5HigkwixbM4u-10" target="0ok2K6wH5HigkwixbM4u-9" edge="1">
          <mxGeometry relative="1" as="geometry" />
        </mxCell>
        <mxCell id="0ok2K6wH5HigkwixbM4u-10" value="&lt;font style=&quot;font-size: 10px&quot;&gt;&lt;b&gt;How can I create a Account?(create, create account)&amp;nbsp;&lt;/b&gt;&lt;/font&gt;" style="ellipse;whiteSpace=wrap;html=1;hachureGap=4;pointerEvents=0;fillColor=#8AF3FF;" parent="0ok2K6wH5HigkwixbM4u-1" vertex="1">
          <mxGeometry x="30" y="40" width="170" height="50" as="geometry" />
        </mxCell>
        <mxCell id="0ok2K6wH5HigkwixbM4u-46" style="edgeStyle=orthogonalEdgeStyle;rounded=0;orthogonalLoop=1;jettySize=auto;html=1;entryX=0.5;entryY=0;entryDx=0;entryDy=0;endArrow=open;startSize=14;endSize=5;sourcePerimeterSpacing=8;targetPerimeterSpacing=8;strokeWidth=1;" parent="0ok2K6wH5HigkwixbM4u-1" source="0ok2K6wH5HigkwixbM4u-16" target="0ok2K6wH5HigkwixbM4u-39" edge="1">
          <mxGeometry relative="1" as="geometry">
            <Array as="points">
              <mxPoint x="50" y="270" />
              <mxPoint x="190" y="270" />
            </Array>
          </mxGeometry>
        </mxCell>
        <mxCell id="0ok2K6wH5HigkwixbM4u-16" value="&lt;font style=&quot;font-size: 10px&quot;&gt;&lt;b&gt;Saving Account&lt;/b&gt;&lt;/font&gt;" style="rhombus;whiteSpace=wrap;html=1;hachureGap=4;pointerEvents=0;" parent="0ok2K6wH5HigkwixbM4u-1" vertex="1">
          <mxGeometry x="20" y="190" width="60" height="60" as="geometry" />
        </mxCell>
        <mxCell id="0ok2K6wH5HigkwixbM4u-43" style="edgeStyle=orthogonalEdgeStyle;rounded=0;orthogonalLoop=1;jettySize=auto;html=1;entryX=0.5;entryY=0;entryDx=0;entryDy=0;endArrow=open;startSize=14;endSize=5;sourcePerimeterSpacing=8;targetPerimeterSpacing=8;strokeWidth=1;" parent="0ok2K6wH5HigkwixbM4u-1" source="0ok2K6wH5HigkwixbM4u-18" target="0ok2K6wH5HigkwixbM4u-39" edge="1">
          <mxGeometry relative="1" as="geometry" />
        </mxCell>
        <mxCell id="0ok2K6wH5HigkwixbM4u-18" value="&lt;font style=&quot;font-size: 10px&quot;&gt;&lt;b&gt;FIxed Deposit Account&lt;/b&gt;&lt;/font&gt;" style="rhombus;whiteSpace=wrap;html=1;hachureGap=4;pointerEvents=0;" parent="0ok2K6wH5HigkwixbM4u-1" vertex="1">
          <mxGeometry x="160" y="190" width="60" height="60" as="geometry" />
        </mxCell>
        <mxCell id="0ok2K6wH5HigkwixbM4u-42" style="edgeStyle=orthogonalEdgeStyle;rounded=0;orthogonalLoop=1;jettySize=auto;html=1;entryX=0.5;entryY=0;entryDx=0;entryDy=0;endArrow=open;startSize=14;endSize=5;sourcePerimeterSpacing=8;targetPerimeterSpacing=8;strokeWidth=1;" parent="0ok2K6wH5HigkwixbM4u-1" source="0ok2K6wH5HigkwixbM4u-17" target="0ok2K6wH5HigkwixbM4u-39" edge="1">
          <mxGeometry relative="1" as="geometry" />
        </mxCell>
        <mxCell id="0ok2K6wH5HigkwixbM4u-17" value="&lt;font style=&quot;font-size: 10px&quot;&gt;&lt;b&gt;Current Account&lt;/b&gt;&lt;/font&gt;" style="rhombus;whiteSpace=wrap;html=1;hachureGap=4;pointerEvents=0;" parent="0ok2K6wH5HigkwixbM4u-1" vertex="1">
          <mxGeometry x="85" y="190" width="60" height="60" as="geometry" />
        </mxCell>
        <mxCell id="0ok2K6wH5HigkwixbM4u-44" style="edgeStyle=orthogonalEdgeStyle;rounded=0;orthogonalLoop=1;jettySize=auto;html=1;entryX=0.5;entryY=0;entryDx=0;entryDy=0;endArrow=open;startSize=14;endSize=5;sourcePerimeterSpacing=8;targetPerimeterSpacing=8;strokeWidth=1;" parent="0ok2K6wH5HigkwixbM4u-1" source="0ok2K6wH5HigkwixbM4u-22" target="0ok2K6wH5HigkwixbM4u-39" edge="1">
          <mxGeometry relative="1" as="geometry" />
        </mxCell>
        <mxCell id="0ok2K6wH5HigkwixbM4u-22" value="&lt;font&gt;&lt;span style=&quot;font-size: 10px&quot;&gt;&lt;b&gt;Recurring&lt;/b&gt;&lt;/span&gt;&lt;b style=&quot;font-size: 10px&quot;&gt;&amp;nbsp;Deposit Account&lt;/b&gt;&lt;/font&gt;" style="rhombus;whiteSpace=wrap;html=1;hachureGap=4;pointerEvents=0;" parent="0ok2K6wH5HigkwixbM4u-1" vertex="1">
          <mxGeometry x="230" y="190" width="60" height="60" as="geometry" />
        </mxCell>
        <mxCell id="0ok2K6wH5HigkwixbM4u-45" style="edgeStyle=orthogonalEdgeStyle;rounded=0;orthogonalLoop=1;jettySize=auto;html=1;entryX=0.5;entryY=0;entryDx=0;entryDy=0;endArrow=open;startSize=14;endSize=5;sourcePerimeterSpacing=8;targetPerimeterSpacing=8;strokeWidth=1;" parent="0ok2K6wH5HigkwixbM4u-1" source="0ok2K6wH5HigkwixbM4u-24" target="0ok2K6wH5HigkwixbM4u-39" edge="1">
          <mxGeometry relative="1" as="geometry">
            <Array as="points">
              <mxPoint x="330" y="270" />
              <mxPoint x="190" y="270" />
            </Array>
          </mxGeometry>
        </mxCell>
        <mxCell id="0ok2K6wH5HigkwixbM4u-24" value="&lt;font style=&quot;font-size: 10px&quot;&gt;&lt;b&gt;NRI Account&lt;/b&gt;&lt;/font&gt;" style="rhombus;whiteSpace=wrap;html=1;hachureGap=4;pointerEvents=0;" parent="0ok2K6wH5HigkwixbM4u-1" vertex="1">
          <mxGeometry x="300" y="190" width="60" height="60" as="geometry" />
        </mxCell>
        <mxCell id="0ok2K6wH5HigkwixbM4u-218" style="edgeStyle=orthogonalEdgeStyle;rounded=0;orthogonalLoop=1;jettySize=auto;html=1;entryX=0.5;entryY=0;entryDx=0;entryDy=0;endArrow=open;startSize=14;endSize=5;sourcePerimeterSpacing=8;targetPerimeterSpacing=8;strokeWidth=1;" parent="0ok2K6wH5HigkwixbM4u-1" source="0ok2K6wH5HigkwixbM4u-39" target="0ok2K6wH5HigkwixbM4u-217" edge="1">
          <mxGeometry relative="1" as="geometry">
            <Array as="points">
              <mxPoint x="190" y="370" />
              <mxPoint x="260" y="370" />
            </Array>
          </mxGeometry>
        </mxCell>
        <mxCell id="0ok2K6wH5HigkwixbM4u-39" value="&lt;font style=&quot;font-size: 10px&quot;&gt;&lt;b&gt;Display steps to create different accounts(5 type of accounts have different steps&lt;/b&gt;&lt;/font&gt;" style="rounded=0;whiteSpace=wrap;html=1;hachureGap=4;pointerEvents=0;" parent="0ok2K6wH5HigkwixbM4u-1" vertex="1">
          <mxGeometry x="110" y="290" width="160" height="70" as="geometry" />
        </mxCell>
        <mxCell id="0ok2K6wH5HigkwixbM4u-54" style="edgeStyle=orthogonalEdgeStyle;rounded=0;orthogonalLoop=1;jettySize=auto;html=1;endArrow=open;startSize=14;endSize=5;sourcePerimeterSpacing=8;targetPerimeterSpacing=8;strokeWidth=1;entryX=0.25;entryY=0;entryDx=0;entryDy=0;" parent="0ok2K6wH5HigkwixbM4u-1" source="0ok2K6wH5HigkwixbM4u-48" target="0ok2K6wH5HigkwixbM4u-53" edge="1">
          <mxGeometry relative="1" as="geometry">
            <mxPoint x="60" y="610" as="targetPoint" />
            <Array as="points">
              <mxPoint x="88" y="490" />
              <mxPoint x="88" y="490" />
            </Array>
          </mxGeometry>
        </mxCell>
        <mxCell id="0ok2K6wH5HigkwixbM4u-48" value="&lt;font style=&quot;font-size: 10px&quot;&gt;&lt;b&gt;Yes, Thank You(yes, thank you, thank)&lt;/b&gt;&lt;/font&gt;" style="ellipse;whiteSpace=wrap;html=1;hachureGap=4;pointerEvents=0;fillColor=#8AF3FF;" parent="0ok2K6wH5HigkwixbM4u-1" vertex="1">
          <mxGeometry x="30" y="450" width="170" height="50" as="geometry" />
        </mxCell>
        <mxCell id="0ok2K6wH5HigkwixbM4u-216" style="edgeStyle=orthogonalEdgeStyle;rounded=0;orthogonalLoop=1;jettySize=auto;html=1;entryX=1;entryY=1;entryDx=0;entryDy=0;endArrow=open;startSize=14;endSize=5;sourcePerimeterSpacing=8;targetPerimeterSpacing=8;strokeWidth=1;" parent="0ok2K6wH5HigkwixbM4u-1" source="0ok2K6wH5HigkwixbM4u-50" target="0ok2K6wH5HigkwixbM4u-55" edge="1">
          <mxGeometry relative="1" as="geometry">
            <Array as="points">
              <mxPoint x="445" y="516" />
            </Array>
          </mxGeometry>
        </mxCell>
        <mxCell id="0ok2K6wH5HigkwixbM4u-50" value="&lt;font style=&quot;font-size: 10px&quot;&gt;&lt;b&gt;No, I need to know more(no, more, need to know more)&lt;/b&gt;&lt;/font&gt;" style="ellipse;whiteSpace=wrap;html=1;hachureGap=4;pointerEvents=0;fillColor=#8AF3FF;" parent="0ok2K6wH5HigkwixbM4u-1" vertex="1">
          <mxGeometry x="360" y="420" width="170" height="50" as="geometry" />
        </mxCell>
        <mxCell id="0ok2K6wH5HigkwixbM4u-74" style="edgeStyle=orthogonalEdgeStyle;rounded=0;orthogonalLoop=1;jettySize=auto;html=1;exitX=0.5;exitY=1;exitDx=0;exitDy=0;entryX=0.553;entryY=-0.033;entryDx=0;entryDy=0;entryPerimeter=0;endArrow=open;startSize=14;endSize=5;sourcePerimeterSpacing=8;targetPerimeterSpacing=8;strokeWidth=1;" parent="0ok2K6wH5HigkwixbM4u-1" source="0ok2K6wH5HigkwixbM4u-53" target="0ok2K6wH5HigkwixbM4u-73" edge="1">
          <mxGeometry relative="1" as="geometry" />
        </mxCell>
        <mxCell id="0ok2K6wH5HigkwixbM4u-53" value="&lt;font style=&quot;font-size: 10px&quot;&gt;&lt;b&gt;(2nd Q)&lt;/b&gt;&lt;b&gt;. Thank You!! Good Bye!!&lt;/b&gt;&lt;/font&gt;" style="shape=parallelogram;perimeter=parallelogramPerimeter;whiteSpace=wrap;html=1;fixedSize=1;hachureGap=4;pointerEvents=0;" parent="0ok2K6wH5HigkwixbM4u-1" vertex="1">
          <mxGeometry x="40" y="640" width="190" height="40" as="geometry" />
        </mxCell>
        <mxCell id="0ok2K6wH5HigkwixbM4u-63" style="edgeStyle=orthogonalEdgeStyle;rounded=0;orthogonalLoop=1;jettySize=auto;html=1;entryX=0.5;entryY=0;entryDx=0;entryDy=0;endArrow=open;startSize=14;endSize=5;sourcePerimeterSpacing=8;targetPerimeterSpacing=8;strokeWidth=1;" parent="0ok2K6wH5HigkwixbM4u-1" source="0ok2K6wH5HigkwixbM4u-55" target="0ok2K6wH5HigkwixbM4u-58" edge="1">
          <mxGeometry relative="1" as="geometry" />
        </mxCell>
        <mxCell id="0ok2K6wH5HigkwixbM4u-68" style="edgeStyle=orthogonalEdgeStyle;rounded=0;orthogonalLoop=1;jettySize=auto;html=1;endArrow=open;startSize=14;endSize=5;sourcePerimeterSpacing=8;targetPerimeterSpacing=8;strokeWidth=1;" parent="0ok2K6wH5HigkwixbM4u-1" source="0ok2K6wH5HigkwixbM4u-55" target="0ok2K6wH5HigkwixbM4u-67" edge="1">
          <mxGeometry relative="1" as="geometry">
            <Array as="points">
              <mxPoint x="330" y="565" />
            </Array>
          </mxGeometry>
        </mxCell>
        <mxCell id="0ok2K6wH5HigkwixbM4u-55" value="&lt;font style=&quot;font-size: 10px&quot;&gt;&lt;b&gt;(3rd Q)&lt;/b&gt;&lt;b&gt;. Please contact our live customer supporter or visit website for more information.&lt;/b&gt;&lt;/font&gt;" style="shape=parallelogram;perimeter=parallelogramPerimeter;whiteSpace=wrap;html=1;fixedSize=1;hachureGap=4;pointerEvents=0;" parent="0ok2K6wH5HigkwixbM4u-1" vertex="1">
          <mxGeometry x="235" y="480" width="190" height="40" as="geometry" />
        </mxCell>
        <mxCell id="0ok2K6wH5HigkwixbM4u-66" style="edgeStyle=orthogonalEdgeStyle;rounded=0;orthogonalLoop=1;jettySize=auto;html=1;entryX=0.5;entryY=0;entryDx=0;entryDy=0;endArrow=open;startSize=14;endSize=5;sourcePerimeterSpacing=8;targetPerimeterSpacing=8;strokeWidth=1;" parent="0ok2K6wH5HigkwixbM4u-1" source="0ok2K6wH5HigkwixbM4u-58" target="0ok2K6wH5HigkwixbM4u-65" edge="1">
          <mxGeometry relative="1" as="geometry" />
        </mxCell>
        <mxCell id="0ok2K6wH5HigkwixbM4u-58" value="&lt;font style=&quot;font-size: 10px&quot;&gt;&lt;b&gt;Live Supporter&lt;/b&gt;&lt;/font&gt;" style="rhombus;whiteSpace=wrap;html=1;hachureGap=4;pointerEvents=0;" parent="0ok2K6wH5HigkwixbM4u-1" vertex="1">
          <mxGeometry x="360" y="560" width="55" height="60" as="geometry" />
        </mxCell>
        <mxCell id="0ok2K6wH5HigkwixbM4u-59" value="Reserved Words in This Section" style="swimlane;hachureGap=4;pointerEvents=0;" parent="0ok2K6wH5HigkwixbM4u-1" vertex="1">
          <mxGeometry x="360" y="30" width="190" height="270" as="geometry" />
        </mxCell>
        <mxCell id="0ok2K6wH5HigkwixbM4u-60" value="&lt;b style=&quot;font-size: 10px&quot;&gt;(1st Q)&lt;br&gt;create, &lt;br&gt;create account,&lt;br&gt;&lt;/b&gt;" style="text;html=1;align=center;verticalAlign=middle;resizable=0;points=[];autosize=1;strokeColor=none;fillColor=none;" parent="0ok2K6wH5HigkwixbM4u-59" vertex="1">
          <mxGeometry x="20" y="45" width="90" height="50" as="geometry" />
        </mxCell>
        <mxCell id="0ok2K6wH5HigkwixbM4u-61" value="&lt;b style=&quot;font-size: 10px&quot;&gt;(2nd Q)&lt;br&gt;yes&lt;/b&gt;&lt;b style=&quot;font-size: 10px&quot;&gt;&lt;br&gt;thank you,&lt;br&gt;&amp;nbsp;thank&lt;br&gt;&lt;/b&gt;&lt;b style=&quot;font-size: 10px&quot;&gt;okay&lt;br&gt;no need,&lt;/b&gt;&lt;b style=&quot;font-size: 10px&quot;&gt;&lt;br&gt;&lt;/b&gt;" style="text;html=1;align=center;verticalAlign=middle;resizable=0;points=[];autosize=1;strokeColor=none;fillColor=none;" parent="0ok2K6wH5HigkwixbM4u-59" vertex="1">
          <mxGeometry x="110" y="100" width="70" height="100" as="geometry" />
        </mxCell>
        <mxCell id="0ok2K6wH5HigkwixbM4u-62" value="&lt;b style=&quot;font-size: 10px&quot;&gt;(3rd Q)&lt;br&gt;no&lt;br&gt;more, &lt;br&gt;need to know more&lt;/b&gt;" style="text;html=1;align=center;verticalAlign=middle;resizable=0;points=[];autosize=1;strokeColor=none;fillColor=none;" parent="0ok2K6wH5HigkwixbM4u-59" vertex="1">
          <mxGeometry x="10" y="185" width="110" height="70" as="geometry" />
        </mxCell>
        <mxCell id="0ok2K6wH5HigkwixbM4u-65" value="" style="ellipse;whiteSpace=wrap;html=1;aspect=fixed;hachureGap=4;pointerEvents=0;fillColor=#000000;" parent="0ok2K6wH5HigkwixbM4u-1" vertex="1">
          <mxGeometry x="372.5" y="640" width="30" height="30" as="geometry" />
        </mxCell>
        <mxCell id="0ok2K6wH5HigkwixbM4u-72" style="edgeStyle=orthogonalEdgeStyle;rounded=0;orthogonalLoop=1;jettySize=auto;html=1;entryX=0.872;entryY=0.017;entryDx=0;entryDy=0;entryPerimeter=0;endArrow=open;startSize=14;endSize=5;sourcePerimeterSpacing=8;targetPerimeterSpacing=8;strokeWidth=1;" parent="0ok2K6wH5HigkwixbM4u-1" source="0ok2K6wH5HigkwixbM4u-67" target="0ok2K6wH5HigkwixbM4u-53" edge="1">
          <mxGeometry relative="1" as="geometry" />
        </mxCell>
        <mxCell id="0ok2K6wH5HigkwixbM4u-67" value="&lt;font style=&quot;font-size: 10px&quot;&gt;&lt;b&gt;No need, Thank you --- --- ---- -Okay, Thank You(okay, no need, thank you, thank)&lt;/b&gt;&lt;/font&gt;" style="ellipse;whiteSpace=wrap;html=1;hachureGap=4;pointerEvents=0;fillColor=#8AF3FF;" parent="0ok2K6wH5HigkwixbM4u-1" vertex="1">
          <mxGeometry x="110" y="540" width="170" height="50" as="geometry" />
        </mxCell>
        <mxCell id="0ok2K6wH5HigkwixbM4u-86" style="edgeStyle=orthogonalEdgeStyle;rounded=0;orthogonalLoop=1;jettySize=auto;html=1;entryX=0;entryY=0.75;entryDx=0;entryDy=0;endArrow=open;startSize=14;endSize=5;sourcePerimeterSpacing=8;targetPerimeterSpacing=8;strokeWidth=1;" parent="0ok2K6wH5HigkwixbM4u-1" source="0ok2K6wH5HigkwixbM4u-70" target="0ok2K6wH5HigkwixbM4u-83" edge="1">
          <mxGeometry relative="1" as="geometry">
            <Array as="points">
              <mxPoint x="135" y="770" />
              <mxPoint x="345" y="770" />
            </Array>
          </mxGeometry>
        </mxCell>
        <mxCell id="0ok2K6wH5HigkwixbM4u-70" value="&lt;font style=&quot;font-size: 10px&quot;&gt;&lt;b&gt;Yes&amp;nbsp;&lt;/b&gt;&lt;/font&gt;" style="rhombus;whiteSpace=wrap;html=1;hachureGap=4;pointerEvents=0;" parent="0ok2K6wH5HigkwixbM4u-1" vertex="1">
          <mxGeometry x="105" y="810" width="60" height="60" as="geometry" />
        </mxCell>
        <mxCell id="0ok2K6wH5HigkwixbM4u-75" style="edgeStyle=orthogonalEdgeStyle;rounded=0;orthogonalLoop=1;jettySize=auto;html=1;entryX=0;entryY=0.5;entryDx=0;entryDy=0;endArrow=open;startSize=14;endSize=5;sourcePerimeterSpacing=8;targetPerimeterSpacing=8;strokeWidth=1;" parent="0ok2K6wH5HigkwixbM4u-1" source="0ok2K6wH5HigkwixbM4u-73" target="0ok2K6wH5HigkwixbM4u-70" edge="1">
          <mxGeometry relative="1" as="geometry">
            <Array as="points">
              <mxPoint x="70" y="840" />
            </Array>
          </mxGeometry>
        </mxCell>
        <mxCell id="0ok2K6wH5HigkwixbM4u-79" style="edgeStyle=orthogonalEdgeStyle;rounded=0;orthogonalLoop=1;jettySize=auto;html=1;entryX=0;entryY=0.5;entryDx=0;entryDy=0;endArrow=open;startSize=14;endSize=5;sourcePerimeterSpacing=8;targetPerimeterSpacing=8;strokeWidth=1;" parent="0ok2K6wH5HigkwixbM4u-1" source="0ok2K6wH5HigkwixbM4u-73" target="0ok2K6wH5HigkwixbM4u-76" edge="1">
          <mxGeometry relative="1" as="geometry" />
        </mxCell>
        <mxCell id="0ok2K6wH5HigkwixbM4u-73" value="&lt;font style=&quot;font-size: 10px&quot;&gt;&lt;b&gt;(2nd Q)&lt;/b&gt;&lt;b&gt;. Do you need another service?&lt;/b&gt;&lt;/font&gt;" style="shape=parallelogram;perimeter=parallelogramPerimeter;whiteSpace=wrap;html=1;fixedSize=1;hachureGap=4;pointerEvents=0;" parent="0ok2K6wH5HigkwixbM4u-1" vertex="1">
          <mxGeometry x="30" y="690" width="190" height="40" as="geometry" />
        </mxCell>
        <mxCell id="0ok2K6wH5HigkwixbM4u-81" style="edgeStyle=orthogonalEdgeStyle;rounded=0;orthogonalLoop=1;jettySize=auto;html=1;entryX=0;entryY=0.5;entryDx=0;entryDy=0;endArrow=open;startSize=14;endSize=5;sourcePerimeterSpacing=8;targetPerimeterSpacing=8;strokeWidth=1;" parent="0ok2K6wH5HigkwixbM4u-1" source="0ok2K6wH5HigkwixbM4u-76" target="0ok2K6wH5HigkwixbM4u-65" edge="1">
          <mxGeometry relative="1" as="geometry">
            <Array as="points">
              <mxPoint x="280" y="655" />
            </Array>
          </mxGeometry>
        </mxCell>
        <mxCell id="0ok2K6wH5HigkwixbM4u-76" value="&lt;font style=&quot;font-size: 10px&quot;&gt;&lt;b&gt;No&lt;/b&gt;&lt;/font&gt;" style="rhombus;whiteSpace=wrap;html=1;hachureGap=4;pointerEvents=0;" parent="0ok2K6wH5HigkwixbM4u-1" vertex="1">
          <mxGeometry x="250" y="680" width="60" height="60" as="geometry" />
        </mxCell>
        <mxCell id="0ok2K6wH5HigkwixbM4u-225" style="edgeStyle=orthogonalEdgeStyle;rounded=0;orthogonalLoop=1;jettySize=auto;html=1;entryX=0.5;entryY=0;entryDx=0;entryDy=0;endArrow=open;startSize=14;endSize=5;sourcePerimeterSpacing=8;targetPerimeterSpacing=8;strokeWidth=1;" parent="0ok2K6wH5HigkwixbM4u-1" source="0ok2K6wH5HigkwixbM4u-83" target="0ok2K6wH5HigkwixbM4u-84" edge="1">
          <mxGeometry relative="1" as="geometry">
            <Array as="points">
              <mxPoint x="435" y="825" />
              <mxPoint x="370" y="825" />
            </Array>
          </mxGeometry>
        </mxCell>
        <mxCell id="0ok2K6wH5HigkwixbM4u-83" value="&lt;font style=&quot;font-size: 10px&quot;&gt;&lt;b&gt;Hello!! How can I help you?&lt;/b&gt;&lt;/font&gt;" style="shape=parallelogram;perimeter=parallelogramPerimeter;whiteSpace=wrap;html=1;fixedSize=1;hachureGap=4;pointerEvents=0;" parent="0ok2K6wH5HigkwixbM4u-1" vertex="1">
          <mxGeometry x="340" y="740" width="190" height="40" as="geometry" />
        </mxCell>
        <mxCell id="0ok2K6wH5HigkwixbM4u-84" value="&lt;font style=&quot;font-size: 10px&quot;&gt;&lt;b&gt;Main option set(smartpay, create account..,.......&lt;/b&gt;&lt;/font&gt;" style="rhombus;whiteSpace=wrap;html=1;hachureGap=4;pointerEvents=0;" parent="0ok2K6wH5HigkwixbM4u-1" vertex="1">
          <mxGeometry x="280" y="860" width="180" height="50" as="geometry" />
        </mxCell>
        <mxCell id="0ok2K6wH5HigkwixbM4u-220" style="edgeStyle=orthogonalEdgeStyle;rounded=0;orthogonalLoop=1;jettySize=auto;html=1;endArrow=open;startSize=14;endSize=5;sourcePerimeterSpacing=8;targetPerimeterSpacing=8;strokeWidth=1;" parent="0ok2K6wH5HigkwixbM4u-1" source="0ok2K6wH5HigkwixbM4u-217" target="0ok2K6wH5HigkwixbM4u-48" edge="1">
          <mxGeometry relative="1" as="geometry" />
        </mxCell>
        <mxCell id="0ok2K6wH5HigkwixbM4u-221" style="edgeStyle=orthogonalEdgeStyle;rounded=0;orthogonalLoop=1;jettySize=auto;html=1;entryX=0.609;entryY=-0.008;entryDx=0;entryDy=0;entryPerimeter=0;endArrow=open;startSize=14;endSize=5;sourcePerimeterSpacing=8;targetPerimeterSpacing=8;strokeWidth=1;" parent="0ok2K6wH5HigkwixbM4u-1" source="0ok2K6wH5HigkwixbM4u-217" target="0ok2K6wH5HigkwixbM4u-50" edge="1">
          <mxGeometry relative="1" as="geometry" />
        </mxCell>
        <mxCell id="0ok2K6wH5HigkwixbM4u-217" value="&lt;span style=&quot;font-size: 10px&quot;&gt;&lt;b&gt;Are you satisfy about my service?&lt;/b&gt;&lt;/span&gt;" style="shape=parallelogram;perimeter=parallelogramPerimeter;whiteSpace=wrap;html=1;fixedSize=1;hachureGap=4;pointerEvents=0;" parent="0ok2K6wH5HigkwixbM4u-1" vertex="1">
          <mxGeometry x="165" y="385" width="190" height="40" as="geometry" />
        </mxCell>
        <mxCell id="0ok2K6wH5HigkwixbM4u-236" value="use this in other ones" style="text;html=1;align=center;verticalAlign=middle;resizable=0;points=[];autosize=1;strokeColor=none;fillColor=none;" parent="0ok2K6wH5HigkwixbM4u-1" vertex="1">
          <mxGeometry x="20" y="395" width="130" height="20" as="geometry" />
        </mxCell>
        <mxCell id="0ok2K6wH5HigkwixbM4u-227" value="" style="endArrow=none;dashed=1;html=1;startSize=14;endSize=5;sourcePerimeterSpacing=8;targetPerimeterSpacing=8;strokeWidth=3;" parent="0ok2K6wH5HigkwixbM4u-1" edge="1">
          <mxGeometry width="50" height="50" relative="1" as="geometry">
            <mxPoint x="10" y="950.2" as="sourcePoint" />
            <mxPoint x="540" y="949.9999877929688" as="targetPoint" />
          </mxGeometry>
        </mxCell>
        <mxCell id="0ok2K6wH5HigkwixbM4u-87" value="(2nd Case) SmartPay" style="swimlane;hachureGap=4;pointerEvents=0;fillColor=#8AF3FF;" parent="1c1d494c118603dd-1" vertex="1">
          <mxGeometry x="550" y="20" width="550" height="970" as="geometry" />
        </mxCell>
        <mxCell id="0ok2K6wH5HigkwixbM4u-237" value="(3rd Case) Bank Account Details" style="swimlane;hachureGap=4;pointerEvents=0;fillColor=#8AF3FF;" parent="0ok2K6wH5HigkwixbM4u-87" vertex="1">
          <mxGeometry y="460" width="550" height="510" as="geometry" />
        </mxCell>
        <mxCell id="0ok2K6wH5HigkwixbM4u-248" value="" style="rounded=0;whiteSpace=wrap;html=1;hachureGap=4;pointerEvents=0;fillColor=#8AF3FF;strokeWidth=3;dashed=1;" parent="0ok2K6wH5HigkwixbM4u-237" vertex="1">
          <mxGeometry x="7.5" y="270" width="232.5" height="90" as="geometry" />
        </mxCell>
        <mxCell id="0ok2K6wH5HigkwixbM4u-282" style="edgeStyle=orthogonalEdgeStyle;rounded=0;orthogonalLoop=1;jettySize=auto;html=1;entryX=0.618;entryY=0;entryDx=0;entryDy=0;entryPerimeter=0;endArrow=open;startSize=14;endSize=5;sourcePerimeterSpacing=8;targetPerimeterSpacing=8;strokeWidth=1;" parent="0ok2K6wH5HigkwixbM4u-237" source="0ok2K6wH5HigkwixbM4u-238" target="0ok2K6wH5HigkwixbM4u-239" edge="1">
          <mxGeometry relative="1" as="geometry" />
        </mxCell>
        <mxCell id="0ok2K6wH5HigkwixbM4u-238" value="&lt;font style=&quot;font-size: 10px&quot;&gt;&lt;b&gt;I need to know Account Details (account details, bank accounts, account, accounts, account detail, bank account)&lt;/b&gt;&lt;/font&gt;" style="ellipse;whiteSpace=wrap;html=1;hachureGap=4;pointerEvents=0;fillColor=#8AF3FF;" parent="0ok2K6wH5HigkwixbM4u-237" vertex="1">
          <mxGeometry x="35" y="40" width="285" height="70" as="geometry" />
        </mxCell>
        <mxCell id="0ok2K6wH5HigkwixbM4u-242" style="edgeStyle=orthogonalEdgeStyle;rounded=0;orthogonalLoop=1;jettySize=auto;html=1;entryX=1;entryY=0.5;entryDx=0;entryDy=0;endArrow=open;startSize=14;endSize=5;sourcePerimeterSpacing=8;targetPerimeterSpacing=8;strokeWidth=1;" parent="0ok2K6wH5HigkwixbM4u-237" source="0ok2K6wH5HigkwixbM4u-239" target="0ok2K6wH5HigkwixbM4u-240" edge="1">
          <mxGeometry relative="1" as="geometry">
            <Array as="points">
              <mxPoint x="155" y="230" />
            </Array>
          </mxGeometry>
        </mxCell>
        <mxCell id="0ok2K6wH5HigkwixbM4u-243" style="edgeStyle=orthogonalEdgeStyle;rounded=0;orthogonalLoop=1;jettySize=auto;html=1;entryX=0;entryY=0.5;entryDx=0;entryDy=0;endArrow=open;startSize=14;endSize=5;sourcePerimeterSpacing=8;targetPerimeterSpacing=8;strokeWidth=1;" parent="0ok2K6wH5HigkwixbM4u-237" source="0ok2K6wH5HigkwixbM4u-239" target="0ok2K6wH5HigkwixbM4u-241" edge="1">
          <mxGeometry relative="1" as="geometry" />
        </mxCell>
        <mxCell id="0ok2K6wH5HigkwixbM4u-239" value="&lt;font style=&quot;font-size: 10px&quot;&gt;&lt;b&gt;(5th Q)&lt;/b&gt;&lt;b&gt;. What type of service do you need?&lt;/b&gt;&lt;/font&gt;" style="shape=parallelogram;perimeter=parallelogramPerimeter;whiteSpace=wrap;html=1;fixedSize=1;hachureGap=4;pointerEvents=0;" parent="0ok2K6wH5HigkwixbM4u-237" vertex="1">
          <mxGeometry x="60" y="130" width="190" height="40" as="geometry" />
        </mxCell>
        <mxCell id="0ok2K6wH5HigkwixbM4u-273" style="edgeStyle=orthogonalEdgeStyle;rounded=0;orthogonalLoop=1;jettySize=auto;html=1;entryX=0;entryY=0;entryDx=0;entryDy=0;endArrow=open;startSize=14;endSize=5;sourcePerimeterSpacing=8;targetPerimeterSpacing=8;strokeWidth=1;" parent="0ok2K6wH5HigkwixbM4u-237" source="0ok2K6wH5HigkwixbM4u-240" target="0ok2K6wH5HigkwixbM4u-245" edge="1">
          <mxGeometry relative="1" as="geometry" />
        </mxCell>
        <mxCell id="0ok2K6wH5HigkwixbM4u-240" value="&lt;font style=&quot;font-size: 10px&quot;&gt;&lt;b&gt;Need to Create a Account?&lt;/b&gt;&lt;/font&gt;" style="rhombus;whiteSpace=wrap;html=1;hachureGap=4;pointerEvents=0;" parent="0ok2K6wH5HigkwixbM4u-237" vertex="1">
          <mxGeometry x="35" y="195" width="75" height="70" as="geometry" />
        </mxCell>
        <mxCell id="0ok2K6wH5HigkwixbM4u-283" style="edgeStyle=orthogonalEdgeStyle;rounded=0;orthogonalLoop=1;jettySize=auto;html=1;entryX=0.25;entryY=0;entryDx=0;entryDy=0;endArrow=open;startSize=14;endSize=5;sourcePerimeterSpacing=8;targetPerimeterSpacing=8;strokeWidth=1;" parent="0ok2K6wH5HigkwixbM4u-237" source="0ok2K6wH5HigkwixbM4u-241" target="0ok2K6wH5HigkwixbM4u-259" edge="1">
          <mxGeometry relative="1" as="geometry">
            <Array as="points">
              <mxPoint x="333" y="200" />
            </Array>
          </mxGeometry>
        </mxCell>
        <mxCell id="0ok2K6wH5HigkwixbM4u-241" value="&lt;font style=&quot;font-size: 10px&quot;&gt;&lt;b&gt;Need details about Accounts&lt;/b&gt;&lt;/font&gt;" style="rhombus;whiteSpace=wrap;html=1;hachureGap=4;pointerEvents=0;" parent="0ok2K6wH5HigkwixbM4u-237" vertex="1">
          <mxGeometry x="200" y="190" width="80" height="80" as="geometry" />
        </mxCell>
        <mxCell id="0ok2K6wH5HigkwixbM4u-245" value="&lt;font style=&quot;font-size: 10px&quot;&gt;&lt;b&gt;(1st Q).&lt;/b&gt;&lt;b&gt;&amp;nbsp;Please tell me what type of Account you need?&lt;/b&gt;&lt;/font&gt;" style="shape=parallelogram;perimeter=parallelogramPerimeter;whiteSpace=wrap;html=1;fixedSize=1;hachureGap=4;pointerEvents=0;" parent="0ok2K6wH5HigkwixbM4u-237" vertex="1">
          <mxGeometry x="28.75" y="295" width="190" height="40" as="geometry" />
        </mxCell>
        <mxCell id="0ok2K6wH5HigkwixbM4u-249" value="see (1st case)" style="text;html=1;align=center;verticalAlign=middle;resizable=0;points=[];autosize=1;strokeColor=none;fillColor=none;" parent="0ok2K6wH5HigkwixbM4u-237" vertex="1">
          <mxGeometry x="40" y="340" width="90" height="20" as="geometry" />
        </mxCell>
        <mxCell id="0ok2K6wH5HigkwixbM4u-251" value="Reserved Words in This Section" style="swimlane;hachureGap=4;pointerEvents=0;" parent="0ok2K6wH5HigkwixbM4u-237" vertex="1">
          <mxGeometry x="360" y="25" width="190" height="185" as="geometry" />
        </mxCell>
        <mxCell id="0ok2K6wH5HigkwixbM4u-252" value="&lt;b style=&quot;font-size: 10px&quot;&gt;(5th Q)&amp;nbsp;&lt;br&gt;&lt;/b&gt;&lt;b style=&quot;font-size: 10px&quot;&gt;account details, &lt;br&gt;bank accounts, &lt;br&gt;account, &lt;br&gt;accounts, &lt;br&gt;account detail, &lt;br&gt;bank account&lt;/b&gt;" style="text;html=1;align=center;verticalAlign=middle;resizable=0;points=[];autosize=1;strokeColor=none;fillColor=none;" parent="0ok2K6wH5HigkwixbM4u-251" vertex="1">
          <mxGeometry x="20" y="35" width="90" height="110" as="geometry" />
        </mxCell>
        <mxCell id="0ok2K6wH5HigkwixbM4u-259" value="&lt;font style=&quot;font-size: 10px&quot;&gt;&lt;b&gt;(6st Q).&lt;/b&gt;&lt;b&gt;&amp;nbsp;Please tell me what type of Account you need?&lt;/b&gt;&lt;/font&gt;" style="shape=parallelogram;perimeter=parallelogramPerimeter;whiteSpace=wrap;html=1;fixedSize=1;hachureGap=4;pointerEvents=0;" parent="0ok2K6wH5HigkwixbM4u-237" vertex="1">
          <mxGeometry x="285" y="220" width="190" height="40" as="geometry" />
        </mxCell>
        <mxCell id="0ok2K6wH5HigkwixbM4u-275" style="edgeStyle=orthogonalEdgeStyle;rounded=0;orthogonalLoop=1;jettySize=auto;html=1;entryX=0.5;entryY=0;entryDx=0;entryDy=0;endArrow=open;startSize=14;endSize=5;sourcePerimeterSpacing=8;targetPerimeterSpacing=8;strokeWidth=1;" parent="0ok2K6wH5HigkwixbM4u-237" source="0ok2K6wH5HigkwixbM4u-261" target="0ok2K6wH5HigkwixbM4u-270" edge="1">
          <mxGeometry relative="1" as="geometry">
            <Array as="points">
              <mxPoint x="280" y="370" />
              <mxPoint x="405" y="370" />
            </Array>
          </mxGeometry>
        </mxCell>
        <mxCell id="0ok2K6wH5HigkwixbM4u-261" value="&lt;font style=&quot;font-size: 10px&quot;&gt;&lt;b&gt;Saving Account&lt;/b&gt;&lt;/font&gt;" style="rhombus;whiteSpace=wrap;html=1;hachureGap=4;pointerEvents=0;" parent="0ok2K6wH5HigkwixbM4u-237" vertex="1">
          <mxGeometry x="250" y="285" width="60" height="60" as="geometry" />
        </mxCell>
        <mxCell id="0ok2K6wH5HigkwixbM4u-254" style="edgeStyle=orthogonalEdgeStyle;rounded=0;orthogonalLoop=1;jettySize=auto;html=1;entryX=0.5;entryY=0;entryDx=0;entryDy=0;endArrow=open;startSize=14;endSize=5;sourcePerimeterSpacing=8;targetPerimeterSpacing=8;strokeWidth=1;" parent="0ok2K6wH5HigkwixbM4u-237" source="0ok2K6wH5HigkwixbM4u-259" target="0ok2K6wH5HigkwixbM4u-261" edge="1">
          <mxGeometry relative="1" as="geometry" />
        </mxCell>
        <mxCell id="0ok2K6wH5HigkwixbM4u-263" value="&lt;font style=&quot;font-size: 10px&quot;&gt;&lt;b&gt;FIxed Deposit Account&lt;/b&gt;&lt;/font&gt;" style="rhombus;whiteSpace=wrap;html=1;hachureGap=4;pointerEvents=0;" parent="0ok2K6wH5HigkwixbM4u-237" vertex="1">
          <mxGeometry x="370" y="290" width="60" height="60" as="geometry" />
        </mxCell>
        <mxCell id="0ok2K6wH5HigkwixbM4u-256" style="edgeStyle=orthogonalEdgeStyle;rounded=0;orthogonalLoop=1;jettySize=auto;html=1;entryX=0.5;entryY=0;entryDx=0;entryDy=0;endArrow=open;startSize=14;endSize=5;sourcePerimeterSpacing=8;targetPerimeterSpacing=8;strokeWidth=1;" parent="0ok2K6wH5HigkwixbM4u-237" source="0ok2K6wH5HigkwixbM4u-259" target="0ok2K6wH5HigkwixbM4u-263" edge="1">
          <mxGeometry relative="1" as="geometry" />
        </mxCell>
        <mxCell id="0ok2K6wH5HigkwixbM4u-274" style="edgeStyle=orthogonalEdgeStyle;rounded=0;orthogonalLoop=1;jettySize=auto;html=1;entryX=0.5;entryY=0;entryDx=0;entryDy=0;endArrow=open;startSize=14;endSize=5;sourcePerimeterSpacing=8;targetPerimeterSpacing=8;strokeWidth=1;" parent="0ok2K6wH5HigkwixbM4u-237" source="0ok2K6wH5HigkwixbM4u-265" target="0ok2K6wH5HigkwixbM4u-270" edge="1">
          <mxGeometry relative="1" as="geometry" />
        </mxCell>
        <mxCell id="0ok2K6wH5HigkwixbM4u-265" value="&lt;font style=&quot;font-size: 10px&quot;&gt;&lt;b&gt;Current Account&lt;/b&gt;&lt;/font&gt;" style="rhombus;whiteSpace=wrap;html=1;hachureGap=4;pointerEvents=0;" parent="0ok2K6wH5HigkwixbM4u-237" vertex="1">
          <mxGeometry x="310" y="290" width="60" height="60" as="geometry" />
        </mxCell>
        <mxCell id="0ok2K6wH5HigkwixbM4u-255" style="edgeStyle=orthogonalEdgeStyle;rounded=0;orthogonalLoop=1;jettySize=auto;html=1;entryX=0.5;entryY=0;entryDx=0;entryDy=0;endArrow=open;startSize=14;endSize=5;sourcePerimeterSpacing=8;targetPerimeterSpacing=8;strokeWidth=1;" parent="0ok2K6wH5HigkwixbM4u-237" source="0ok2K6wH5HigkwixbM4u-259" target="0ok2K6wH5HigkwixbM4u-265" edge="1">
          <mxGeometry relative="1" as="geometry" />
        </mxCell>
        <mxCell id="0ok2K6wH5HigkwixbM4u-267" value="&lt;font&gt;&lt;span style=&quot;font-size: 10px&quot;&gt;&lt;b&gt;Recurring&lt;/b&gt;&lt;/span&gt;&lt;b style=&quot;font-size: 10px&quot;&gt;&amp;nbsp;Deposit Account&lt;/b&gt;&lt;/font&gt;" style="rhombus;whiteSpace=wrap;html=1;hachureGap=4;pointerEvents=0;" parent="0ok2K6wH5HigkwixbM4u-237" vertex="1">
          <mxGeometry x="425" y="295" width="60" height="60" as="geometry" />
        </mxCell>
        <mxCell id="0ok2K6wH5HigkwixbM4u-257" style="edgeStyle=orthogonalEdgeStyle;rounded=0;orthogonalLoop=1;jettySize=auto;html=1;entryX=0.5;entryY=0;entryDx=0;entryDy=0;endArrow=open;startSize=14;endSize=5;sourcePerimeterSpacing=8;targetPerimeterSpacing=8;strokeWidth=1;" parent="0ok2K6wH5HigkwixbM4u-237" source="0ok2K6wH5HigkwixbM4u-259" target="0ok2K6wH5HigkwixbM4u-267" edge="1">
          <mxGeometry relative="1" as="geometry" />
        </mxCell>
        <mxCell id="0ok2K6wH5HigkwixbM4u-270" value="&lt;font style=&quot;font-size: 10px&quot;&gt;&lt;b&gt;Display information of different accounts(5 type of accounts have different steps&lt;/b&gt;&lt;/font&gt;" style="rounded=0;whiteSpace=wrap;html=1;hachureGap=4;pointerEvents=0;" parent="0ok2K6wH5HigkwixbM4u-237" vertex="1">
          <mxGeometry x="325" y="390" width="160" height="70" as="geometry" />
        </mxCell>
        <mxCell id="0ok2K6wH5HigkwixbM4u-287" style="edgeStyle=orthogonalEdgeStyle;rounded=0;orthogonalLoop=1;jettySize=auto;html=1;entryX=1;entryY=0.5;entryDx=0;entryDy=0;endArrow=open;startSize=14;endSize=5;sourcePerimeterSpacing=8;targetPerimeterSpacing=8;strokeWidth=1;" parent="0ok2K6wH5HigkwixbM4u-237" source="0ok2K6wH5HigkwixbM4u-270" target="0ok2K6wH5HigkwixbM4u-277" edge="1">
          <mxGeometry relative="1" as="geometry" />
        </mxCell>
        <mxCell id="0ok2K6wH5HigkwixbM4u-262" style="edgeStyle=orthogonalEdgeStyle;rounded=0;orthogonalLoop=1;jettySize=auto;html=1;entryX=0.5;entryY=0;entryDx=0;entryDy=0;endArrow=open;startSize=14;endSize=5;sourcePerimeterSpacing=8;targetPerimeterSpacing=8;strokeWidth=1;" parent="0ok2K6wH5HigkwixbM4u-237" source="0ok2K6wH5HigkwixbM4u-263" target="0ok2K6wH5HigkwixbM4u-270" edge="1">
          <mxGeometry relative="1" as="geometry" />
        </mxCell>
        <mxCell id="0ok2K6wH5HigkwixbM4u-266" style="edgeStyle=orthogonalEdgeStyle;rounded=0;orthogonalLoop=1;jettySize=auto;html=1;entryX=0.5;entryY=0;entryDx=0;entryDy=0;endArrow=open;startSize=14;endSize=5;sourcePerimeterSpacing=8;targetPerimeterSpacing=8;strokeWidth=1;" parent="0ok2K6wH5HigkwixbM4u-237" source="0ok2K6wH5HigkwixbM4u-267" target="0ok2K6wH5HigkwixbM4u-270" edge="1">
          <mxGeometry relative="1" as="geometry">
            <Array as="points">
              <mxPoint x="455" y="370" />
              <mxPoint x="405" y="370" />
            </Array>
          </mxGeometry>
        </mxCell>
        <mxCell id="0ok2K6wH5HigkwixbM4u-276" style="edgeStyle=orthogonalEdgeStyle;rounded=0;orthogonalLoop=1;jettySize=auto;html=1;entryX=0.5;entryY=0;entryDx=0;entryDy=0;endArrow=open;startSize=14;endSize=5;sourcePerimeterSpacing=8;targetPerimeterSpacing=8;strokeWidth=1;" parent="0ok2K6wH5HigkwixbM4u-237" source="0ok2K6wH5HigkwixbM4u-269" target="0ok2K6wH5HigkwixbM4u-270" edge="1">
          <mxGeometry relative="1" as="geometry" />
        </mxCell>
        <mxCell id="0ok2K6wH5HigkwixbM4u-269" value="&lt;font style=&quot;font-size: 10px&quot;&gt;&lt;b&gt;NRI Account&lt;/b&gt;&lt;/font&gt;" style="rhombus;whiteSpace=wrap;html=1;hachureGap=4;pointerEvents=0;" parent="0ok2K6wH5HigkwixbM4u-237" vertex="1">
          <mxGeometry x="485" y="290" width="60" height="60" as="geometry" />
        </mxCell>
        <mxCell id="0ok2K6wH5HigkwixbM4u-258" style="edgeStyle=orthogonalEdgeStyle;rounded=0;orthogonalLoop=1;jettySize=auto;html=1;endArrow=open;startSize=14;endSize=5;sourcePerimeterSpacing=8;targetPerimeterSpacing=8;strokeWidth=1;" parent="0ok2K6wH5HigkwixbM4u-237" source="0ok2K6wH5HigkwixbM4u-259" target="0ok2K6wH5HigkwixbM4u-269" edge="1">
          <mxGeometry relative="1" as="geometry" />
        </mxCell>
        <mxCell id="0ok2K6wH5HigkwixbM4u-280" value="" style="rounded=0;whiteSpace=wrap;html=1;hachureGap=4;pointerEvents=0;fillColor=#8AF3FF;strokeWidth=3;dashed=1;" parent="0ok2K6wH5HigkwixbM4u-237" vertex="1">
          <mxGeometry x="7.5" y="395" width="280" height="70" as="geometry" />
        </mxCell>
        <mxCell id="0ok2K6wH5HigkwixbM4u-277" value="&lt;span style=&quot;font-size: 10px&quot;&gt;&lt;b&gt;Are you satisfy about my service?&lt;/b&gt;&lt;/span&gt;" style="shape=parallelogram;perimeter=parallelogramPerimeter;whiteSpace=wrap;html=1;fixedSize=1;hachureGap=4;pointerEvents=0;" parent="0ok2K6wH5HigkwixbM4u-237" vertex="1">
          <mxGeometry x="82.5" y="405" width="190" height="40" as="geometry" />
        </mxCell>
        <mxCell id="0ok2K6wH5HigkwixbM4u-279" value="same steps of (1st case)" style="text;html=1;align=center;verticalAlign=middle;resizable=0;points=[];autosize=1;strokeColor=none;fillColor=none;" parent="0ok2K6wH5HigkwixbM4u-237" vertex="1">
          <mxGeometry x="15" y="445" width="150" height="20" as="geometry" />
        </mxCell>
        <mxCell id="0ok2K6wH5HigkwixbM4u-250" value="" style="rounded=0;whiteSpace=wrap;html=1;hachureGap=4;pointerEvents=0;fillColor=#8AF3FF;strokeWidth=3;dashed=1;" parent="0ok2K6wH5HigkwixbM4u-87" vertex="1">
          <mxGeometry x="11.879999999999999" y="380" width="526.25" height="70" as="geometry" />
        </mxCell>
        <mxCell id="0ok2K6wH5HigkwixbM4u-153" style="edgeStyle=orthogonalEdgeStyle;rounded=0;orthogonalLoop=1;jettySize=auto;html=1;entryX=0.5;entryY=0;entryDx=0;entryDy=0;endArrow=open;startSize=14;endSize=5;sourcePerimeterSpacing=8;targetPerimeterSpacing=8;strokeWidth=1;" parent="0ok2K6wH5HigkwixbM4u-87" source="0ok2K6wH5HigkwixbM4u-95" target="0ok2K6wH5HigkwixbM4u-152" edge="1">
          <mxGeometry relative="1" as="geometry">
            <Array as="points">
              <mxPoint x="130" y="130" />
            </Array>
          </mxGeometry>
        </mxCell>
        <mxCell id="0ok2K6wH5HigkwixbM4u-95" value="&lt;font style=&quot;font-size: 10px&quot;&gt;&lt;b&gt;How can I use Smartpay (smartpay, payment, bill payment, any bill payment)&lt;/b&gt;&lt;/font&gt;" style="ellipse;whiteSpace=wrap;html=1;hachureGap=4;pointerEvents=0;fillColor=#8AF3FF;" parent="0ok2K6wH5HigkwixbM4u-87" vertex="1">
          <mxGeometry x="30" y="40" width="200" height="50" as="geometry" />
        </mxCell>
        <mxCell id="0ok2K6wH5HigkwixbM4u-120" value="Reserved Words in This Section" style="swimlane;hachureGap=4;pointerEvents=0;" parent="0ok2K6wH5HigkwixbM4u-87" vertex="1">
          <mxGeometry x="360" y="30" width="190" height="270" as="geometry" />
        </mxCell>
        <mxCell id="0ok2K6wH5HigkwixbM4u-121" value="&lt;b style=&quot;font-size: 10px&quot;&gt;(4th Q)&amp;nbsp;&lt;br&gt;&lt;/b&gt;&lt;b style=&quot;font-size: 10px&quot;&gt;smartpay, &lt;br&gt;payment, &lt;br&gt;bill payment, &lt;br&gt;any bill payment&lt;/b&gt;" style="text;html=1;align=center;verticalAlign=middle;resizable=0;points=[];autosize=1;strokeColor=none;fillColor=none;" parent="0ok2K6wH5HigkwixbM4u-120" vertex="1">
          <mxGeometry x="20" y="30" width="90" height="80" as="geometry" />
        </mxCell>
        <mxCell id="0ok2K6wH5HigkwixbM4u-157" style="edgeStyle=orthogonalEdgeStyle;rounded=0;orthogonalLoop=1;jettySize=auto;html=1;entryX=0.5;entryY=0;entryDx=0;entryDy=0;endArrow=open;startSize=14;endSize=5;sourcePerimeterSpacing=8;targetPerimeterSpacing=8;strokeWidth=1;" parent="0ok2K6wH5HigkwixbM4u-87" source="0ok2K6wH5HigkwixbM4u-152" target="0ok2K6wH5HigkwixbM4u-154" edge="1">
          <mxGeometry relative="1" as="geometry" />
        </mxCell>
        <mxCell id="0ok2K6wH5HigkwixbM4u-158" style="edgeStyle=orthogonalEdgeStyle;rounded=0;orthogonalLoop=1;jettySize=auto;html=1;entryX=0.5;entryY=0;entryDx=0;entryDy=0;endArrow=open;startSize=14;endSize=5;sourcePerimeterSpacing=8;targetPerimeterSpacing=8;strokeWidth=1;" parent="0ok2K6wH5HigkwixbM4u-87" source="0ok2K6wH5HigkwixbM4u-152" target="0ok2K6wH5HigkwixbM4u-155" edge="1">
          <mxGeometry relative="1" as="geometry" />
        </mxCell>
        <mxCell id="0ok2K6wH5HigkwixbM4u-160" style="edgeStyle=orthogonalEdgeStyle;rounded=0;orthogonalLoop=1;jettySize=auto;html=1;entryX=0.5;entryY=0;entryDx=0;entryDy=0;endArrow=open;startSize=14;endSize=5;sourcePerimeterSpacing=8;targetPerimeterSpacing=8;strokeWidth=1;" parent="0ok2K6wH5HigkwixbM4u-87" source="0ok2K6wH5HigkwixbM4u-152" target="0ok2K6wH5HigkwixbM4u-156" edge="1">
          <mxGeometry relative="1" as="geometry">
            <Array as="points">
              <mxPoint x="130" y="190" />
              <mxPoint x="260" y="190" />
            </Array>
          </mxGeometry>
        </mxCell>
        <mxCell id="0ok2K6wH5HigkwixbM4u-152" value="&lt;font style=&quot;font-size: 10px&quot;&gt;&lt;b&gt;(4th Q) Please tell me what type of payment you need to pay?&lt;/b&gt;&lt;/font&gt;" style="shape=parallelogram;perimeter=parallelogramPerimeter;whiteSpace=wrap;html=1;fixedSize=1;hachureGap=4;pointerEvents=0;" parent="0ok2K6wH5HigkwixbM4u-87" vertex="1">
          <mxGeometry x="35" y="130" width="190" height="40" as="geometry" />
        </mxCell>
        <mxCell id="0ok2K6wH5HigkwixbM4u-214" style="edgeStyle=orthogonalEdgeStyle;rounded=0;orthogonalLoop=1;jettySize=auto;html=1;entryX=0.5;entryY=0;entryDx=0;entryDy=0;endArrow=open;startSize=14;endSize=5;sourcePerimeterSpacing=8;targetPerimeterSpacing=8;strokeWidth=1;" parent="0ok2K6wH5HigkwixbM4u-87" source="0ok2K6wH5HigkwixbM4u-154" target="0ok2K6wH5HigkwixbM4u-210" edge="1">
          <mxGeometry relative="1" as="geometry" />
        </mxCell>
        <mxCell id="0ok2K6wH5HigkwixbM4u-154" value="&lt;font style=&quot;font-size: 10px&quot;&gt;&lt;b&gt;Commercial Payments&lt;/b&gt;&lt;/font&gt;" style="rhombus;whiteSpace=wrap;html=1;hachureGap=4;pointerEvents=0;" parent="0ok2K6wH5HigkwixbM4u-87" vertex="1">
          <mxGeometry x="50" y="200" width="60" height="60" as="geometry" />
        </mxCell>
        <mxCell id="0ok2K6wH5HigkwixbM4u-212" style="edgeStyle=orthogonalEdgeStyle;rounded=0;orthogonalLoop=1;jettySize=auto;html=1;entryX=0.5;entryY=0;entryDx=0;entryDy=0;endArrow=open;startSize=14;endSize=5;sourcePerimeterSpacing=8;targetPerimeterSpacing=8;strokeWidth=1;" parent="0ok2K6wH5HigkwixbM4u-87" source="0ok2K6wH5HigkwixbM4u-155" target="0ok2K6wH5HigkwixbM4u-210" edge="1">
          <mxGeometry relative="1" as="geometry" />
        </mxCell>
        <mxCell id="0ok2K6wH5HigkwixbM4u-155" value="&lt;font style=&quot;font-size: 10px&quot;&gt;&lt;b&gt;Trade Payments&lt;/b&gt;&lt;/font&gt;" style="rhombus;whiteSpace=wrap;html=1;hachureGap=4;pointerEvents=0;" parent="0ok2K6wH5HigkwixbM4u-87" vertex="1">
          <mxGeometry x="130" y="200" width="60" height="60" as="geometry" />
        </mxCell>
        <mxCell id="0ok2K6wH5HigkwixbM4u-213" style="edgeStyle=orthogonalEdgeStyle;rounded=0;orthogonalLoop=1;jettySize=auto;html=1;entryX=0.5;entryY=0;entryDx=0;entryDy=0;endArrow=open;startSize=14;endSize=5;sourcePerimeterSpacing=8;targetPerimeterSpacing=8;strokeWidth=1;" parent="0ok2K6wH5HigkwixbM4u-87" source="0ok2K6wH5HigkwixbM4u-156" target="0ok2K6wH5HigkwixbM4u-210" edge="1">
          <mxGeometry relative="1" as="geometry" />
        </mxCell>
        <mxCell id="0ok2K6wH5HigkwixbM4u-156" value="&lt;font style=&quot;font-size: 10px&quot;&gt;&lt;b&gt;Foreign Exchange&lt;/b&gt;&lt;/font&gt;" style="rhombus;whiteSpace=wrap;html=1;hachureGap=4;pointerEvents=0;" parent="0ok2K6wH5HigkwixbM4u-87" vertex="1">
          <mxGeometry x="230" y="200" width="60" height="60" as="geometry" />
        </mxCell>
        <mxCell id="0ok2K6wH5HigkwixbM4u-224" style="edgeStyle=orthogonalEdgeStyle;rounded=0;orthogonalLoop=1;jettySize=auto;html=1;entryX=0.5;entryY=0;entryDx=0;entryDy=0;endArrow=open;startSize=14;endSize=5;sourcePerimeterSpacing=8;targetPerimeterSpacing=8;strokeWidth=1;" parent="0ok2K6wH5HigkwixbM4u-87" source="0ok2K6wH5HigkwixbM4u-210" target="0ok2K6wH5HigkwixbM4u-222" edge="1">
          <mxGeometry relative="1" as="geometry">
            <Array as="points">
              <mxPoint x="345" y="320" />
            </Array>
          </mxGeometry>
        </mxCell>
        <mxCell id="0ok2K6wH5HigkwixbM4u-210" value="&lt;font style=&quot;font-size: 10px&quot;&gt;&lt;b&gt;Display steps to do a payment (3 type of payments have different steps&lt;br&gt;&lt;/b&gt;&lt;/font&gt;" style="rounded=0;whiteSpace=wrap;html=1;hachureGap=4;pointerEvents=0;" parent="0ok2K6wH5HigkwixbM4u-87" vertex="1">
          <mxGeometry x="80" y="300" width="160" height="70" as="geometry" />
        </mxCell>
        <mxCell id="0ok2K6wH5HigkwixbM4u-222" value="&lt;span style=&quot;font-size: 10px&quot;&gt;&lt;b&gt;Are you satisfy about my service?&lt;/b&gt;&lt;/span&gt;" style="shape=parallelogram;perimeter=parallelogramPerimeter;whiteSpace=wrap;html=1;fixedSize=1;hachureGap=4;pointerEvents=0;" parent="0ok2K6wH5HigkwixbM4u-87" vertex="1">
          <mxGeometry x="250" y="390" width="190" height="40" as="geometry" />
        </mxCell>
        <mxCell id="0ok2K6wH5HigkwixbM4u-234" value="same steps of (1st case)" style="text;html=1;align=center;verticalAlign=middle;resizable=0;points=[];autosize=1;strokeColor=none;fillColor=none;" parent="0ok2K6wH5HigkwixbM4u-87" vertex="1">
          <mxGeometry x="80" y="400" width="150" height="20" as="geometry" />
        </mxCell>
        <mxCell id="0ok2K6wH5HigkwixbM4u-136" value="(4th Case) SmartPay" style="swimlane;hachureGap=4;pointerEvents=0;fillColor=#8AF3FF;" parent="1c1d494c118603dd-1" vertex="1">
          <mxGeometry x="1100" y="20" width="550" height="970" as="geometry" />
        </mxCell>
        <mxCell id="0ok2K6wH5HigkwixbM4u-303" style="edgeStyle=orthogonalEdgeStyle;rounded=0;orthogonalLoop=1;jettySize=auto;html=1;entryX=0.5;entryY=0;entryDx=0;entryDy=0;endArrow=open;startSize=14;endSize=5;sourcePerimeterSpacing=8;targetPerimeterSpacing=8;strokeWidth=1;" parent="0ok2K6wH5HigkwixbM4u-136" source="0ok2K6wH5HigkwixbM4u-138" target="0ok2K6wH5HigkwixbM4u-288" edge="1">
          <mxGeometry relative="1" as="geometry" />
        </mxCell>
        <mxCell id="0ok2K6wH5HigkwixbM4u-138" value="&lt;font&gt;&lt;b style=&quot;font-size: 10px&quot;&gt;I need to know details about online banking/ mobile banking. (online, mobile, online banking, &lt;/b&gt;&lt;span style=&quot;font-size: 10px&quot;&gt;&lt;b&gt;mobile&lt;/b&gt;&lt;/span&gt;&lt;b style=&quot;font-size: 10px&quot;&gt;&amp;nbsp;banking, e, e-banking)&lt;/b&gt;&lt;/font&gt;" style="ellipse;whiteSpace=wrap;html=1;hachureGap=4;pointerEvents=0;fillColor=#8AF3FF;" parent="0ok2K6wH5HigkwixbM4u-136" vertex="1">
          <mxGeometry x="55" y="40" width="240" height="80" as="geometry" />
        </mxCell>
        <mxCell id="0ok2K6wH5HigkwixbM4u-139" value="Reserved Words in This Section" style="swimlane;hachureGap=4;pointerEvents=0;" parent="0ok2K6wH5HigkwixbM4u-136" vertex="1">
          <mxGeometry x="360" y="30" width="190" height="270" as="geometry" />
        </mxCell>
        <mxCell id="0ok2K6wH5HigkwixbM4u-294" style="edgeStyle=orthogonalEdgeStyle;rounded=0;orthogonalLoop=1;jettySize=auto;html=1;entryX=0.5;entryY=0;entryDx=0;entryDy=0;endArrow=open;startSize=14;endSize=5;sourcePerimeterSpacing=8;targetPerimeterSpacing=8;strokeWidth=1;" parent="0ok2K6wH5HigkwixbM4u-136" source="0ok2K6wH5HigkwixbM4u-288" target="0ok2K6wH5HigkwixbM4u-292" edge="1">
          <mxGeometry relative="1" as="geometry" />
        </mxCell>
        <mxCell id="0ok2K6wH5HigkwixbM4u-296" style="edgeStyle=orthogonalEdgeStyle;rounded=0;orthogonalLoop=1;jettySize=auto;html=1;entryX=0.5;entryY=0;entryDx=0;entryDy=0;endArrow=open;startSize=14;endSize=5;sourcePerimeterSpacing=8;targetPerimeterSpacing=8;strokeWidth=1;" parent="0ok2K6wH5HigkwixbM4u-136" source="0ok2K6wH5HigkwixbM4u-288" target="0ok2K6wH5HigkwixbM4u-293" edge="1">
          <mxGeometry relative="1" as="geometry" />
        </mxCell>
        <mxCell id="0ok2K6wH5HigkwixbM4u-288" value="&lt;font style=&quot;font-size: 10px&quot;&gt;&lt;b&gt;(7th Q) Please tell me what is your preferences?&lt;/b&gt;&lt;/font&gt;" style="shape=parallelogram;perimeter=parallelogramPerimeter;whiteSpace=wrap;html=1;fixedSize=1;hachureGap=4;pointerEvents=0;" parent="0ok2K6wH5HigkwixbM4u-136" vertex="1">
          <mxGeometry x="80" y="150" width="190" height="40" as="geometry" />
        </mxCell>
        <mxCell id="0ok2K6wH5HigkwixbM4u-304" style="edgeStyle=orthogonalEdgeStyle;rounded=0;orthogonalLoop=1;jettySize=auto;html=1;entryX=0.553;entryY=0;entryDx=0;entryDy=0;entryPerimeter=0;endArrow=open;startSize=14;endSize=5;sourcePerimeterSpacing=8;targetPerimeterSpacing=8;strokeWidth=1;" parent="0ok2K6wH5HigkwixbM4u-136" source="0ok2K6wH5HigkwixbM4u-292" target="0ok2K6wH5HigkwixbM4u-297" edge="1">
          <mxGeometry relative="1" as="geometry" />
        </mxCell>
        <mxCell id="0ok2K6wH5HigkwixbM4u-292" value="&lt;font style=&quot;font-size: 10px&quot;&gt;&lt;b&gt;Online Banking&lt;/b&gt;&lt;/font&gt;" style="rhombus;whiteSpace=wrap;html=1;hachureGap=4;pointerEvents=0;" parent="0ok2K6wH5HigkwixbM4u-136" vertex="1">
          <mxGeometry x="80" y="230" width="60" height="60" as="geometry" />
        </mxCell>
        <mxCell id="0ok2K6wH5HigkwixbM4u-310" style="edgeStyle=orthogonalEdgeStyle;rounded=0;orthogonalLoop=1;jettySize=auto;html=1;entryX=0.556;entryY=-0.05;entryDx=0;entryDy=0;entryPerimeter=0;endArrow=open;startSize=14;endSize=5;sourcePerimeterSpacing=8;targetPerimeterSpacing=8;strokeWidth=1;" parent="0ok2K6wH5HigkwixbM4u-136" source="0ok2K6wH5HigkwixbM4u-293" target="0ok2K6wH5HigkwixbM4u-307" edge="1">
          <mxGeometry relative="1" as="geometry">
            <Array as="points">
              <mxPoint x="215" y="320" />
              <mxPoint x="386" y="320" />
            </Array>
          </mxGeometry>
        </mxCell>
        <mxCell id="0ok2K6wH5HigkwixbM4u-293" value="&lt;font style=&quot;font-size: 10px&quot;&gt;&lt;b&gt;Mobile Banking&lt;/b&gt;&lt;/font&gt;" style="rhombus;whiteSpace=wrap;html=1;hachureGap=4;pointerEvents=0;" parent="0ok2K6wH5HigkwixbM4u-136" vertex="1">
          <mxGeometry x="185" y="230" width="60" height="60" as="geometry" />
        </mxCell>
        <mxCell id="0ok2K6wH5HigkwixbM4u-301" style="edgeStyle=orthogonalEdgeStyle;rounded=0;orthogonalLoop=1;jettySize=auto;html=1;entryX=0.5;entryY=0;entryDx=0;entryDy=0;endArrow=open;startSize=14;endSize=5;sourcePerimeterSpacing=8;targetPerimeterSpacing=8;strokeWidth=1;" parent="0ok2K6wH5HigkwixbM4u-136" source="0ok2K6wH5HigkwixbM4u-297" target="0ok2K6wH5HigkwixbM4u-299" edge="1">
          <mxGeometry relative="1" as="geometry" />
        </mxCell>
        <mxCell id="0ok2K6wH5HigkwixbM4u-302" style="edgeStyle=orthogonalEdgeStyle;rounded=0;orthogonalLoop=1;jettySize=auto;html=1;entryX=0.5;entryY=0;entryDx=0;entryDy=0;endArrow=open;startSize=14;endSize=5;sourcePerimeterSpacing=8;targetPerimeterSpacing=8;strokeWidth=1;" parent="0ok2K6wH5HigkwixbM4u-136" source="0ok2K6wH5HigkwixbM4u-297" target="0ok2K6wH5HigkwixbM4u-300" edge="1">
          <mxGeometry relative="1" as="geometry" />
        </mxCell>
        <mxCell id="0ok2K6wH5HigkwixbM4u-297" value="&lt;font style=&quot;font-size: 10px&quot;&gt;&lt;b&gt;(7th Q) Please tell me what do you need to know?&lt;/b&gt;&lt;/font&gt;" style="shape=parallelogram;perimeter=parallelogramPerimeter;whiteSpace=wrap;html=1;fixedSize=1;hachureGap=4;pointerEvents=0;" parent="0ok2K6wH5HigkwixbM4u-136" vertex="1">
          <mxGeometry x="55" y="350" width="190" height="40" as="geometry" />
        </mxCell>
        <mxCell id="0ok2K6wH5HigkwixbM4u-299" value="&lt;span style=&quot;font-size: 10px&quot;&gt;&lt;b&gt;Online Banking Account Create&lt;/b&gt;&lt;/span&gt;" style="rhombus;whiteSpace=wrap;html=1;hachureGap=4;pointerEvents=0;" parent="0ok2K6wH5HigkwixbM4u-136" vertex="1">
          <mxGeometry x="55" y="420" width="60" height="60" as="geometry" />
        </mxCell>
        <mxCell id="0ok2K6wH5HigkwixbM4u-300" value="&lt;font style=&quot;font-size: 10px&quot;&gt;&lt;b&gt;Need details&lt;/b&gt;&lt;/font&gt;" style="rhombus;whiteSpace=wrap;html=1;hachureGap=4;pointerEvents=0;" parent="0ok2K6wH5HigkwixbM4u-136" vertex="1">
          <mxGeometry x="155" y="420" width="60" height="60" as="geometry" />
        </mxCell>
        <mxCell id="0ok2K6wH5HigkwixbM4u-307" value="&lt;font style=&quot;font-size: 10px&quot;&gt;&lt;b&gt;(9th Q) Please tell me what do you need to know?&lt;/b&gt;&lt;/font&gt;" style="shape=parallelogram;perimeter=parallelogramPerimeter;whiteSpace=wrap;html=1;fixedSize=1;hachureGap=4;pointerEvents=0;" parent="0ok2K6wH5HigkwixbM4u-136" vertex="1">
          <mxGeometry x="280" y="350" width="190" height="40" as="geometry" />
        </mxCell>
        <mxCell id="0ok2K6wH5HigkwixbM4u-312" value="&lt;font style=&quot;font-size: 10px&quot;&gt;&lt;b&gt;Display steps to create online banking&lt;br&gt;&lt;/b&gt;&lt;/font&gt;" style="rounded=0;whiteSpace=wrap;html=1;hachureGap=4;pointerEvents=0;" parent="0ok2K6wH5HigkwixbM4u-136" vertex="1">
          <mxGeometry x="40" y="500" width="90" height="70" as="geometry" />
        </mxCell>
        <mxCell id="0ok2K6wH5HigkwixbM4u-144" value="2. SmartPay" style="swimlane;hachureGap=4;pointerEvents=0;fillColor=#8AF3FF;" parent="1c1d494c118603dd-1" vertex="1">
          <mxGeometry x="1650" y="20" width="550" height="970" as="geometry" />
        </mxCell>
        <mxCell id="0ok2K6wH5HigkwixbM4u-147" value="Reserved Words in This Section" style="swimlane;hachureGap=4;pointerEvents=0;" parent="0ok2K6wH5HigkwixbM4u-144" vertex="1">
          <mxGeometry x="360" y="30" width="190" height="270" as="geometry" />
        </mxCell>
        <mxCell id="0ok2K6wH5HigkwixbM4u-148" value="&lt;b style=&quot;font-size: 10px&quot;&gt;(10th Q)&lt;br&gt;loans, &lt;br&gt;loan, &lt;br&gt;loan facilities, &lt;br&gt;loan facility&lt;/b&gt;&lt;span style=&quot;font-size: 10px&quot;&gt;&lt;b&gt;&lt;br&gt;&lt;/b&gt;&lt;/span&gt;" style="text;html=1;align=center;verticalAlign=middle;resizable=0;points=[];autosize=1;strokeColor=none;fillColor=none;" parent="0ok2K6wH5HigkwixbM4u-147" vertex="1">
          <mxGeometry x="25" y="30" width="80" height="80" as="geometry" />
        </mxCell>
        <mxCell id="0ok2K6wH5HigkwixbM4u-3" value="Data Flow of Options" style="swimlane;hachureGap=4;pointerEvents=0;" parent="1" vertex="1">
          <mxGeometry x="-570" y="1280" width="1390" height="890" as="geometry" />
        </mxCell>
        <mxCell id="0ok2K6wH5HigkwixbM4u-4" value="Vertical Container" style="swimlane;hachureGap=4;pointerEvents=0;fillColor=#8AF3FF;" parent="0ok2K6wH5HigkwixbM4u-3" vertex="1">
          <mxGeometry y="20" width="200" height="390" as="geometry" />
        </mxCell>
        <mxCell id="0ok2K6wH5HigkwixbM4u-5" value="User" style="ellipse;whiteSpace=wrap;html=1;hachureGap=4;pointerEvents=0;" parent="1" vertex="1">
          <mxGeometry x="-800" y="100" width="130" height="60" as="geometry" />
        </mxCell>
        <mxCell id="0ok2K6wH5HigkwixbM4u-8" value="Banking Bot" style="shape=parallelogram;perimeter=parallelogramPerimeter;whiteSpace=wrap;html=1;fixedSize=1;hachureGap=4;pointerEvents=0;" parent="1" vertex="1">
          <mxGeometry x="-805" y="180" width="140" height="60" as="geometry" />
        </mxCell>
        <mxCell id="0ok2K6wH5HigkwixbM4u-15" value="Options" style="rhombus;whiteSpace=wrap;html=1;hachureGap=4;pointerEvents=0;" parent="1" vertex="1">
          <mxGeometry x="-775" y="260" width="80" height="80" as="geometry" />
        </mxCell>
        <mxCell id="0ok2K6wH5HigkwixbM4u-40" value="&#xa;&#xa;&lt;span style=&quot;color: rgb(0, 0, 0); font-family: helvetica; font-size: 12px; font-style: normal; font-weight: 400; letter-spacing: normal; text-align: center; text-indent: 0px; text-transform: none; word-spacing: 0px; background-color: rgb(248, 249, 250); display: inline; float: none;&quot;&gt;Display a Card(for answers)&lt;/span&gt;&#xa;&#xa;" style="rounded=0;whiteSpace=wrap;html=1;hachureGap=4;pointerEvents=0;" parent="1" vertex="1">
          <mxGeometry x="-795" y="350" width="120" height="60" as="geometry" />
        </mxCell>
        <mxCell id="0ok2K6wH5HigkwixbM4u-226" value="" style="endArrow=none;dashed=1;html=1;startSize=14;endSize=5;sourcePerimeterSpacing=8;targetPerimeterSpacing=8;strokeWidth=3;" parent="1" edge="1">
          <mxGeometry width="50" height="50" relative="1" as="geometry">
            <mxPoint x="-580" y="420" as="sourcePoint" />
            <mxPoint x="-50" y="420" as="targetPoint" />
          </mxGeometry>
        </mxCell>
        <mxCell id="0ok2K6wH5HigkwixbM4u-228" value="" style="endArrow=none;dashed=1;html=1;startSize=14;endSize=5;sourcePerimeterSpacing=8;targetPerimeterSpacing=8;strokeWidth=3;" parent="1" edge="1">
          <mxGeometry width="50" height="50" relative="1" as="geometry">
            <mxPoint x="-580" y="980" as="sourcePoint" />
            <mxPoint x="-580" y="420" as="targetPoint" />
          </mxGeometry>
        </mxCell>
        <mxCell id="0ok2K6wH5HigkwixbM4u-229" value="" style="endArrow=none;dashed=1;html=1;startSize=14;endSize=5;sourcePerimeterSpacing=8;targetPerimeterSpacing=8;strokeWidth=3;" parent="1" edge="1">
          <mxGeometry width="50" height="50" relative="1" as="geometry">
            <mxPoint x="-50" y="980" as="sourcePoint" />
            <mxPoint x="-50" y="420" as="targetPoint" />
          </mxGeometry>
        </mxCell>
        <mxCell id="0ok2K6wH5HigkwixbM4u-317" value="&lt;p class=&quot;MsoListParagraph&quot; style=&quot;text-indent: -0.25in&quot;&gt;&lt;span style=&quot;line-height: 115%&quot;&gt;&lt;font style=&quot;font-size: 13px&quot;&gt;Data Flow of Conversations&lt;/font&gt;&lt;span style=&quot;font-size: 12pt&quot;&gt;&lt;/span&gt;&lt;/span&gt;&lt;/p&gt;" style="swimlane;html=1;childLayout=stackLayout;startSize=20;rounded=0;shadow=0;comic=0;labelBackgroundColor=none;strokeWidth=1;fontFamily=Verdana;fontSize=12;align=center;" parent="1" vertex="1">
          <mxGeometry x="-590" y="20" width="3850" height="990" as="geometry">
            <mxRectangle x="160" y="20" width="60" height="20" as="alternateBounds" />
          </mxGeometry>
        </mxCell>
        <mxCell id="0ok2K6wH5HigkwixbM4u-318" value="(1st Case) Create Account" style="swimlane;hachureGap=4;pointerEvents=0;fillColor=#8AF3FF;" parent="0ok2K6wH5HigkwixbM4u-317" vertex="1">
          <mxGeometry y="20" width="550" height="970" as="geometry" />
        </mxCell>
        <mxCell id="0ok2K6wH5HigkwixbM4u-319" style="edgeStyle=orthogonalEdgeStyle;rounded=0;orthogonalLoop=1;jettySize=auto;html=1;entryX=0.5;entryY=0;entryDx=0;entryDy=0;endArrow=open;startSize=14;endSize=5;sourcePerimeterSpacing=8;targetPerimeterSpacing=8;strokeWidth=1;" parent="0ok2K6wH5HigkwixbM4u-318" source="0ok2K6wH5HigkwixbM4u-324" target="0ok2K6wH5HigkwixbM4u-328" edge="1">
          <mxGeometry relative="1" as="geometry" />
        </mxCell>
        <mxCell id="0ok2K6wH5HigkwixbM4u-320" style="edgeStyle=orthogonalEdgeStyle;rounded=0;orthogonalLoop=1;jettySize=auto;html=1;entryX=0.5;entryY=0;entryDx=0;entryDy=0;endArrow=open;startSize=14;endSize=5;sourcePerimeterSpacing=8;targetPerimeterSpacing=8;strokeWidth=1;" parent="0ok2K6wH5HigkwixbM4u-318" source="0ok2K6wH5HigkwixbM4u-324" target="0ok2K6wH5HigkwixbM4u-332" edge="1">
          <mxGeometry relative="1" as="geometry" />
        </mxCell>
        <mxCell id="0ok2K6wH5HigkwixbM4u-321" style="edgeStyle=orthogonalEdgeStyle;rounded=0;orthogonalLoop=1;jettySize=auto;html=1;entryX=0.5;entryY=0;entryDx=0;entryDy=0;endArrow=open;startSize=14;endSize=5;sourcePerimeterSpacing=8;targetPerimeterSpacing=8;strokeWidth=1;" parent="0ok2K6wH5HigkwixbM4u-318" source="0ok2K6wH5HigkwixbM4u-324" target="0ok2K6wH5HigkwixbM4u-330" edge="1">
          <mxGeometry relative="1" as="geometry" />
        </mxCell>
        <mxCell id="0ok2K6wH5HigkwixbM4u-322" style="edgeStyle=orthogonalEdgeStyle;rounded=0;orthogonalLoop=1;jettySize=auto;html=1;entryX=0.5;entryY=0;entryDx=0;entryDy=0;endArrow=open;startSize=14;endSize=5;sourcePerimeterSpacing=8;targetPerimeterSpacing=8;strokeWidth=1;" parent="0ok2K6wH5HigkwixbM4u-318" source="0ok2K6wH5HigkwixbM4u-324" target="0ok2K6wH5HigkwixbM4u-334" edge="1">
          <mxGeometry relative="1" as="geometry" />
        </mxCell>
        <mxCell id="0ok2K6wH5HigkwixbM4u-323" style="edgeStyle=orthogonalEdgeStyle;rounded=0;orthogonalLoop=1;jettySize=auto;html=1;endArrow=open;startSize=14;endSize=5;sourcePerimeterSpacing=8;targetPerimeterSpacing=8;strokeWidth=1;" parent="0ok2K6wH5HigkwixbM4u-318" source="0ok2K6wH5HigkwixbM4u-324" target="0ok2K6wH5HigkwixbM4u-336" edge="1">
          <mxGeometry relative="1" as="geometry" />
        </mxCell>
        <mxCell id="0ok2K6wH5HigkwixbM4u-324" value="&lt;font style=&quot;font-size: 10px&quot;&gt;&lt;b&gt;(1st Q).&lt;/b&gt;&lt;b&gt;&amp;nbsp;Please tell me what type of Account you need?&lt;/b&gt;&lt;/font&gt;" style="shape=parallelogram;perimeter=parallelogramPerimeter;whiteSpace=wrap;html=1;fixedSize=1;hachureGap=4;pointerEvents=0;" parent="0ok2K6wH5HigkwixbM4u-318" vertex="1">
          <mxGeometry x="20" y="120" width="190" height="40" as="geometry" />
        </mxCell>
        <mxCell id="0ok2K6wH5HigkwixbM4u-325" style="edgeStyle=orthogonalEdgeStyle;rounded=0;orthogonalLoop=1;jettySize=auto;html=1;entryX=0.5;entryY=0;entryDx=0;entryDy=0;endArrow=open;startSize=14;endSize=5;sourcePerimeterSpacing=8;targetPerimeterSpacing=8;strokeWidth=1;" parent="0ok2K6wH5HigkwixbM4u-318" source="0ok2K6wH5HigkwixbM4u-326" target="0ok2K6wH5HigkwixbM4u-324" edge="1">
          <mxGeometry relative="1" as="geometry" />
        </mxCell>
        <mxCell id="0ok2K6wH5HigkwixbM4u-326" value="&lt;font style=&quot;font-size: 10px&quot;&gt;&lt;b&gt;How can I create a Account?(create, create account)&amp;nbsp;&lt;/b&gt;&lt;/font&gt;" style="ellipse;whiteSpace=wrap;html=1;hachureGap=4;pointerEvents=0;fillColor=#8AF3FF;" parent="0ok2K6wH5HigkwixbM4u-318" vertex="1">
          <mxGeometry x="30" y="40" width="170" height="50" as="geometry" />
        </mxCell>
        <mxCell id="0ok2K6wH5HigkwixbM4u-327" style="edgeStyle=orthogonalEdgeStyle;rounded=0;orthogonalLoop=1;jettySize=auto;html=1;entryX=0.5;entryY=0;entryDx=0;entryDy=0;endArrow=open;startSize=14;endSize=5;sourcePerimeterSpacing=8;targetPerimeterSpacing=8;strokeWidth=1;" parent="0ok2K6wH5HigkwixbM4u-318" source="0ok2K6wH5HigkwixbM4u-328" target="0ok2K6wH5HigkwixbM4u-338" edge="1">
          <mxGeometry relative="1" as="geometry">
            <Array as="points">
              <mxPoint x="50" y="270" />
              <mxPoint x="190" y="270" />
            </Array>
          </mxGeometry>
        </mxCell>
        <mxCell id="0ok2K6wH5HigkwixbM4u-328" value="&lt;font style=&quot;font-size: 10px&quot;&gt;&lt;b&gt;Saving Account&lt;/b&gt;&lt;/font&gt;" style="rhombus;whiteSpace=wrap;html=1;hachureGap=4;pointerEvents=0;" parent="0ok2K6wH5HigkwixbM4u-318" vertex="1">
          <mxGeometry x="20" y="190" width="60" height="60" as="geometry" />
        </mxCell>
        <mxCell id="0ok2K6wH5HigkwixbM4u-329" style="edgeStyle=orthogonalEdgeStyle;rounded=0;orthogonalLoop=1;jettySize=auto;html=1;entryX=0.5;entryY=0;entryDx=0;entryDy=0;endArrow=open;startSize=14;endSize=5;sourcePerimeterSpacing=8;targetPerimeterSpacing=8;strokeWidth=1;" parent="0ok2K6wH5HigkwixbM4u-318" source="0ok2K6wH5HigkwixbM4u-330" target="0ok2K6wH5HigkwixbM4u-338" edge="1">
          <mxGeometry relative="1" as="geometry" />
        </mxCell>
        <mxCell id="0ok2K6wH5HigkwixbM4u-330" value="&lt;font style=&quot;font-size: 10px&quot;&gt;&lt;b&gt;FIxed Deposit Account&lt;/b&gt;&lt;/font&gt;" style="rhombus;whiteSpace=wrap;html=1;hachureGap=4;pointerEvents=0;" parent="0ok2K6wH5HigkwixbM4u-318" vertex="1">
          <mxGeometry x="160" y="190" width="60" height="60" as="geometry" />
        </mxCell>
        <mxCell id="0ok2K6wH5HigkwixbM4u-331" style="edgeStyle=orthogonalEdgeStyle;rounded=0;orthogonalLoop=1;jettySize=auto;html=1;entryX=0.5;entryY=0;entryDx=0;entryDy=0;endArrow=open;startSize=14;endSize=5;sourcePerimeterSpacing=8;targetPerimeterSpacing=8;strokeWidth=1;" parent="0ok2K6wH5HigkwixbM4u-318" source="0ok2K6wH5HigkwixbM4u-332" target="0ok2K6wH5HigkwixbM4u-338" edge="1">
          <mxGeometry relative="1" as="geometry" />
        </mxCell>
        <mxCell id="0ok2K6wH5HigkwixbM4u-332" value="&lt;font style=&quot;font-size: 10px&quot;&gt;&lt;b&gt;Current Account&lt;/b&gt;&lt;/font&gt;" style="rhombus;whiteSpace=wrap;html=1;hachureGap=4;pointerEvents=0;" parent="0ok2K6wH5HigkwixbM4u-318" vertex="1">
          <mxGeometry x="85" y="190" width="60" height="60" as="geometry" />
        </mxCell>
        <mxCell id="0ok2K6wH5HigkwixbM4u-333" style="edgeStyle=orthogonalEdgeStyle;rounded=0;orthogonalLoop=1;jettySize=auto;html=1;entryX=0.5;entryY=0;entryDx=0;entryDy=0;endArrow=open;startSize=14;endSize=5;sourcePerimeterSpacing=8;targetPerimeterSpacing=8;strokeWidth=1;" parent="0ok2K6wH5HigkwixbM4u-318" source="0ok2K6wH5HigkwixbM4u-334" target="0ok2K6wH5HigkwixbM4u-338" edge="1">
          <mxGeometry relative="1" as="geometry" />
        </mxCell>
        <mxCell id="0ok2K6wH5HigkwixbM4u-334" value="&lt;font&gt;&lt;span style=&quot;font-size: 10px&quot;&gt;&lt;b&gt;Recurring&lt;/b&gt;&lt;/span&gt;&lt;b style=&quot;font-size: 10px&quot;&gt;&amp;nbsp;Deposit Account&lt;/b&gt;&lt;/font&gt;" style="rhombus;whiteSpace=wrap;html=1;hachureGap=4;pointerEvents=0;" parent="0ok2K6wH5HigkwixbM4u-318" vertex="1">
          <mxGeometry x="230" y="190" width="60" height="60" as="geometry" />
        </mxCell>
        <mxCell id="0ok2K6wH5HigkwixbM4u-335" style="edgeStyle=orthogonalEdgeStyle;rounded=0;orthogonalLoop=1;jettySize=auto;html=1;entryX=0.5;entryY=0;entryDx=0;entryDy=0;endArrow=open;startSize=14;endSize=5;sourcePerimeterSpacing=8;targetPerimeterSpacing=8;strokeWidth=1;" parent="0ok2K6wH5HigkwixbM4u-318" source="0ok2K6wH5HigkwixbM4u-336" target="0ok2K6wH5HigkwixbM4u-338" edge="1">
          <mxGeometry relative="1" as="geometry">
            <Array as="points">
              <mxPoint x="330" y="270" />
              <mxPoint x="190" y="270" />
            </Array>
          </mxGeometry>
        </mxCell>
        <mxCell id="0ok2K6wH5HigkwixbM4u-336" value="&lt;font style=&quot;font-size: 10px&quot;&gt;&lt;b&gt;NRI Account&lt;/b&gt;&lt;/font&gt;" style="rhombus;whiteSpace=wrap;html=1;hachureGap=4;pointerEvents=0;" parent="0ok2K6wH5HigkwixbM4u-318" vertex="1">
          <mxGeometry x="300" y="190" width="60" height="60" as="geometry" />
        </mxCell>
        <mxCell id="0ok2K6wH5HigkwixbM4u-337" style="edgeStyle=orthogonalEdgeStyle;rounded=0;orthogonalLoop=1;jettySize=auto;html=1;entryX=0.5;entryY=0;entryDx=0;entryDy=0;endArrow=open;startSize=14;endSize=5;sourcePerimeterSpacing=8;targetPerimeterSpacing=8;strokeWidth=1;" parent="0ok2K6wH5HigkwixbM4u-318" source="0ok2K6wH5HigkwixbM4u-338" target="0ok2K6wH5HigkwixbM4u-369" edge="1">
          <mxGeometry relative="1" as="geometry">
            <Array as="points">
              <mxPoint x="190" y="370" />
              <mxPoint x="260" y="370" />
            </Array>
          </mxGeometry>
        </mxCell>
        <mxCell id="0ok2K6wH5HigkwixbM4u-338" value="&lt;font style=&quot;font-size: 10px&quot;&gt;&lt;b&gt;Display steps to create different accounts(5 type of accounts have different steps&lt;/b&gt;&lt;/font&gt;" style="rounded=0;whiteSpace=wrap;html=1;hachureGap=4;pointerEvents=0;" parent="0ok2K6wH5HigkwixbM4u-318" vertex="1">
          <mxGeometry x="110" y="290" width="160" height="70" as="geometry" />
        </mxCell>
        <mxCell id="0ok2K6wH5HigkwixbM4u-339" style="edgeStyle=orthogonalEdgeStyle;rounded=0;orthogonalLoop=1;jettySize=auto;html=1;endArrow=open;startSize=14;endSize=5;sourcePerimeterSpacing=8;targetPerimeterSpacing=8;strokeWidth=1;entryX=0.25;entryY=0;entryDx=0;entryDy=0;" parent="0ok2K6wH5HigkwixbM4u-318" source="0ok2K6wH5HigkwixbM4u-340" target="0ok2K6wH5HigkwixbM4u-344" edge="1">
          <mxGeometry relative="1" as="geometry">
            <mxPoint x="60" y="610" as="targetPoint" />
            <Array as="points">
              <mxPoint x="88" y="490" />
              <mxPoint x="88" y="490" />
            </Array>
          </mxGeometry>
        </mxCell>
        <mxCell id="0ok2K6wH5HigkwixbM4u-340" value="&lt;font style=&quot;font-size: 10px&quot;&gt;&lt;b&gt;Yes, Thank You(yes, thank you, thank)&lt;/b&gt;&lt;/font&gt;" style="ellipse;whiteSpace=wrap;html=1;hachureGap=4;pointerEvents=0;fillColor=#8AF3FF;" parent="0ok2K6wH5HigkwixbM4u-318" vertex="1">
          <mxGeometry x="30" y="450" width="170" height="50" as="geometry" />
        </mxCell>
        <mxCell id="0ok2K6wH5HigkwixbM4u-341" style="edgeStyle=orthogonalEdgeStyle;rounded=0;orthogonalLoop=1;jettySize=auto;html=1;entryX=1;entryY=1;entryDx=0;entryDy=0;endArrow=open;startSize=14;endSize=5;sourcePerimeterSpacing=8;targetPerimeterSpacing=8;strokeWidth=1;" parent="0ok2K6wH5HigkwixbM4u-318" source="0ok2K6wH5HigkwixbM4u-342" target="0ok2K6wH5HigkwixbM4u-347" edge="1">
          <mxGeometry relative="1" as="geometry">
            <Array as="points">
              <mxPoint x="445" y="516" />
            </Array>
          </mxGeometry>
        </mxCell>
        <mxCell id="0ok2K6wH5HigkwixbM4u-342" value="&lt;font style=&quot;font-size: 10px&quot;&gt;&lt;b&gt;No, I need to know more(no, more, need to know more)&lt;/b&gt;&lt;/font&gt;" style="ellipse;whiteSpace=wrap;html=1;hachureGap=4;pointerEvents=0;fillColor=#8AF3FF;" parent="0ok2K6wH5HigkwixbM4u-318" vertex="1">
          <mxGeometry x="360" y="420" width="170" height="50" as="geometry" />
        </mxCell>
        <mxCell id="0ok2K6wH5HigkwixbM4u-343" style="edgeStyle=orthogonalEdgeStyle;rounded=0;orthogonalLoop=1;jettySize=auto;html=1;exitX=0.5;exitY=1;exitDx=0;exitDy=0;entryX=0.553;entryY=-0.033;entryDx=0;entryDy=0;entryPerimeter=0;endArrow=open;startSize=14;endSize=5;sourcePerimeterSpacing=8;targetPerimeterSpacing=8;strokeWidth=1;" parent="0ok2K6wH5HigkwixbM4u-318" source="0ok2K6wH5HigkwixbM4u-344" target="0ok2K6wH5HigkwixbM4u-361" edge="1">
          <mxGeometry relative="1" as="geometry" />
        </mxCell>
        <mxCell id="0ok2K6wH5HigkwixbM4u-344" value="&lt;font style=&quot;font-size: 10px&quot;&gt;&lt;b&gt;(2nd Q)&lt;/b&gt;&lt;b&gt;. Thank You!! Good Bye!!&lt;/b&gt;&lt;/font&gt;" style="shape=parallelogram;perimeter=parallelogramPerimeter;whiteSpace=wrap;html=1;fixedSize=1;hachureGap=4;pointerEvents=0;" parent="0ok2K6wH5HigkwixbM4u-318" vertex="1">
          <mxGeometry x="40" y="640" width="190" height="40" as="geometry" />
        </mxCell>
        <mxCell id="0ok2K6wH5HigkwixbM4u-345" style="edgeStyle=orthogonalEdgeStyle;rounded=0;orthogonalLoop=1;jettySize=auto;html=1;entryX=0.5;entryY=0;entryDx=0;entryDy=0;endArrow=open;startSize=14;endSize=5;sourcePerimeterSpacing=8;targetPerimeterSpacing=8;strokeWidth=1;" parent="0ok2K6wH5HigkwixbM4u-318" source="0ok2K6wH5HigkwixbM4u-347" target="0ok2K6wH5HigkwixbM4u-349" edge="1">
          <mxGeometry relative="1" as="geometry" />
        </mxCell>
        <mxCell id="0ok2K6wH5HigkwixbM4u-346" style="edgeStyle=orthogonalEdgeStyle;rounded=0;orthogonalLoop=1;jettySize=auto;html=1;endArrow=open;startSize=14;endSize=5;sourcePerimeterSpacing=8;targetPerimeterSpacing=8;strokeWidth=1;" parent="0ok2K6wH5HigkwixbM4u-318" source="0ok2K6wH5HigkwixbM4u-347" target="0ok2K6wH5HigkwixbM4u-356" edge="1">
          <mxGeometry relative="1" as="geometry">
            <Array as="points">
              <mxPoint x="330" y="565" />
            </Array>
          </mxGeometry>
        </mxCell>
        <mxCell id="0ok2K6wH5HigkwixbM4u-347" value="&lt;font style=&quot;font-size: 10px&quot;&gt;&lt;b&gt;(3rd Q)&lt;/b&gt;&lt;b&gt;. Please contact our live customer supporter or visit website for more information.&lt;/b&gt;&lt;/font&gt;" style="shape=parallelogram;perimeter=parallelogramPerimeter;whiteSpace=wrap;html=1;fixedSize=1;hachureGap=4;pointerEvents=0;" parent="0ok2K6wH5HigkwixbM4u-318" vertex="1">
          <mxGeometry x="235" y="480" width="190" height="40" as="geometry" />
        </mxCell>
        <mxCell id="0ok2K6wH5HigkwixbM4u-348" style="edgeStyle=orthogonalEdgeStyle;rounded=0;orthogonalLoop=1;jettySize=auto;html=1;entryX=0.5;entryY=0;entryDx=0;entryDy=0;endArrow=open;startSize=14;endSize=5;sourcePerimeterSpacing=8;targetPerimeterSpacing=8;strokeWidth=1;" parent="0ok2K6wH5HigkwixbM4u-318" source="0ok2K6wH5HigkwixbM4u-349" target="0ok2K6wH5HigkwixbM4u-354" edge="1">
          <mxGeometry relative="1" as="geometry" />
        </mxCell>
        <mxCell id="0ok2K6wH5HigkwixbM4u-349" value="&lt;font style=&quot;font-size: 10px&quot;&gt;&lt;b&gt;Live Supporter&lt;/b&gt;&lt;/font&gt;" style="rhombus;whiteSpace=wrap;html=1;hachureGap=4;pointerEvents=0;" parent="0ok2K6wH5HigkwixbM4u-318" vertex="1">
          <mxGeometry x="360" y="560" width="55" height="60" as="geometry" />
        </mxCell>
        <mxCell id="0ok2K6wH5HigkwixbM4u-350" value="Reserved Words in This Section" style="swimlane;hachureGap=4;pointerEvents=0;" parent="0ok2K6wH5HigkwixbM4u-318" vertex="1">
          <mxGeometry x="360" y="30" width="190" height="270" as="geometry" />
        </mxCell>
        <mxCell id="0ok2K6wH5HigkwixbM4u-351" value="&lt;b style=&quot;font-size: 10px&quot;&gt;(1st Q)&lt;br&gt;create, &lt;br&gt;create account,&lt;br&gt;&lt;/b&gt;" style="text;html=1;align=center;verticalAlign=middle;resizable=0;points=[];autosize=1;strokeColor=none;fillColor=none;" parent="0ok2K6wH5HigkwixbM4u-350" vertex="1">
          <mxGeometry x="20" y="45" width="90" height="50" as="geometry" />
        </mxCell>
        <mxCell id="0ok2K6wH5HigkwixbM4u-352" value="&lt;b style=&quot;font-size: 10px&quot;&gt;(2nd Q)&lt;br&gt;yes&lt;/b&gt;&lt;b style=&quot;font-size: 10px&quot;&gt;&lt;br&gt;thank you,&lt;br&gt;&amp;nbsp;thank&lt;br&gt;&lt;/b&gt;&lt;b style=&quot;font-size: 10px&quot;&gt;okay&lt;br&gt;no need,&lt;/b&gt;&lt;b style=&quot;font-size: 10px&quot;&gt;&lt;br&gt;&lt;/b&gt;" style="text;html=1;align=center;verticalAlign=middle;resizable=0;points=[];autosize=1;strokeColor=none;fillColor=none;" parent="0ok2K6wH5HigkwixbM4u-350" vertex="1">
          <mxGeometry x="110" y="100" width="70" height="100" as="geometry" />
        </mxCell>
        <mxCell id="0ok2K6wH5HigkwixbM4u-353" value="&lt;b style=&quot;font-size: 10px&quot;&gt;(3rd Q)&lt;br&gt;no&lt;br&gt;more, &lt;br&gt;need to know more&lt;/b&gt;" style="text;html=1;align=center;verticalAlign=middle;resizable=0;points=[];autosize=1;strokeColor=none;fillColor=none;" parent="0ok2K6wH5HigkwixbM4u-350" vertex="1">
          <mxGeometry x="10" y="185" width="110" height="70" as="geometry" />
        </mxCell>
        <mxCell id="0ok2K6wH5HigkwixbM4u-354" value="" style="ellipse;whiteSpace=wrap;html=1;aspect=fixed;hachureGap=4;pointerEvents=0;fillColor=#000000;" parent="0ok2K6wH5HigkwixbM4u-318" vertex="1">
          <mxGeometry x="372.5" y="640" width="30" height="30" as="geometry" />
        </mxCell>
        <mxCell id="0ok2K6wH5HigkwixbM4u-355" style="edgeStyle=orthogonalEdgeStyle;rounded=0;orthogonalLoop=1;jettySize=auto;html=1;entryX=0.872;entryY=0.017;entryDx=0;entryDy=0;entryPerimeter=0;endArrow=open;startSize=14;endSize=5;sourcePerimeterSpacing=8;targetPerimeterSpacing=8;strokeWidth=1;" parent="0ok2K6wH5HigkwixbM4u-318" source="0ok2K6wH5HigkwixbM4u-356" target="0ok2K6wH5HigkwixbM4u-344" edge="1">
          <mxGeometry relative="1" as="geometry" />
        </mxCell>
        <mxCell id="0ok2K6wH5HigkwixbM4u-356" value="&lt;font style=&quot;font-size: 10px&quot;&gt;&lt;b&gt;No need, Thank you --- --- ---- -Okay, Thank You(okay, no need, thank you, thank)&lt;/b&gt;&lt;/font&gt;" style="ellipse;whiteSpace=wrap;html=1;hachureGap=4;pointerEvents=0;fillColor=#8AF3FF;" parent="0ok2K6wH5HigkwixbM4u-318" vertex="1">
          <mxGeometry x="110" y="540" width="170" height="50" as="geometry" />
        </mxCell>
        <mxCell id="0ok2K6wH5HigkwixbM4u-357" style="edgeStyle=orthogonalEdgeStyle;rounded=0;orthogonalLoop=1;jettySize=auto;html=1;entryX=0;entryY=0.75;entryDx=0;entryDy=0;endArrow=open;startSize=14;endSize=5;sourcePerimeterSpacing=8;targetPerimeterSpacing=8;strokeWidth=1;" parent="0ok2K6wH5HigkwixbM4u-318" source="0ok2K6wH5HigkwixbM4u-358" target="0ok2K6wH5HigkwixbM4u-365" edge="1">
          <mxGeometry relative="1" as="geometry">
            <Array as="points">
              <mxPoint x="135" y="770" />
              <mxPoint x="345" y="770" />
            </Array>
          </mxGeometry>
        </mxCell>
        <mxCell id="0ok2K6wH5HigkwixbM4u-358" value="&lt;font style=&quot;font-size: 10px&quot;&gt;&lt;b&gt;Yes&amp;nbsp;&lt;/b&gt;&lt;/font&gt;" style="rhombus;whiteSpace=wrap;html=1;hachureGap=4;pointerEvents=0;" parent="0ok2K6wH5HigkwixbM4u-318" vertex="1">
          <mxGeometry x="105" y="810" width="60" height="60" as="geometry" />
        </mxCell>
        <mxCell id="0ok2K6wH5HigkwixbM4u-359" style="edgeStyle=orthogonalEdgeStyle;rounded=0;orthogonalLoop=1;jettySize=auto;html=1;entryX=0;entryY=0.5;entryDx=0;entryDy=0;endArrow=open;startSize=14;endSize=5;sourcePerimeterSpacing=8;targetPerimeterSpacing=8;strokeWidth=1;" parent="0ok2K6wH5HigkwixbM4u-318" source="0ok2K6wH5HigkwixbM4u-361" target="0ok2K6wH5HigkwixbM4u-358" edge="1">
          <mxGeometry relative="1" as="geometry">
            <Array as="points">
              <mxPoint x="70" y="840" />
            </Array>
          </mxGeometry>
        </mxCell>
        <mxCell id="0ok2K6wH5HigkwixbM4u-360" style="edgeStyle=orthogonalEdgeStyle;rounded=0;orthogonalLoop=1;jettySize=auto;html=1;entryX=0;entryY=0.5;entryDx=0;entryDy=0;endArrow=open;startSize=14;endSize=5;sourcePerimeterSpacing=8;targetPerimeterSpacing=8;strokeWidth=1;" parent="0ok2K6wH5HigkwixbM4u-318" source="0ok2K6wH5HigkwixbM4u-361" target="0ok2K6wH5HigkwixbM4u-363" edge="1">
          <mxGeometry relative="1" as="geometry" />
        </mxCell>
        <mxCell id="0ok2K6wH5HigkwixbM4u-361" value="&lt;font style=&quot;font-size: 10px&quot;&gt;&lt;b&gt;(2nd Q)&lt;/b&gt;&lt;b&gt;. Do you need another service?&lt;/b&gt;&lt;/font&gt;" style="shape=parallelogram;perimeter=parallelogramPerimeter;whiteSpace=wrap;html=1;fixedSize=1;hachureGap=4;pointerEvents=0;" parent="0ok2K6wH5HigkwixbM4u-318" vertex="1">
          <mxGeometry x="30" y="690" width="190" height="40" as="geometry" />
        </mxCell>
        <mxCell id="0ok2K6wH5HigkwixbM4u-362" style="edgeStyle=orthogonalEdgeStyle;rounded=0;orthogonalLoop=1;jettySize=auto;html=1;entryX=0;entryY=0.5;entryDx=0;entryDy=0;endArrow=open;startSize=14;endSize=5;sourcePerimeterSpacing=8;targetPerimeterSpacing=8;strokeWidth=1;" parent="0ok2K6wH5HigkwixbM4u-318" source="0ok2K6wH5HigkwixbM4u-363" target="0ok2K6wH5HigkwixbM4u-354" edge="1">
          <mxGeometry relative="1" as="geometry">
            <Array as="points">
              <mxPoint x="280" y="655" />
            </Array>
          </mxGeometry>
        </mxCell>
        <mxCell id="0ok2K6wH5HigkwixbM4u-363" value="&lt;font style=&quot;font-size: 10px&quot;&gt;&lt;b&gt;No&lt;/b&gt;&lt;/font&gt;" style="rhombus;whiteSpace=wrap;html=1;hachureGap=4;pointerEvents=0;" parent="0ok2K6wH5HigkwixbM4u-318" vertex="1">
          <mxGeometry x="250" y="680" width="60" height="60" as="geometry" />
        </mxCell>
        <mxCell id="0ok2K6wH5HigkwixbM4u-364" style="edgeStyle=orthogonalEdgeStyle;rounded=0;orthogonalLoop=1;jettySize=auto;html=1;entryX=0.5;entryY=0;entryDx=0;entryDy=0;endArrow=open;startSize=14;endSize=5;sourcePerimeterSpacing=8;targetPerimeterSpacing=8;strokeWidth=1;" parent="0ok2K6wH5HigkwixbM4u-318" source="0ok2K6wH5HigkwixbM4u-365" target="0ok2K6wH5HigkwixbM4u-366" edge="1">
          <mxGeometry relative="1" as="geometry">
            <Array as="points">
              <mxPoint x="435" y="825" />
              <mxPoint x="370" y="825" />
            </Array>
          </mxGeometry>
        </mxCell>
        <mxCell id="0ok2K6wH5HigkwixbM4u-365" value="&lt;font style=&quot;font-size: 10px&quot;&gt;&lt;b&gt;Hello!! How can I help you?&lt;/b&gt;&lt;/font&gt;" style="shape=parallelogram;perimeter=parallelogramPerimeter;whiteSpace=wrap;html=1;fixedSize=1;hachureGap=4;pointerEvents=0;" parent="0ok2K6wH5HigkwixbM4u-318" vertex="1">
          <mxGeometry x="340" y="740" width="190" height="40" as="geometry" />
        </mxCell>
        <mxCell id="0ok2K6wH5HigkwixbM4u-366" value="&lt;font style=&quot;font-size: 10px&quot;&gt;&lt;b&gt;Main option set(smartpay, create account..,.......&lt;/b&gt;&lt;/font&gt;" style="rhombus;whiteSpace=wrap;html=1;hachureGap=4;pointerEvents=0;" parent="0ok2K6wH5HigkwixbM4u-318" vertex="1">
          <mxGeometry x="280" y="860" width="180" height="50" as="geometry" />
        </mxCell>
        <mxCell id="0ok2K6wH5HigkwixbM4u-367" style="edgeStyle=orthogonalEdgeStyle;rounded=0;orthogonalLoop=1;jettySize=auto;html=1;endArrow=open;startSize=14;endSize=5;sourcePerimeterSpacing=8;targetPerimeterSpacing=8;strokeWidth=1;" parent="0ok2K6wH5HigkwixbM4u-318" source="0ok2K6wH5HigkwixbM4u-369" target="0ok2K6wH5HigkwixbM4u-340" edge="1">
          <mxGeometry relative="1" as="geometry" />
        </mxCell>
        <mxCell id="0ok2K6wH5HigkwixbM4u-368" style="edgeStyle=orthogonalEdgeStyle;rounded=0;orthogonalLoop=1;jettySize=auto;html=1;entryX=0.609;entryY=-0.008;entryDx=0;entryDy=0;entryPerimeter=0;endArrow=open;startSize=14;endSize=5;sourcePerimeterSpacing=8;targetPerimeterSpacing=8;strokeWidth=1;" parent="0ok2K6wH5HigkwixbM4u-318" source="0ok2K6wH5HigkwixbM4u-369" target="0ok2K6wH5HigkwixbM4u-342" edge="1">
          <mxGeometry relative="1" as="geometry" />
        </mxCell>
        <mxCell id="0ok2K6wH5HigkwixbM4u-369" value="&lt;span style=&quot;font-size: 10px&quot;&gt;&lt;b&gt;Are you satisfy about my service?&lt;/b&gt;&lt;/span&gt;" style="shape=parallelogram;perimeter=parallelogramPerimeter;whiteSpace=wrap;html=1;fixedSize=1;hachureGap=4;pointerEvents=0;" parent="0ok2K6wH5HigkwixbM4u-318" vertex="1">
          <mxGeometry x="165" y="385" width="190" height="40" as="geometry" />
        </mxCell>
        <mxCell id="0ok2K6wH5HigkwixbM4u-370" value="use this in other ones" style="text;html=1;align=center;verticalAlign=middle;resizable=0;points=[];autosize=1;strokeColor=none;fillColor=none;" parent="0ok2K6wH5HigkwixbM4u-318" vertex="1">
          <mxGeometry x="20" y="395" width="130" height="20" as="geometry" />
        </mxCell>
        <mxCell id="0ok2K6wH5HigkwixbM4u-371" value="" style="endArrow=none;dashed=1;html=1;startSize=14;endSize=5;sourcePerimeterSpacing=8;targetPerimeterSpacing=8;strokeWidth=3;" parent="0ok2K6wH5HigkwixbM4u-318" edge="1">
          <mxGeometry width="50" height="50" relative="1" as="geometry">
            <mxPoint x="10" y="950.2" as="sourcePoint" />
            <mxPoint x="540" y="949.9999877929688" as="targetPoint" />
          </mxGeometry>
        </mxCell>
        <mxCell id="0ok2K6wH5HigkwixbM4u-372" value="(2nd Case) SmartPay" style="swimlane;hachureGap=4;pointerEvents=0;fillColor=#8AF3FF;" parent="0ok2K6wH5HigkwixbM4u-317" vertex="1">
          <mxGeometry x="550" y="20" width="550" height="970" as="geometry" />
        </mxCell>
        <mxCell id="0ok2K6wH5HigkwixbM4u-373" value="(3rd Case) Bank Account Details" style="swimlane;hachureGap=4;pointerEvents=0;fillColor=#8AF3FF;" parent="0ok2K6wH5HigkwixbM4u-372" vertex="1">
          <mxGeometry y="460" width="550" height="510" as="geometry" />
        </mxCell>
        <mxCell id="0ok2K6wH5HigkwixbM4u-374" value="" style="rounded=0;whiteSpace=wrap;html=1;hachureGap=4;pointerEvents=0;fillColor=#8AF3FF;strokeWidth=3;dashed=1;" parent="0ok2K6wH5HigkwixbM4u-373" vertex="1">
          <mxGeometry x="7.5" y="270" width="232.5" height="90" as="geometry" />
        </mxCell>
        <mxCell id="0ok2K6wH5HigkwixbM4u-375" style="edgeStyle=orthogonalEdgeStyle;rounded=0;orthogonalLoop=1;jettySize=auto;html=1;entryX=0.618;entryY=0;entryDx=0;entryDy=0;entryPerimeter=0;endArrow=open;startSize=14;endSize=5;sourcePerimeterSpacing=8;targetPerimeterSpacing=8;strokeWidth=1;" parent="0ok2K6wH5HigkwixbM4u-373" source="0ok2K6wH5HigkwixbM4u-376" target="0ok2K6wH5HigkwixbM4u-379" edge="1">
          <mxGeometry relative="1" as="geometry" />
        </mxCell>
        <mxCell id="0ok2K6wH5HigkwixbM4u-376" value="&lt;font style=&quot;font-size: 10px&quot;&gt;&lt;b&gt;I need to know Account Details (account details, bank accounts, account, accounts, account detail, bank account)&lt;/b&gt;&lt;/font&gt;" style="ellipse;whiteSpace=wrap;html=1;hachureGap=4;pointerEvents=0;fillColor=#8AF3FF;" parent="0ok2K6wH5HigkwixbM4u-373" vertex="1">
          <mxGeometry x="35" y="40" width="285" height="70" as="geometry" />
        </mxCell>
        <mxCell id="0ok2K6wH5HigkwixbM4u-377" style="edgeStyle=orthogonalEdgeStyle;rounded=0;orthogonalLoop=1;jettySize=auto;html=1;entryX=1;entryY=0.5;entryDx=0;entryDy=0;endArrow=open;startSize=14;endSize=5;sourcePerimeterSpacing=8;targetPerimeterSpacing=8;strokeWidth=1;" parent="0ok2K6wH5HigkwixbM4u-373" source="0ok2K6wH5HigkwixbM4u-379" target="0ok2K6wH5HigkwixbM4u-381" edge="1">
          <mxGeometry relative="1" as="geometry">
            <Array as="points">
              <mxPoint x="155" y="230" />
            </Array>
          </mxGeometry>
        </mxCell>
        <mxCell id="0ok2K6wH5HigkwixbM4u-378" style="edgeStyle=orthogonalEdgeStyle;rounded=0;orthogonalLoop=1;jettySize=auto;html=1;entryX=0;entryY=0.5;entryDx=0;entryDy=0;endArrow=open;startSize=14;endSize=5;sourcePerimeterSpacing=8;targetPerimeterSpacing=8;strokeWidth=1;" parent="0ok2K6wH5HigkwixbM4u-373" source="0ok2K6wH5HigkwixbM4u-379" target="0ok2K6wH5HigkwixbM4u-383" edge="1">
          <mxGeometry relative="1" as="geometry" />
        </mxCell>
        <mxCell id="0ok2K6wH5HigkwixbM4u-379" value="&lt;font style=&quot;font-size: 10px&quot;&gt;&lt;b&gt;(5th Q)&lt;/b&gt;&lt;b&gt;. What type of service do you need?&lt;/b&gt;&lt;/font&gt;" style="shape=parallelogram;perimeter=parallelogramPerimeter;whiteSpace=wrap;html=1;fixedSize=1;hachureGap=4;pointerEvents=0;" parent="0ok2K6wH5HigkwixbM4u-373" vertex="1">
          <mxGeometry x="60" y="130" width="190" height="40" as="geometry" />
        </mxCell>
        <mxCell id="0ok2K6wH5HigkwixbM4u-380" style="edgeStyle=orthogonalEdgeStyle;rounded=0;orthogonalLoop=1;jettySize=auto;html=1;entryX=0;entryY=0;entryDx=0;entryDy=0;endArrow=open;startSize=14;endSize=5;sourcePerimeterSpacing=8;targetPerimeterSpacing=8;strokeWidth=1;" parent="0ok2K6wH5HigkwixbM4u-373" source="0ok2K6wH5HigkwixbM4u-381" target="0ok2K6wH5HigkwixbM4u-384" edge="1">
          <mxGeometry relative="1" as="geometry" />
        </mxCell>
        <mxCell id="0ok2K6wH5HigkwixbM4u-381" value="&lt;font style=&quot;font-size: 10px&quot;&gt;&lt;b&gt;Need to Create a Account?&lt;/b&gt;&lt;/font&gt;" style="rhombus;whiteSpace=wrap;html=1;hachureGap=4;pointerEvents=0;" parent="0ok2K6wH5HigkwixbM4u-373" vertex="1">
          <mxGeometry x="35" y="195" width="75" height="70" as="geometry" />
        </mxCell>
        <mxCell id="0ok2K6wH5HigkwixbM4u-382" style="edgeStyle=orthogonalEdgeStyle;rounded=0;orthogonalLoop=1;jettySize=auto;html=1;entryX=0.25;entryY=0;entryDx=0;entryDy=0;endArrow=open;startSize=14;endSize=5;sourcePerimeterSpacing=8;targetPerimeterSpacing=8;strokeWidth=1;" parent="0ok2K6wH5HigkwixbM4u-373" source="0ok2K6wH5HigkwixbM4u-383" target="0ok2K6wH5HigkwixbM4u-388" edge="1">
          <mxGeometry relative="1" as="geometry">
            <Array as="points">
              <mxPoint x="333" y="200" />
            </Array>
          </mxGeometry>
        </mxCell>
        <mxCell id="0ok2K6wH5HigkwixbM4u-383" value="&lt;font style=&quot;font-size: 10px&quot;&gt;&lt;b&gt;Need details about Accounts&lt;/b&gt;&lt;/font&gt;" style="rhombus;whiteSpace=wrap;html=1;hachureGap=4;pointerEvents=0;" parent="0ok2K6wH5HigkwixbM4u-373" vertex="1">
          <mxGeometry x="200" y="190" width="80" height="80" as="geometry" />
        </mxCell>
        <mxCell id="0ok2K6wH5HigkwixbM4u-384" value="&lt;font style=&quot;font-size: 10px&quot;&gt;&lt;b&gt;(1st Q).&lt;/b&gt;&lt;b&gt;&amp;nbsp;Please tell me what type of Account you need?&lt;/b&gt;&lt;/font&gt;" style="shape=parallelogram;perimeter=parallelogramPerimeter;whiteSpace=wrap;html=1;fixedSize=1;hachureGap=4;pointerEvents=0;" parent="0ok2K6wH5HigkwixbM4u-373" vertex="1">
          <mxGeometry x="28.75" y="295" width="190" height="40" as="geometry" />
        </mxCell>
        <mxCell id="0ok2K6wH5HigkwixbM4u-385" value="see (1st case)" style="text;html=1;align=center;verticalAlign=middle;resizable=0;points=[];autosize=1;strokeColor=none;fillColor=none;" parent="0ok2K6wH5HigkwixbM4u-373" vertex="1">
          <mxGeometry x="40" y="340" width="90" height="20" as="geometry" />
        </mxCell>
        <mxCell id="0ok2K6wH5HigkwixbM4u-386" value="Reserved Words in This Section" style="swimlane;hachureGap=4;pointerEvents=0;" parent="0ok2K6wH5HigkwixbM4u-373" vertex="1">
          <mxGeometry x="360" y="25" width="190" height="185" as="geometry" />
        </mxCell>
        <mxCell id="0ok2K6wH5HigkwixbM4u-387" value="&lt;b style=&quot;font-size: 10px&quot;&gt;(5th Q)&amp;nbsp;&lt;br&gt;&lt;/b&gt;&lt;b style=&quot;font-size: 10px&quot;&gt;account details, &lt;br&gt;bank accounts, &lt;br&gt;account, &lt;br&gt;accounts, &lt;br&gt;account detail, &lt;br&gt;bank account&lt;/b&gt;" style="text;html=1;align=center;verticalAlign=middle;resizable=0;points=[];autosize=1;strokeColor=none;fillColor=none;" parent="0ok2K6wH5HigkwixbM4u-386" vertex="1">
          <mxGeometry x="20" y="35" width="90" height="110" as="geometry" />
        </mxCell>
        <mxCell id="0ok2K6wH5HigkwixbM4u-388" value="&lt;font style=&quot;font-size: 10px&quot;&gt;&lt;b&gt;(6st Q).&lt;/b&gt;&lt;b&gt;&amp;nbsp;Please tell me what type of Account you need?&lt;/b&gt;&lt;/font&gt;" style="shape=parallelogram;perimeter=parallelogramPerimeter;whiteSpace=wrap;html=1;fixedSize=1;hachureGap=4;pointerEvents=0;" parent="0ok2K6wH5HigkwixbM4u-373" vertex="1">
          <mxGeometry x="285" y="220" width="190" height="40" as="geometry" />
        </mxCell>
        <mxCell id="0ok2K6wH5HigkwixbM4u-389" style="edgeStyle=orthogonalEdgeStyle;rounded=0;orthogonalLoop=1;jettySize=auto;html=1;entryX=0.5;entryY=0;entryDx=0;entryDy=0;endArrow=open;startSize=14;endSize=5;sourcePerimeterSpacing=8;targetPerimeterSpacing=8;strokeWidth=1;" parent="0ok2K6wH5HigkwixbM4u-373" source="0ok2K6wH5HigkwixbM4u-390" target="0ok2K6wH5HigkwixbM4u-399" edge="1">
          <mxGeometry relative="1" as="geometry">
            <Array as="points">
              <mxPoint x="280" y="370" />
              <mxPoint x="405" y="370" />
            </Array>
          </mxGeometry>
        </mxCell>
        <mxCell id="0ok2K6wH5HigkwixbM4u-390" value="&lt;font style=&quot;font-size: 10px&quot;&gt;&lt;b&gt;Saving Account&lt;/b&gt;&lt;/font&gt;" style="rhombus;whiteSpace=wrap;html=1;hachureGap=4;pointerEvents=0;" parent="0ok2K6wH5HigkwixbM4u-373" vertex="1">
          <mxGeometry x="250" y="285" width="60" height="60" as="geometry" />
        </mxCell>
        <mxCell id="0ok2K6wH5HigkwixbM4u-391" style="edgeStyle=orthogonalEdgeStyle;rounded=0;orthogonalLoop=1;jettySize=auto;html=1;entryX=0.5;entryY=0;entryDx=0;entryDy=0;endArrow=open;startSize=14;endSize=5;sourcePerimeterSpacing=8;targetPerimeterSpacing=8;strokeWidth=1;" parent="0ok2K6wH5HigkwixbM4u-373" source="0ok2K6wH5HigkwixbM4u-388" target="0ok2K6wH5HigkwixbM4u-390" edge="1">
          <mxGeometry relative="1" as="geometry" />
        </mxCell>
        <mxCell id="0ok2K6wH5HigkwixbM4u-392" value="&lt;font style=&quot;font-size: 10px&quot;&gt;&lt;b&gt;FIxed Deposit Account&lt;/b&gt;&lt;/font&gt;" style="rhombus;whiteSpace=wrap;html=1;hachureGap=4;pointerEvents=0;" parent="0ok2K6wH5HigkwixbM4u-373" vertex="1">
          <mxGeometry x="370" y="290" width="60" height="60" as="geometry" />
        </mxCell>
        <mxCell id="0ok2K6wH5HigkwixbM4u-393" style="edgeStyle=orthogonalEdgeStyle;rounded=0;orthogonalLoop=1;jettySize=auto;html=1;entryX=0.5;entryY=0;entryDx=0;entryDy=0;endArrow=open;startSize=14;endSize=5;sourcePerimeterSpacing=8;targetPerimeterSpacing=8;strokeWidth=1;" parent="0ok2K6wH5HigkwixbM4u-373" source="0ok2K6wH5HigkwixbM4u-388" target="0ok2K6wH5HigkwixbM4u-392" edge="1">
          <mxGeometry relative="1" as="geometry" />
        </mxCell>
        <mxCell id="0ok2K6wH5HigkwixbM4u-394" style="edgeStyle=orthogonalEdgeStyle;rounded=0;orthogonalLoop=1;jettySize=auto;html=1;entryX=0.5;entryY=0;entryDx=0;entryDy=0;endArrow=open;startSize=14;endSize=5;sourcePerimeterSpacing=8;targetPerimeterSpacing=8;strokeWidth=1;" parent="0ok2K6wH5HigkwixbM4u-373" source="0ok2K6wH5HigkwixbM4u-395" target="0ok2K6wH5HigkwixbM4u-399" edge="1">
          <mxGeometry relative="1" as="geometry" />
        </mxCell>
        <mxCell id="0ok2K6wH5HigkwixbM4u-395" value="&lt;font style=&quot;font-size: 10px&quot;&gt;&lt;b&gt;Current Account&lt;/b&gt;&lt;/font&gt;" style="rhombus;whiteSpace=wrap;html=1;hachureGap=4;pointerEvents=0;" parent="0ok2K6wH5HigkwixbM4u-373" vertex="1">
          <mxGeometry x="310" y="290" width="60" height="60" as="geometry" />
        </mxCell>
        <mxCell id="0ok2K6wH5HigkwixbM4u-396" style="edgeStyle=orthogonalEdgeStyle;rounded=0;orthogonalLoop=1;jettySize=auto;html=1;entryX=0.5;entryY=0;entryDx=0;entryDy=0;endArrow=open;startSize=14;endSize=5;sourcePerimeterSpacing=8;targetPerimeterSpacing=8;strokeWidth=1;" parent="0ok2K6wH5HigkwixbM4u-373" source="0ok2K6wH5HigkwixbM4u-388" target="0ok2K6wH5HigkwixbM4u-395" edge="1">
          <mxGeometry relative="1" as="geometry" />
        </mxCell>
        <mxCell id="0ok2K6wH5HigkwixbM4u-397" value="&lt;font&gt;&lt;span style=&quot;font-size: 10px&quot;&gt;&lt;b&gt;Recurring&lt;/b&gt;&lt;/span&gt;&lt;b style=&quot;font-size: 10px&quot;&gt;&amp;nbsp;Deposit Account&lt;/b&gt;&lt;/font&gt;" style="rhombus;whiteSpace=wrap;html=1;hachureGap=4;pointerEvents=0;" parent="0ok2K6wH5HigkwixbM4u-373" vertex="1">
          <mxGeometry x="425" y="295" width="60" height="60" as="geometry" />
        </mxCell>
        <mxCell id="0ok2K6wH5HigkwixbM4u-398" style="edgeStyle=orthogonalEdgeStyle;rounded=0;orthogonalLoop=1;jettySize=auto;html=1;entryX=0.5;entryY=0;entryDx=0;entryDy=0;endArrow=open;startSize=14;endSize=5;sourcePerimeterSpacing=8;targetPerimeterSpacing=8;strokeWidth=1;" parent="0ok2K6wH5HigkwixbM4u-373" source="0ok2K6wH5HigkwixbM4u-388" target="0ok2K6wH5HigkwixbM4u-397" edge="1">
          <mxGeometry relative="1" as="geometry" />
        </mxCell>
        <mxCell id="0ok2K6wH5HigkwixbM4u-399" value="&lt;font style=&quot;font-size: 10px&quot;&gt;&lt;b&gt;Display information of different accounts(5 type of accounts have different steps&lt;/b&gt;&lt;/font&gt;" style="rounded=0;whiteSpace=wrap;html=1;hachureGap=4;pointerEvents=0;" parent="0ok2K6wH5HigkwixbM4u-373" vertex="1">
          <mxGeometry x="325" y="390" width="160" height="70" as="geometry" />
        </mxCell>
        <mxCell id="0ok2K6wH5HigkwixbM4u-400" style="edgeStyle=orthogonalEdgeStyle;rounded=0;orthogonalLoop=1;jettySize=auto;html=1;entryX=1;entryY=0.5;entryDx=0;entryDy=0;endArrow=open;startSize=14;endSize=5;sourcePerimeterSpacing=8;targetPerimeterSpacing=8;strokeWidth=1;" parent="0ok2K6wH5HigkwixbM4u-373" source="0ok2K6wH5HigkwixbM4u-399" target="0ok2K6wH5HigkwixbM4u-407" edge="1">
          <mxGeometry relative="1" as="geometry" />
        </mxCell>
        <mxCell id="0ok2K6wH5HigkwixbM4u-401" style="edgeStyle=orthogonalEdgeStyle;rounded=0;orthogonalLoop=1;jettySize=auto;html=1;entryX=0.5;entryY=0;entryDx=0;entryDy=0;endArrow=open;startSize=14;endSize=5;sourcePerimeterSpacing=8;targetPerimeterSpacing=8;strokeWidth=1;" parent="0ok2K6wH5HigkwixbM4u-373" source="0ok2K6wH5HigkwixbM4u-392" target="0ok2K6wH5HigkwixbM4u-399" edge="1">
          <mxGeometry relative="1" as="geometry" />
        </mxCell>
        <mxCell id="0ok2K6wH5HigkwixbM4u-402" style="edgeStyle=orthogonalEdgeStyle;rounded=0;orthogonalLoop=1;jettySize=auto;html=1;entryX=0.5;entryY=0;entryDx=0;entryDy=0;endArrow=open;startSize=14;endSize=5;sourcePerimeterSpacing=8;targetPerimeterSpacing=8;strokeWidth=1;" parent="0ok2K6wH5HigkwixbM4u-373" source="0ok2K6wH5HigkwixbM4u-397" target="0ok2K6wH5HigkwixbM4u-399" edge="1">
          <mxGeometry relative="1" as="geometry">
            <Array as="points">
              <mxPoint x="455" y="370" />
              <mxPoint x="405" y="370" />
            </Array>
          </mxGeometry>
        </mxCell>
        <mxCell id="0ok2K6wH5HigkwixbM4u-403" style="edgeStyle=orthogonalEdgeStyle;rounded=0;orthogonalLoop=1;jettySize=auto;html=1;entryX=0.5;entryY=0;entryDx=0;entryDy=0;endArrow=open;startSize=14;endSize=5;sourcePerimeterSpacing=8;targetPerimeterSpacing=8;strokeWidth=1;" parent="0ok2K6wH5HigkwixbM4u-373" source="0ok2K6wH5HigkwixbM4u-404" target="0ok2K6wH5HigkwixbM4u-399" edge="1">
          <mxGeometry relative="1" as="geometry" />
        </mxCell>
        <mxCell id="0ok2K6wH5HigkwixbM4u-404" value="&lt;font style=&quot;font-size: 10px&quot;&gt;&lt;b&gt;NRI Account&lt;/b&gt;&lt;/font&gt;" style="rhombus;whiteSpace=wrap;html=1;hachureGap=4;pointerEvents=0;" parent="0ok2K6wH5HigkwixbM4u-373" vertex="1">
          <mxGeometry x="485" y="290" width="60" height="60" as="geometry" />
        </mxCell>
        <mxCell id="0ok2K6wH5HigkwixbM4u-405" style="edgeStyle=orthogonalEdgeStyle;rounded=0;orthogonalLoop=1;jettySize=auto;html=1;endArrow=open;startSize=14;endSize=5;sourcePerimeterSpacing=8;targetPerimeterSpacing=8;strokeWidth=1;" parent="0ok2K6wH5HigkwixbM4u-373" source="0ok2K6wH5HigkwixbM4u-388" target="0ok2K6wH5HigkwixbM4u-404" edge="1">
          <mxGeometry relative="1" as="geometry" />
        </mxCell>
        <mxCell id="0ok2K6wH5HigkwixbM4u-406" value="" style="rounded=0;whiteSpace=wrap;html=1;hachureGap=4;pointerEvents=0;fillColor=#8AF3FF;strokeWidth=3;dashed=1;" parent="0ok2K6wH5HigkwixbM4u-373" vertex="1">
          <mxGeometry x="7.5" y="395" width="280" height="70" as="geometry" />
        </mxCell>
        <mxCell id="0ok2K6wH5HigkwixbM4u-407" value="&lt;span style=&quot;font-size: 10px&quot;&gt;&lt;b&gt;Are you satisfy about my service?&lt;/b&gt;&lt;/span&gt;" style="shape=parallelogram;perimeter=parallelogramPerimeter;whiteSpace=wrap;html=1;fixedSize=1;hachureGap=4;pointerEvents=0;" parent="0ok2K6wH5HigkwixbM4u-373" vertex="1">
          <mxGeometry x="82.5" y="405" width="190" height="40" as="geometry" />
        </mxCell>
        <mxCell id="0ok2K6wH5HigkwixbM4u-408" value="same steps of (1st case)" style="text;html=1;align=center;verticalAlign=middle;resizable=0;points=[];autosize=1;strokeColor=none;fillColor=none;" parent="0ok2K6wH5HigkwixbM4u-373" vertex="1">
          <mxGeometry x="15" y="445" width="150" height="20" as="geometry" />
        </mxCell>
        <mxCell id="0ok2K6wH5HigkwixbM4u-409" value="" style="rounded=0;whiteSpace=wrap;html=1;hachureGap=4;pointerEvents=0;fillColor=#8AF3FF;strokeWidth=3;dashed=1;" parent="0ok2K6wH5HigkwixbM4u-372" vertex="1">
          <mxGeometry x="11.879999999999999" y="380" width="526.25" height="70" as="geometry" />
        </mxCell>
        <mxCell id="0ok2K6wH5HigkwixbM4u-410" style="edgeStyle=orthogonalEdgeStyle;rounded=0;orthogonalLoop=1;jettySize=auto;html=1;entryX=0.5;entryY=0;entryDx=0;entryDy=0;endArrow=open;startSize=14;endSize=5;sourcePerimeterSpacing=8;targetPerimeterSpacing=8;strokeWidth=1;" parent="0ok2K6wH5HigkwixbM4u-372" source="0ok2K6wH5HigkwixbM4u-411" target="0ok2K6wH5HigkwixbM4u-417" edge="1">
          <mxGeometry relative="1" as="geometry">
            <Array as="points">
              <mxPoint x="130" y="130" />
            </Array>
          </mxGeometry>
        </mxCell>
        <mxCell id="0ok2K6wH5HigkwixbM4u-411" value="&lt;font style=&quot;font-size: 10px&quot;&gt;&lt;b&gt;How can I use Smartpay (smartpay, payment, bill payment, any bill payment)&lt;/b&gt;&lt;/font&gt;" style="ellipse;whiteSpace=wrap;html=1;hachureGap=4;pointerEvents=0;fillColor=#8AF3FF;" parent="0ok2K6wH5HigkwixbM4u-372" vertex="1">
          <mxGeometry x="30" y="40" width="200" height="50" as="geometry" />
        </mxCell>
        <mxCell id="0ok2K6wH5HigkwixbM4u-412" value="Reserved Words in This Section" style="swimlane;hachureGap=4;pointerEvents=0;" parent="0ok2K6wH5HigkwixbM4u-372" vertex="1">
          <mxGeometry x="360" y="30" width="190" height="270" as="geometry" />
        </mxCell>
        <mxCell id="0ok2K6wH5HigkwixbM4u-413" value="&lt;b style=&quot;font-size: 10px&quot;&gt;(4th Q)&amp;nbsp;&lt;br&gt;&lt;/b&gt;&lt;b style=&quot;font-size: 10px&quot;&gt;smartpay, &lt;br&gt;payment, &lt;br&gt;bill payment, &lt;br&gt;any bill payment&lt;/b&gt;" style="text;html=1;align=center;verticalAlign=middle;resizable=0;points=[];autosize=1;strokeColor=none;fillColor=none;" parent="0ok2K6wH5HigkwixbM4u-412" vertex="1">
          <mxGeometry x="20" y="30" width="90" height="80" as="geometry" />
        </mxCell>
        <mxCell id="0ok2K6wH5HigkwixbM4u-414" style="edgeStyle=orthogonalEdgeStyle;rounded=0;orthogonalLoop=1;jettySize=auto;html=1;entryX=0.5;entryY=0;entryDx=0;entryDy=0;endArrow=open;startSize=14;endSize=5;sourcePerimeterSpacing=8;targetPerimeterSpacing=8;strokeWidth=1;" parent="0ok2K6wH5HigkwixbM4u-372" source="0ok2K6wH5HigkwixbM4u-417" target="0ok2K6wH5HigkwixbM4u-419" edge="1">
          <mxGeometry relative="1" as="geometry" />
        </mxCell>
        <mxCell id="0ok2K6wH5HigkwixbM4u-415" style="edgeStyle=orthogonalEdgeStyle;rounded=0;orthogonalLoop=1;jettySize=auto;html=1;entryX=0.5;entryY=0;entryDx=0;entryDy=0;endArrow=open;startSize=14;endSize=5;sourcePerimeterSpacing=8;targetPerimeterSpacing=8;strokeWidth=1;" parent="0ok2K6wH5HigkwixbM4u-372" source="0ok2K6wH5HigkwixbM4u-417" target="0ok2K6wH5HigkwixbM4u-421" edge="1">
          <mxGeometry relative="1" as="geometry" />
        </mxCell>
        <mxCell id="0ok2K6wH5HigkwixbM4u-416" style="edgeStyle=orthogonalEdgeStyle;rounded=0;orthogonalLoop=1;jettySize=auto;html=1;entryX=0.5;entryY=0;entryDx=0;entryDy=0;endArrow=open;startSize=14;endSize=5;sourcePerimeterSpacing=8;targetPerimeterSpacing=8;strokeWidth=1;" parent="0ok2K6wH5HigkwixbM4u-372" source="0ok2K6wH5HigkwixbM4u-417" target="0ok2K6wH5HigkwixbM4u-423" edge="1">
          <mxGeometry relative="1" as="geometry">
            <Array as="points">
              <mxPoint x="130" y="190" />
              <mxPoint x="260" y="190" />
            </Array>
          </mxGeometry>
        </mxCell>
        <mxCell id="0ok2K6wH5HigkwixbM4u-417" value="&lt;font style=&quot;font-size: 10px&quot;&gt;&lt;b&gt;(4th Q) Please tell me what type of payment you need to pay?&lt;/b&gt;&lt;/font&gt;" style="shape=parallelogram;perimeter=parallelogramPerimeter;whiteSpace=wrap;html=1;fixedSize=1;hachureGap=4;pointerEvents=0;" parent="0ok2K6wH5HigkwixbM4u-372" vertex="1">
          <mxGeometry x="35" y="130" width="190" height="40" as="geometry" />
        </mxCell>
        <mxCell id="0ok2K6wH5HigkwixbM4u-418" style="edgeStyle=orthogonalEdgeStyle;rounded=0;orthogonalLoop=1;jettySize=auto;html=1;entryX=0.5;entryY=0;entryDx=0;entryDy=0;endArrow=open;startSize=14;endSize=5;sourcePerimeterSpacing=8;targetPerimeterSpacing=8;strokeWidth=1;" parent="0ok2K6wH5HigkwixbM4u-372" source="0ok2K6wH5HigkwixbM4u-419" target="0ok2K6wH5HigkwixbM4u-425" edge="1">
          <mxGeometry relative="1" as="geometry" />
        </mxCell>
        <mxCell id="0ok2K6wH5HigkwixbM4u-419" value="&lt;font style=&quot;font-size: 10px&quot;&gt;&lt;b&gt;Commercial Payments&lt;/b&gt;&lt;/font&gt;" style="rhombus;whiteSpace=wrap;html=1;hachureGap=4;pointerEvents=0;" parent="0ok2K6wH5HigkwixbM4u-372" vertex="1">
          <mxGeometry x="50" y="200" width="60" height="60" as="geometry" />
        </mxCell>
        <mxCell id="0ok2K6wH5HigkwixbM4u-420" style="edgeStyle=orthogonalEdgeStyle;rounded=0;orthogonalLoop=1;jettySize=auto;html=1;entryX=0.5;entryY=0;entryDx=0;entryDy=0;endArrow=open;startSize=14;endSize=5;sourcePerimeterSpacing=8;targetPerimeterSpacing=8;strokeWidth=1;" parent="0ok2K6wH5HigkwixbM4u-372" source="0ok2K6wH5HigkwixbM4u-421" target="0ok2K6wH5HigkwixbM4u-425" edge="1">
          <mxGeometry relative="1" as="geometry" />
        </mxCell>
        <mxCell id="0ok2K6wH5HigkwixbM4u-421" value="&lt;font style=&quot;font-size: 10px&quot;&gt;&lt;b&gt;Trade Payments&lt;/b&gt;&lt;/font&gt;" style="rhombus;whiteSpace=wrap;html=1;hachureGap=4;pointerEvents=0;" parent="0ok2K6wH5HigkwixbM4u-372" vertex="1">
          <mxGeometry x="130" y="200" width="60" height="60" as="geometry" />
        </mxCell>
        <mxCell id="0ok2K6wH5HigkwixbM4u-422" style="edgeStyle=orthogonalEdgeStyle;rounded=0;orthogonalLoop=1;jettySize=auto;html=1;entryX=0.5;entryY=0;entryDx=0;entryDy=0;endArrow=open;startSize=14;endSize=5;sourcePerimeterSpacing=8;targetPerimeterSpacing=8;strokeWidth=1;" parent="0ok2K6wH5HigkwixbM4u-372" source="0ok2K6wH5HigkwixbM4u-423" target="0ok2K6wH5HigkwixbM4u-425" edge="1">
          <mxGeometry relative="1" as="geometry" />
        </mxCell>
        <mxCell id="0ok2K6wH5HigkwixbM4u-423" value="&lt;font style=&quot;font-size: 10px&quot;&gt;&lt;b&gt;Foreign Exchange&lt;/b&gt;&lt;/font&gt;" style="rhombus;whiteSpace=wrap;html=1;hachureGap=4;pointerEvents=0;" parent="0ok2K6wH5HigkwixbM4u-372" vertex="1">
          <mxGeometry x="230" y="200" width="60" height="60" as="geometry" />
        </mxCell>
        <mxCell id="0ok2K6wH5HigkwixbM4u-424" style="edgeStyle=orthogonalEdgeStyle;rounded=0;orthogonalLoop=1;jettySize=auto;html=1;entryX=0.5;entryY=0;entryDx=0;entryDy=0;endArrow=open;startSize=14;endSize=5;sourcePerimeterSpacing=8;targetPerimeterSpacing=8;strokeWidth=1;" parent="0ok2K6wH5HigkwixbM4u-372" source="0ok2K6wH5HigkwixbM4u-425" target="0ok2K6wH5HigkwixbM4u-426" edge="1">
          <mxGeometry relative="1" as="geometry">
            <Array as="points">
              <mxPoint x="345" y="320" />
            </Array>
          </mxGeometry>
        </mxCell>
        <mxCell id="0ok2K6wH5HigkwixbM4u-425" value="&lt;font style=&quot;font-size: 10px&quot;&gt;&lt;b&gt;Display steps to do a payment (3 type of payments have different steps&lt;br&gt;&lt;/b&gt;&lt;/font&gt;" style="rounded=0;whiteSpace=wrap;html=1;hachureGap=4;pointerEvents=0;" parent="0ok2K6wH5HigkwixbM4u-372" vertex="1">
          <mxGeometry x="80" y="300" width="160" height="70" as="geometry" />
        </mxCell>
        <mxCell id="0ok2K6wH5HigkwixbM4u-426" value="&lt;span style=&quot;font-size: 10px&quot;&gt;&lt;b&gt;Are you satisfy about my service?&lt;/b&gt;&lt;/span&gt;" style="shape=parallelogram;perimeter=parallelogramPerimeter;whiteSpace=wrap;html=1;fixedSize=1;hachureGap=4;pointerEvents=0;" parent="0ok2K6wH5HigkwixbM4u-372" vertex="1">
          <mxGeometry x="250" y="390" width="190" height="40" as="geometry" />
        </mxCell>
        <mxCell id="0ok2K6wH5HigkwixbM4u-427" value="same steps of (1st case)" style="text;html=1;align=center;verticalAlign=middle;resizable=0;points=[];autosize=1;strokeColor=none;fillColor=none;" parent="0ok2K6wH5HigkwixbM4u-372" vertex="1">
          <mxGeometry x="80" y="400" width="150" height="20" as="geometry" />
        </mxCell>
        <mxCell id="0ok2K6wH5HigkwixbM4u-428" value="(4th Case) SmartPay" style="swimlane;hachureGap=4;pointerEvents=0;fillColor=#8AF3FF;" parent="0ok2K6wH5HigkwixbM4u-317" vertex="1">
          <mxGeometry x="1100" y="20" width="550" height="970" as="geometry" />
        </mxCell>
        <mxCell id="0ok2K6wH5HigkwixbM4u-429" style="edgeStyle=orthogonalEdgeStyle;rounded=0;orthogonalLoop=1;jettySize=auto;html=1;entryX=0.5;entryY=0;entryDx=0;entryDy=0;endArrow=open;startSize=14;endSize=5;sourcePerimeterSpacing=8;targetPerimeterSpacing=8;strokeWidth=1;" parent="0ok2K6wH5HigkwixbM4u-428" source="0ok2K6wH5HigkwixbM4u-430" target="0ok2K6wH5HigkwixbM4u-437" edge="1">
          <mxGeometry relative="1" as="geometry" />
        </mxCell>
        <mxCell id="0ok2K6wH5HigkwixbM4u-430" value="&lt;font&gt;&lt;b style=&quot;font-size: 10px&quot;&gt;I need to know details about online banking/ mobile banking. (online, mobile, online banking, &lt;/b&gt;&lt;span style=&quot;font-size: 10px&quot;&gt;&lt;b&gt;mobile&lt;/b&gt;&lt;/span&gt;&lt;b style=&quot;font-size: 10px&quot;&gt;&amp;nbsp;banking, e, e-banking)&lt;/b&gt;&lt;/font&gt;" style="ellipse;whiteSpace=wrap;html=1;hachureGap=4;pointerEvents=0;fillColor=#8AF3FF;" parent="0ok2K6wH5HigkwixbM4u-428" vertex="1">
          <mxGeometry x="55" y="40" width="240" height="80" as="geometry" />
        </mxCell>
        <mxCell id="0ok2K6wH5HigkwixbM4u-431" value="Reserved Words in This Section" style="swimlane;hachureGap=4;pointerEvents=0;" parent="0ok2K6wH5HigkwixbM4u-428" vertex="1">
          <mxGeometry x="360" y="30" width="190" height="270" as="geometry" />
        </mxCell>
        <mxCell id="0ok2K6wH5HigkwixbM4u-432" value="&lt;b&gt;&lt;span style=&quot;font-size: 10px&quot;&gt;(7th Q)&lt;br&gt;&lt;/span&gt;&lt;span style=&quot;font-size: 10px&quot;&gt;online, &lt;br&gt;mobile, &lt;br&gt;(online banking,&amp;nbsp;&lt;br&gt;&lt;/span&gt;&lt;span style=&quot;font-size: 10px&quot;&gt;mobile&lt;/span&gt;&lt;span style=&quot;font-size: 10px&quot;&gt;&amp;nbsp;banking)&lt;/span&gt;&lt;/b&gt;" style="text;html=1;align=center;verticalAlign=middle;resizable=0;points=[];autosize=1;strokeColor=none;fillColor=none;" parent="0ok2K6wH5HigkwixbM4u-431" vertex="1">
          <mxGeometry x="20" y="35" width="90" height="80" as="geometry" />
        </mxCell>
        <mxCell id="0ok2K6wH5HigkwixbM4u-435" style="edgeStyle=orthogonalEdgeStyle;rounded=0;orthogonalLoop=1;jettySize=auto;html=1;entryX=0.5;entryY=0;entryDx=0;entryDy=0;endArrow=open;startSize=14;endSize=5;sourcePerimeterSpacing=8;targetPerimeterSpacing=8;strokeWidth=1;" parent="0ok2K6wH5HigkwixbM4u-428" source="0ok2K6wH5HigkwixbM4u-437" target="0ok2K6wH5HigkwixbM4u-439" edge="1">
          <mxGeometry relative="1" as="geometry" />
        </mxCell>
        <mxCell id="0ok2K6wH5HigkwixbM4u-436" style="edgeStyle=orthogonalEdgeStyle;rounded=0;orthogonalLoop=1;jettySize=auto;html=1;entryX=0.5;entryY=0;entryDx=0;entryDy=0;endArrow=open;startSize=14;endSize=5;sourcePerimeterSpacing=8;targetPerimeterSpacing=8;strokeWidth=1;" parent="0ok2K6wH5HigkwixbM4u-428" source="0ok2K6wH5HigkwixbM4u-437" target="0ok2K6wH5HigkwixbM4u-441" edge="1">
          <mxGeometry relative="1" as="geometry" />
        </mxCell>
        <mxCell id="0ok2K6wH5HigkwixbM4u-437" value="&lt;font style=&quot;font-size: 10px&quot;&gt;&lt;b&gt;(7th Q) Please tell me what is your preferences?&lt;/b&gt;&lt;/font&gt;" style="shape=parallelogram;perimeter=parallelogramPerimeter;whiteSpace=wrap;html=1;fixedSize=1;hachureGap=4;pointerEvents=0;" parent="0ok2K6wH5HigkwixbM4u-428" vertex="1">
          <mxGeometry x="80" y="150" width="190" height="40" as="geometry" />
        </mxCell>
        <mxCell id="0ok2K6wH5HigkwixbM4u-438" style="edgeStyle=orthogonalEdgeStyle;rounded=0;orthogonalLoop=1;jettySize=auto;html=1;entryX=0.553;entryY=0;entryDx=0;entryDy=0;entryPerimeter=0;endArrow=open;startSize=14;endSize=5;sourcePerimeterSpacing=8;targetPerimeterSpacing=8;strokeWidth=1;" parent="0ok2K6wH5HigkwixbM4u-428" source="0ok2K6wH5HigkwixbM4u-439" target="0ok2K6wH5HigkwixbM4u-444" edge="1">
          <mxGeometry relative="1" as="geometry" />
        </mxCell>
        <mxCell id="0ok2K6wH5HigkwixbM4u-439" value="&lt;font style=&quot;font-size: 10px&quot;&gt;&lt;b&gt;Online Banking&lt;/b&gt;&lt;/font&gt;" style="rhombus;whiteSpace=wrap;html=1;hachureGap=4;pointerEvents=0;" parent="0ok2K6wH5HigkwixbM4u-428" vertex="1">
          <mxGeometry x="80" y="230" width="60" height="60" as="geometry" />
        </mxCell>
        <mxCell id="0ok2K6wH5HigkwixbM4u-440" style="edgeStyle=orthogonalEdgeStyle;rounded=0;orthogonalLoop=1;jettySize=auto;html=1;entryX=0.556;entryY=-0.05;entryDx=0;entryDy=0;entryPerimeter=0;endArrow=open;startSize=14;endSize=5;sourcePerimeterSpacing=8;targetPerimeterSpacing=8;strokeWidth=1;" parent="0ok2K6wH5HigkwixbM4u-428" source="0ok2K6wH5HigkwixbM4u-441" edge="1">
          <mxGeometry relative="1" as="geometry">
            <Array as="points">
              <mxPoint x="215" y="320" />
              <mxPoint x="386" y="320" />
            </Array>
            <mxPoint x="385.6399999999999" y="348" as="targetPoint" />
          </mxGeometry>
        </mxCell>
        <mxCell id="0ok2K6wH5HigkwixbM4u-441" value="&lt;font style=&quot;font-size: 10px&quot;&gt;&lt;b&gt;Mobile Banking&lt;/b&gt;&lt;/font&gt;" style="rhombus;whiteSpace=wrap;html=1;hachureGap=4;pointerEvents=0;" parent="0ok2K6wH5HigkwixbM4u-428" vertex="1">
          <mxGeometry x="185" y="230" width="60" height="60" as="geometry" />
        </mxCell>
        <mxCell id="0ok2K6wH5HigkwixbM4u-442" style="edgeStyle=orthogonalEdgeStyle;rounded=0;orthogonalLoop=1;jettySize=auto;html=1;entryX=0.5;entryY=0;entryDx=0;entryDy=0;endArrow=open;startSize=14;endSize=5;sourcePerimeterSpacing=8;targetPerimeterSpacing=8;strokeWidth=1;" parent="0ok2K6wH5HigkwixbM4u-428" source="0ok2K6wH5HigkwixbM4u-444" target="0ok2K6wH5HigkwixbM4u-445" edge="1">
          <mxGeometry relative="1" as="geometry" />
        </mxCell>
        <mxCell id="0ok2K6wH5HigkwixbM4u-443" style="edgeStyle=orthogonalEdgeStyle;rounded=0;orthogonalLoop=1;jettySize=auto;html=1;entryX=0.5;entryY=0;entryDx=0;entryDy=0;endArrow=open;startSize=14;endSize=5;sourcePerimeterSpacing=8;targetPerimeterSpacing=8;strokeWidth=1;" parent="0ok2K6wH5HigkwixbM4u-428" source="0ok2K6wH5HigkwixbM4u-444" target="0ok2K6wH5HigkwixbM4u-446" edge="1">
          <mxGeometry relative="1" as="geometry" />
        </mxCell>
        <mxCell id="0ok2K6wH5HigkwixbM4u-444" value="&lt;font style=&quot;font-size: 10px&quot;&gt;&lt;b&gt;(8th Q) Please tell me what do you need to know?&lt;/b&gt;&lt;/font&gt;" style="shape=parallelogram;perimeter=parallelogramPerimeter;whiteSpace=wrap;html=1;fixedSize=1;hachureGap=4;pointerEvents=0;" parent="0ok2K6wH5HigkwixbM4u-428" vertex="1">
          <mxGeometry x="55" y="350" width="190" height="40" as="geometry" />
        </mxCell>
        <mxCell id="0ok2K6wH5HigkwixbM4u-466" style="edgeStyle=orthogonalEdgeStyle;rounded=0;orthogonalLoop=1;jettySize=auto;html=1;entryX=0.5;entryY=0;entryDx=0;entryDy=0;endArrow=open;startSize=14;endSize=5;sourcePerimeterSpacing=8;targetPerimeterSpacing=8;strokeWidth=1;" parent="0ok2K6wH5HigkwixbM4u-428" source="0ok2K6wH5HigkwixbM4u-445" target="0ok2K6wH5HigkwixbM4u-453" edge="1">
          <mxGeometry relative="1" as="geometry" />
        </mxCell>
        <mxCell id="0ok2K6wH5HigkwixbM4u-445" value="&lt;span style=&quot;font-size: 10px&quot;&gt;&lt;b&gt;Online Banking Account Create&lt;/b&gt;&lt;/span&gt;" style="rhombus;whiteSpace=wrap;html=1;hachureGap=4;pointerEvents=0;" parent="0ok2K6wH5HigkwixbM4u-428" vertex="1">
          <mxGeometry x="55" y="420" width="60" height="60" as="geometry" />
        </mxCell>
        <mxCell id="8_q-ypvE0YWIPZF5PDAi-1" style="edgeStyle=none;curved=1;rounded=0;orthogonalLoop=1;jettySize=auto;html=1;entryX=0.5;entryY=0;entryDx=0;entryDy=0;endArrow=open;startSize=14;endSize=5;sourcePerimeterSpacing=8;targetPerimeterSpacing=8;" parent="0ok2K6wH5HigkwixbM4u-428" source="0ok2K6wH5HigkwixbM4u-446" target="0ok2K6wH5HigkwixbM4u-467" edge="1">
          <mxGeometry relative="1" as="geometry" />
        </mxCell>
        <mxCell id="0ok2K6wH5HigkwixbM4u-446" value="&lt;font style=&quot;font-size: 10px&quot;&gt;&lt;b&gt;Need details&lt;/b&gt;&lt;/font&gt;" style="rhombus;whiteSpace=wrap;html=1;hachureGap=4;pointerEvents=0;" parent="0ok2K6wH5HigkwixbM4u-428" vertex="1">
          <mxGeometry x="155" y="420" width="60" height="60" as="geometry" />
        </mxCell>
        <mxCell id="0ok2K6wH5HigkwixbM4u-453" value="&lt;font style=&quot;font-size: 10px&quot;&gt;&lt;b&gt;Display steps to create online banking&lt;br&gt;&lt;/b&gt;&lt;/font&gt;" style="rounded=0;whiteSpace=wrap;html=1;hachureGap=4;pointerEvents=0;" parent="0ok2K6wH5HigkwixbM4u-428" vertex="1">
          <mxGeometry x="40" y="500" width="90" height="70" as="geometry" />
        </mxCell>
        <mxCell id="0ok2K6wH5HigkwixbM4u-455" style="edgeStyle=orthogonalEdgeStyle;rounded=0;orthogonalLoop=1;jettySize=auto;html=1;entryX=0.5;entryY=0;entryDx=0;entryDy=0;endArrow=open;startSize=14;endSize=5;sourcePerimeterSpacing=8;targetPerimeterSpacing=8;strokeWidth=1;" parent="0ok2K6wH5HigkwixbM4u-428" source="0ok2K6wH5HigkwixbM4u-453" target="0ok2K6wH5HigkwixbM4u-454" edge="1">
          <mxGeometry relative="1" as="geometry">
            <Array as="points">
              <mxPoint x="90" y="600" />
              <mxPoint x="278" y="600" />
            </Array>
          </mxGeometry>
        </mxCell>
        <mxCell id="0ok2K6wH5HigkwixbM4u-470" style="edgeStyle=orthogonalEdgeStyle;rounded=0;orthogonalLoop=1;jettySize=auto;html=1;entryX=0.5;entryY=0;entryDx=0;entryDy=0;endArrow=open;startSize=14;endSize=5;sourcePerimeterSpacing=8;targetPerimeterSpacing=8;strokeWidth=1;" parent="0ok2K6wH5HigkwixbM4u-428" source="0ok2K6wH5HigkwixbM4u-469" target="0ok2K6wH5HigkwixbM4u-454" edge="1">
          <mxGeometry relative="1" as="geometry">
            <Array as="points">
              <mxPoint x="405" y="600" />
              <mxPoint x="278" y="600" />
            </Array>
          </mxGeometry>
        </mxCell>
        <mxCell id="0ok2K6wH5HigkwixbM4u-469" value="&lt;font style=&quot;font-size: 10px&quot;&gt;&lt;b&gt;Display details of mobile banking&lt;br&gt;&lt;/b&gt;&lt;/font&gt;" style="rounded=0;whiteSpace=wrap;html=1;hachureGap=4;pointerEvents=0;" parent="0ok2K6wH5HigkwixbM4u-428" vertex="1">
          <mxGeometry x="360" y="500" width="90" height="70" as="geometry" />
        </mxCell>
        <mxCell id="0ok2K6wH5HigkwixbM4u-471" style="edgeStyle=orthogonalEdgeStyle;rounded=0;orthogonalLoop=1;jettySize=auto;html=1;entryX=0.5;entryY=0;entryDx=0;entryDy=0;endArrow=open;startSize=14;endSize=5;sourcePerimeterSpacing=8;targetPerimeterSpacing=8;strokeWidth=1;" parent="0ok2K6wH5HigkwixbM4u-428" source="0ok2K6wH5HigkwixbM4u-468" target="0ok2K6wH5HigkwixbM4u-454" edge="1">
          <mxGeometry relative="1" as="geometry">
            <Array as="points">
              <mxPoint x="305" y="600" />
              <mxPoint x="278" y="600" />
            </Array>
          </mxGeometry>
        </mxCell>
        <mxCell id="0ok2K6wH5HigkwixbM4u-468" value="&lt;font style=&quot;font-size: 10px&quot;&gt;&lt;b&gt;Display steps to create mobile banking&lt;br&gt;&lt;/b&gt;&lt;/font&gt;" style="rounded=0;whiteSpace=wrap;html=1;hachureGap=4;pointerEvents=0;" parent="0ok2K6wH5HigkwixbM4u-428" vertex="1">
          <mxGeometry x="260" y="500" width="90" height="70" as="geometry" />
        </mxCell>
        <mxCell id="0ok2K6wH5HigkwixbM4u-472" style="edgeStyle=orthogonalEdgeStyle;rounded=0;orthogonalLoop=1;jettySize=auto;html=1;entryX=0.5;entryY=0;entryDx=0;entryDy=0;endArrow=open;startSize=14;endSize=5;sourcePerimeterSpacing=8;targetPerimeterSpacing=8;strokeWidth=1;" parent="0ok2K6wH5HigkwixbM4u-428" source="0ok2K6wH5HigkwixbM4u-467" target="0ok2K6wH5HigkwixbM4u-454" edge="1">
          <mxGeometry relative="1" as="geometry">
            <Array as="points">
              <mxPoint x="185" y="600" />
              <mxPoint x="278" y="600" />
            </Array>
          </mxGeometry>
        </mxCell>
        <mxCell id="0ok2K6wH5HigkwixbM4u-467" value="&lt;font style=&quot;font-size: 10px&quot;&gt;&lt;b&gt;Display details of online banking&lt;br&gt;&lt;/b&gt;&lt;/font&gt;" style="rounded=0;whiteSpace=wrap;html=1;hachureGap=4;pointerEvents=0;" parent="0ok2K6wH5HigkwixbM4u-428" vertex="1">
          <mxGeometry x="140" y="500" width="90" height="70" as="geometry" />
        </mxCell>
        <mxCell id="0ok2K6wH5HigkwixbM4u-308" value="&lt;span style=&quot;font-size: 10px&quot;&gt;&lt;b&gt;Mobile Banking Account Create&lt;/b&gt;&lt;/span&gt;" style="rhombus;whiteSpace=wrap;html=1;hachureGap=4;pointerEvents=0;" parent="0ok2K6wH5HigkwixbM4u-428" vertex="1">
          <mxGeometry x="275" y="420" width="60" height="60" as="geometry" />
        </mxCell>
        <mxCell id="8_q-ypvE0YWIPZF5PDAi-3" style="edgeStyle=orthogonalEdgeStyle;rounded=0;orthogonalLoop=1;jettySize=auto;html=1;entryX=0.5;entryY=0;entryDx=0;entryDy=0;endArrow=open;startSize=14;endSize=5;sourcePerimeterSpacing=8;targetPerimeterSpacing=8;" parent="0ok2K6wH5HigkwixbM4u-428" source="0ok2K6wH5HigkwixbM4u-308" target="0ok2K6wH5HigkwixbM4u-468" edge="1">
          <mxGeometry relative="1" as="geometry" />
        </mxCell>
        <mxCell id="0ok2K6wH5HigkwixbM4u-309" value="&lt;font style=&quot;font-size: 10px&quot;&gt;&lt;b&gt;Need details&lt;/b&gt;&lt;/font&gt;" style="rhombus;whiteSpace=wrap;html=1;hachureGap=4;pointerEvents=0;" parent="0ok2K6wH5HigkwixbM4u-428" vertex="1">
          <mxGeometry x="375" y="420" width="60" height="60" as="geometry" />
        </mxCell>
        <mxCell id="8_q-ypvE0YWIPZF5PDAi-6" style="edgeStyle=orthogonalEdgeStyle;rounded=0;orthogonalLoop=1;jettySize=auto;html=1;entryX=0.5;entryY=0;entryDx=0;entryDy=0;endArrow=open;startSize=14;endSize=5;sourcePerimeterSpacing=8;targetPerimeterSpacing=8;" parent="0ok2K6wH5HigkwixbM4u-428" source="0ok2K6wH5HigkwixbM4u-309" target="0ok2K6wH5HigkwixbM4u-469" edge="1">
          <mxGeometry relative="1" as="geometry" />
        </mxCell>
        <mxCell id="0ok2K6wH5HigkwixbM4u-315" value="" style="rounded=0;whiteSpace=wrap;html=1;hachureGap=4;pointerEvents=0;fillColor=#8AF3FF;strokeWidth=3;dashed=1;" parent="0ok2K6wH5HigkwixbM4u-428" vertex="1">
          <mxGeometry x="42.5" y="680" width="480" height="90" as="geometry" />
        </mxCell>
        <mxCell id="0ok2K6wH5HigkwixbM4u-313" value="&lt;span style=&quot;font-size: 10px&quot;&gt;&lt;b&gt;Are you satisfy about my service?&lt;/b&gt;&lt;/span&gt;" style="shape=parallelogram;perimeter=parallelogramPerimeter;whiteSpace=wrap;html=1;fixedSize=1;hachureGap=4;pointerEvents=0;" parent="0ok2K6wH5HigkwixbM4u-428" vertex="1">
          <mxGeometry x="185" y="705" width="190" height="40" as="geometry" />
        </mxCell>
        <mxCell id="0ok2K6wH5HigkwixbM4u-314" value="same steps of (1st case)" style="text;html=1;align=center;verticalAlign=middle;resizable=0;points=[];autosize=1;strokeColor=none;fillColor=none;" parent="0ok2K6wH5HigkwixbM4u-428" vertex="1">
          <mxGeometry x="57.5" y="690" width="150" height="20" as="geometry" />
        </mxCell>
        <mxCell id="0ok2K6wH5HigkwixbM4u-451" value="" style="rounded=0;whiteSpace=wrap;html=1;hachureGap=4;pointerEvents=0;fillColor=#8AF3FF;strokeWidth=3;dashed=1;" parent="0ok2K6wH5HigkwixbM4u-428" vertex="1">
          <mxGeometry x="40" y="680" width="480" height="90" as="geometry" />
        </mxCell>
        <mxCell id="0ok2K6wH5HigkwixbM4u-454" value="&lt;span style=&quot;font-size: 10px&quot;&gt;&lt;b&gt;Are you satisfy about my service?&lt;/b&gt;&lt;/span&gt;" style="shape=parallelogram;perimeter=parallelogramPerimeter;whiteSpace=wrap;html=1;fixedSize=1;hachureGap=4;pointerEvents=0;" parent="0ok2K6wH5HigkwixbM4u-428" vertex="1">
          <mxGeometry x="185" y="705" width="190" height="40" as="geometry" />
        </mxCell>
        <mxCell id="0ok2K6wH5HigkwixbM4u-456" value="same steps of (1st case)" style="text;html=1;align=center;verticalAlign=middle;resizable=0;points=[];autosize=1;strokeColor=none;fillColor=none;" parent="0ok2K6wH5HigkwixbM4u-428" vertex="1">
          <mxGeometry x="57.5" y="690" width="150" height="20" as="geometry" />
        </mxCell>
        <mxCell id="0ok2K6wH5HigkwixbM4u-457" value="(5th Case) Loan Facilities" style="swimlane;hachureGap=4;pointerEvents=0;fillColor=#8AF3FF;" parent="0ok2K6wH5HigkwixbM4u-317" vertex="1">
          <mxGeometry x="1650" y="20" width="550" height="970" as="geometry" />
        </mxCell>
        <mxCell id="8_q-ypvE0YWIPZF5PDAi-8" style="edgeStyle=orthogonalEdgeStyle;rounded=0;orthogonalLoop=1;jettySize=auto;html=1;entryX=0.5;entryY=0;entryDx=0;entryDy=0;endArrow=open;startSize=14;endSize=5;sourcePerimeterSpacing=8;targetPerimeterSpacing=8;" parent="0ok2K6wH5HigkwixbM4u-457" source="0ok2K6wH5HigkwixbM4u-459" target="8_q-ypvE0YWIPZF5PDAi-7" edge="1">
          <mxGeometry relative="1" as="geometry" />
        </mxCell>
        <mxCell id="0ok2K6wH5HigkwixbM4u-459" value="&lt;font style=&quot;font-size: 10px&quot;&gt;&lt;b&gt;I need to know information about loan facilities?(loans, loan, loan facilities, loan facility)&amp;nbsp;&lt;/b&gt;&lt;/font&gt;" style="ellipse;whiteSpace=wrap;html=1;hachureGap=4;pointerEvents=0;fillColor=#8AF3FF;" parent="0ok2K6wH5HigkwixbM4u-457" vertex="1">
          <mxGeometry x="30" y="50" width="220" height="80" as="geometry" />
        </mxCell>
        <mxCell id="0ok2K6wH5HigkwixbM4u-460" value="Reserved Words in This Section" style="swimlane;hachureGap=4;pointerEvents=0;" parent="0ok2K6wH5HigkwixbM4u-457" vertex="1">
          <mxGeometry x="360" y="30" width="190" height="270" as="geometry" />
        </mxCell>
        <mxCell id="TcHNZ0rZMPNNko7Z3j5H-7" style="edgeStyle=orthogonalEdgeStyle;rounded=0;orthogonalLoop=1;jettySize=auto;html=1;entryX=0.5;entryY=0;entryDx=0;entryDy=0;endArrow=open;startSize=14;endSize=5;sourcePerimeterSpacing=8;targetPerimeterSpacing=8;" edge="1" parent="0ok2K6wH5HigkwixbM4u-457" source="8_q-ypvE0YWIPZF5PDAi-7" target="TcHNZ0rZMPNNko7Z3j5H-2">
          <mxGeometry relative="1" as="geometry" />
        </mxCell>
        <mxCell id="TcHNZ0rZMPNNko7Z3j5H-8" style="edgeStyle=orthogonalEdgeStyle;rounded=0;orthogonalLoop=1;jettySize=auto;html=1;entryX=0.5;entryY=0;entryDx=0;entryDy=0;endArrow=open;startSize=14;endSize=5;sourcePerimeterSpacing=8;targetPerimeterSpacing=8;" edge="1" parent="0ok2K6wH5HigkwixbM4u-457" source="8_q-ypvE0YWIPZF5PDAi-7" target="TcHNZ0rZMPNNko7Z3j5H-1">
          <mxGeometry relative="1" as="geometry" />
        </mxCell>
        <mxCell id="TcHNZ0rZMPNNko7Z3j5H-9" style="edgeStyle=orthogonalEdgeStyle;rounded=0;orthogonalLoop=1;jettySize=auto;html=1;entryX=0.5;entryY=0;entryDx=0;entryDy=0;endArrow=open;startSize=14;endSize=5;sourcePerimeterSpacing=8;targetPerimeterSpacing=8;" edge="1" parent="0ok2K6wH5HigkwixbM4u-457" source="8_q-ypvE0YWIPZF5PDAi-7" target="8_q-ypvE0YWIPZF5PDAi-11">
          <mxGeometry relative="1" as="geometry" />
        </mxCell>
        <mxCell id="TcHNZ0rZMPNNko7Z3j5H-10" style="edgeStyle=orthogonalEdgeStyle;rounded=0;orthogonalLoop=1;jettySize=auto;html=1;entryX=0.5;entryY=0;entryDx=0;entryDy=0;endArrow=open;startSize=14;endSize=5;sourcePerimeterSpacing=8;targetPerimeterSpacing=8;" edge="1" parent="0ok2K6wH5HigkwixbM4u-457" source="8_q-ypvE0YWIPZF5PDAi-7" target="TcHNZ0rZMPNNko7Z3j5H-3">
          <mxGeometry relative="1" as="geometry" />
        </mxCell>
        <mxCell id="TcHNZ0rZMPNNko7Z3j5H-11" style="edgeStyle=orthogonalEdgeStyle;rounded=0;orthogonalLoop=1;jettySize=auto;html=1;entryX=0.5;entryY=0;entryDx=0;entryDy=0;endArrow=open;startSize=14;endSize=5;sourcePerimeterSpacing=8;targetPerimeterSpacing=8;" edge="1" parent="0ok2K6wH5HigkwixbM4u-457" source="8_q-ypvE0YWIPZF5PDAi-7" target="TcHNZ0rZMPNNko7Z3j5H-5">
          <mxGeometry relative="1" as="geometry">
            <Array as="points">
              <mxPoint x="140" y="220" />
              <mxPoint x="330" y="220" />
            </Array>
          </mxGeometry>
        </mxCell>
        <mxCell id="TcHNZ0rZMPNNko7Z3j5H-12" style="edgeStyle=orthogonalEdgeStyle;rounded=0;orthogonalLoop=1;jettySize=auto;html=1;entryX=0.5;entryY=0;entryDx=0;entryDy=0;endArrow=open;startSize=14;endSize=5;sourcePerimeterSpacing=8;targetPerimeterSpacing=8;" edge="1" parent="0ok2K6wH5HigkwixbM4u-457" source="8_q-ypvE0YWIPZF5PDAi-7" target="TcHNZ0rZMPNNko7Z3j5H-4">
          <mxGeometry relative="1" as="geometry">
            <Array as="points">
              <mxPoint x="140" y="220" />
              <mxPoint x="265" y="220" />
            </Array>
          </mxGeometry>
        </mxCell>
        <mxCell id="8_q-ypvE0YWIPZF5PDAi-7" value="&lt;font style=&quot;font-size: 10px&quot;&gt;&lt;b&gt;(10th Q) Please tell me what is your preferences?&lt;/b&gt;&lt;/font&gt;" style="shape=parallelogram;perimeter=parallelogramPerimeter;whiteSpace=wrap;html=1;fixedSize=1;hachureGap=4;pointerEvents=0;" parent="0ok2K6wH5HigkwixbM4u-457" vertex="1">
          <mxGeometry x="45" y="160" width="190" height="40" as="geometry" />
        </mxCell>
        <mxCell id="TcHNZ0rZMPNNko7Z3j5H-14" style="edgeStyle=orthogonalEdgeStyle;rounded=0;orthogonalLoop=1;jettySize=auto;html=1;entryX=0.5;entryY=0;entryDx=0;entryDy=0;endArrow=open;startSize=14;endSize=5;sourcePerimeterSpacing=8;targetPerimeterSpacing=8;" edge="1" parent="0ok2K6wH5HigkwixbM4u-457" source="8_q-ypvE0YWIPZF5PDAi-11" target="TcHNZ0rZMPNNko7Z3j5H-13">
          <mxGeometry relative="1" as="geometry">
            <Array as="points">
              <mxPoint x="30" y="320" />
              <mxPoint x="175" y="320" />
            </Array>
          </mxGeometry>
        </mxCell>
        <mxCell id="8_q-ypvE0YWIPZF5PDAi-11" value="&lt;span style=&quot;font-size: 10px&quot;&gt;&lt;b&gt;Personal Loans&lt;/b&gt;&lt;/span&gt;" style="rhombus;whiteSpace=wrap;html=1;hachureGap=4;pointerEvents=0;" parent="0ok2K6wH5HigkwixbM4u-457" vertex="1">
          <mxGeometry y="230" width="60" height="60" as="geometry" />
        </mxCell>
        <mxCell id="TcHNZ0rZMPNNko7Z3j5H-19" style="edgeStyle=orthogonalEdgeStyle;rounded=0;orthogonalLoop=1;jettySize=auto;html=1;entryX=0.5;entryY=0;entryDx=0;entryDy=0;endArrow=open;startSize=14;endSize=5;sourcePerimeterSpacing=8;targetPerimeterSpacing=8;" edge="1" parent="0ok2K6wH5HigkwixbM4u-457" source="TcHNZ0rZMPNNko7Z3j5H-5" target="TcHNZ0rZMPNNko7Z3j5H-13">
          <mxGeometry relative="1" as="geometry">
            <Array as="points">
              <mxPoint x="330" y="320" />
              <mxPoint x="175" y="320" />
            </Array>
          </mxGeometry>
        </mxCell>
        <mxCell id="TcHNZ0rZMPNNko7Z3j5H-5" value="&lt;span style=&quot;font-size: 10px&quot;&gt;&lt;b&gt;Car Loans&lt;/b&gt;&lt;/span&gt;" style="rhombus;whiteSpace=wrap;html=1;hachureGap=4;pointerEvents=0;" vertex="1" parent="0ok2K6wH5HigkwixbM4u-457">
          <mxGeometry x="300" y="230" width="60" height="60" as="geometry" />
        </mxCell>
        <mxCell id="TcHNZ0rZMPNNko7Z3j5H-18" style="edgeStyle=orthogonalEdgeStyle;rounded=0;orthogonalLoop=1;jettySize=auto;html=1;entryX=0.5;entryY=0;entryDx=0;entryDy=0;endArrow=open;startSize=14;endSize=5;sourcePerimeterSpacing=8;targetPerimeterSpacing=8;" edge="1" parent="0ok2K6wH5HigkwixbM4u-457" source="TcHNZ0rZMPNNko7Z3j5H-4" target="TcHNZ0rZMPNNko7Z3j5H-13">
          <mxGeometry relative="1" as="geometry" />
        </mxCell>
        <mxCell id="TcHNZ0rZMPNNko7Z3j5H-4" value="&lt;span style=&quot;font-size: 10px&quot;&gt;&lt;b&gt;Gold loans&lt;/b&gt;&lt;/span&gt;" style="rhombus;whiteSpace=wrap;html=1;hachureGap=4;pointerEvents=0;" vertex="1" parent="0ok2K6wH5HigkwixbM4u-457">
          <mxGeometry x="235" y="230" width="60" height="60" as="geometry" />
        </mxCell>
        <mxCell id="TcHNZ0rZMPNNko7Z3j5H-17" style="edgeStyle=orthogonalEdgeStyle;rounded=0;orthogonalLoop=1;jettySize=auto;html=1;entryX=0.5;entryY=0;entryDx=0;entryDy=0;endArrow=open;startSize=14;endSize=5;sourcePerimeterSpacing=8;targetPerimeterSpacing=8;" edge="1" parent="0ok2K6wH5HigkwixbM4u-457" source="TcHNZ0rZMPNNko7Z3j5H-3" target="TcHNZ0rZMPNNko7Z3j5H-13">
          <mxGeometry relative="1" as="geometry" />
        </mxCell>
        <mxCell id="TcHNZ0rZMPNNko7Z3j5H-3" value="&lt;span style=&quot;font-size: 10px&quot;&gt;&lt;b&gt;Small Business Loans&lt;/b&gt;&lt;/span&gt;" style="rhombus;whiteSpace=wrap;html=1;hachureGap=4;pointerEvents=0;" vertex="1" parent="0ok2K6wH5HigkwixbM4u-457">
          <mxGeometry x="175" y="230" width="60" height="60" as="geometry" />
        </mxCell>
        <mxCell id="TcHNZ0rZMPNNko7Z3j5H-16" style="edgeStyle=orthogonalEdgeStyle;rounded=0;orthogonalLoop=1;jettySize=auto;html=1;entryX=0.5;entryY=0;entryDx=0;entryDy=0;endArrow=open;startSize=14;endSize=5;sourcePerimeterSpacing=8;targetPerimeterSpacing=8;" edge="1" parent="0ok2K6wH5HigkwixbM4u-457" source="TcHNZ0rZMPNNko7Z3j5H-2" target="TcHNZ0rZMPNNko7Z3j5H-13">
          <mxGeometry relative="1" as="geometry" />
        </mxCell>
        <mxCell id="TcHNZ0rZMPNNko7Z3j5H-2" value="&lt;span style=&quot;font-size: 10px&quot;&gt;&lt;b&gt;Home-Equity Loans&lt;/b&gt;&lt;/span&gt;" style="rhombus;whiteSpace=wrap;html=1;hachureGap=4;pointerEvents=0;" vertex="1" parent="0ok2K6wH5HigkwixbM4u-457">
          <mxGeometry x="115" y="230" width="60" height="60" as="geometry" />
        </mxCell>
        <mxCell id="TcHNZ0rZMPNNko7Z3j5H-15" style="edgeStyle=orthogonalEdgeStyle;rounded=0;orthogonalLoop=1;jettySize=auto;html=1;entryX=0.5;entryY=0;entryDx=0;entryDy=0;endArrow=open;startSize=14;endSize=5;sourcePerimeterSpacing=8;targetPerimeterSpacing=8;" edge="1" parent="0ok2K6wH5HigkwixbM4u-457" source="TcHNZ0rZMPNNko7Z3j5H-1" target="TcHNZ0rZMPNNko7Z3j5H-13">
          <mxGeometry relative="1" as="geometry" />
        </mxCell>
        <mxCell id="TcHNZ0rZMPNNko7Z3j5H-1" value="&lt;span style=&quot;font-size: 10px&quot;&gt;&lt;b&gt;Credit Cards&lt;/b&gt;&lt;/span&gt;" style="rhombus;whiteSpace=wrap;html=1;hachureGap=4;pointerEvents=0;" vertex="1" parent="0ok2K6wH5HigkwixbM4u-457">
          <mxGeometry x="55" y="230" width="60" height="60" as="geometry" />
        </mxCell>
        <mxCell id="TcHNZ0rZMPNNko7Z3j5H-22" style="edgeStyle=orthogonalEdgeStyle;rounded=0;orthogonalLoop=1;jettySize=auto;html=1;entryX=0.5;entryY=0;entryDx=0;entryDy=0;endArrow=open;startSize=14;endSize=5;sourcePerimeterSpacing=8;targetPerimeterSpacing=8;" edge="1" parent="0ok2K6wH5HigkwixbM4u-457" source="TcHNZ0rZMPNNko7Z3j5H-13" target="TcHNZ0rZMPNNko7Z3j5H-20">
          <mxGeometry relative="1" as="geometry" />
        </mxCell>
        <mxCell id="TcHNZ0rZMPNNko7Z3j5H-23" style="edgeStyle=orthogonalEdgeStyle;rounded=0;orthogonalLoop=1;jettySize=auto;html=1;entryX=0.5;entryY=0;entryDx=0;entryDy=0;endArrow=open;startSize=14;endSize=5;sourcePerimeterSpacing=8;targetPerimeterSpacing=8;" edge="1" parent="0ok2K6wH5HigkwixbM4u-457" source="TcHNZ0rZMPNNko7Z3j5H-13" target="TcHNZ0rZMPNNko7Z3j5H-21">
          <mxGeometry relative="1" as="geometry" />
        </mxCell>
        <mxCell id="TcHNZ0rZMPNNko7Z3j5H-13" value="&lt;font style=&quot;font-size: 10px&quot;&gt;&lt;b&gt;(11th Q) What do you need?&lt;/b&gt;&lt;/font&gt;" style="shape=parallelogram;perimeter=parallelogramPerimeter;whiteSpace=wrap;html=1;fixedSize=1;hachureGap=4;pointerEvents=0;" vertex="1" parent="0ok2K6wH5HigkwixbM4u-457">
          <mxGeometry x="80" y="415" width="190" height="40" as="geometry" />
        </mxCell>
        <mxCell id="TcHNZ0rZMPNNko7Z3j5H-29" style="edgeStyle=orthogonalEdgeStyle;rounded=0;orthogonalLoop=1;jettySize=auto;html=1;entryX=0.5;entryY=0;entryDx=0;entryDy=0;endArrow=open;startSize=14;endSize=5;sourcePerimeterSpacing=8;targetPerimeterSpacing=8;" edge="1" parent="0ok2K6wH5HigkwixbM4u-457" source="TcHNZ0rZMPNNko7Z3j5H-20" target="TcHNZ0rZMPNNko7Z3j5H-27">
          <mxGeometry relative="1" as="geometry" />
        </mxCell>
        <mxCell id="TcHNZ0rZMPNNko7Z3j5H-20" value="&lt;span style=&quot;font-size: 10px&quot;&gt;&lt;b&gt;Apply for a Loan&lt;/b&gt;&lt;/span&gt;" style="rhombus;whiteSpace=wrap;html=1;hachureGap=4;pointerEvents=0;" vertex="1" parent="0ok2K6wH5HigkwixbM4u-457">
          <mxGeometry x="70" y="495" width="60" height="60" as="geometry" />
        </mxCell>
        <mxCell id="TcHNZ0rZMPNNko7Z3j5H-30" style="edgeStyle=orthogonalEdgeStyle;rounded=0;orthogonalLoop=1;jettySize=auto;html=1;entryX=0;entryY=0.5;entryDx=0;entryDy=0;endArrow=open;startSize=14;endSize=5;sourcePerimeterSpacing=8;targetPerimeterSpacing=8;" edge="1" parent="0ok2K6wH5HigkwixbM4u-457" source="TcHNZ0rZMPNNko7Z3j5H-21" target="TcHNZ0rZMPNNko7Z3j5H-28">
          <mxGeometry relative="1" as="geometry" />
        </mxCell>
        <mxCell id="TcHNZ0rZMPNNko7Z3j5H-21" value="&lt;span style=&quot;font-size: 10px&quot;&gt;&lt;b&gt;Details about Loan&lt;/b&gt;&lt;/span&gt;" style="rhombus;whiteSpace=wrap;html=1;hachureGap=4;pointerEvents=0;" vertex="1" parent="0ok2K6wH5HigkwixbM4u-457">
          <mxGeometry x="185" y="495" width="60" height="60" as="geometry" />
        </mxCell>
        <mxCell id="TcHNZ0rZMPNNko7Z3j5H-38" style="edgeStyle=orthogonalEdgeStyle;rounded=0;orthogonalLoop=1;jettySize=auto;html=1;entryX=0.5;entryY=0;entryDx=0;entryDy=0;endArrow=open;startSize=14;endSize=5;sourcePerimeterSpacing=8;targetPerimeterSpacing=8;" edge="1" parent="0ok2K6wH5HigkwixbM4u-457" source="TcHNZ0rZMPNNko7Z3j5H-27" target="TcHNZ0rZMPNNko7Z3j5H-35">
          <mxGeometry relative="1" as="geometry" />
        </mxCell>
        <mxCell id="TcHNZ0rZMPNNko7Z3j5H-27" value="&lt;font style=&quot;font-size: 10px&quot;&gt;&lt;b&gt;Display steps to apply a loan(6 difference types of loans)&lt;br&gt;&lt;/b&gt;&lt;/font&gt;" style="rounded=0;whiteSpace=wrap;html=1;hachureGap=4;pointerEvents=0;" vertex="1" parent="0ok2K6wH5HigkwixbM4u-457">
          <mxGeometry x="60" y="600" width="190" height="70" as="geometry" />
        </mxCell>
        <mxCell id="TcHNZ0rZMPNNko7Z3j5H-39" style="edgeStyle=orthogonalEdgeStyle;rounded=0;orthogonalLoop=1;jettySize=auto;html=1;entryX=0.5;entryY=0;entryDx=0;entryDy=0;endArrow=open;startSize=14;endSize=5;sourcePerimeterSpacing=8;targetPerimeterSpacing=8;" edge="1" parent="0ok2K6wH5HigkwixbM4u-457" source="TcHNZ0rZMPNNko7Z3j5H-28" target="TcHNZ0rZMPNNko7Z3j5H-35">
          <mxGeometry relative="1" as="geometry" />
        </mxCell>
        <mxCell id="TcHNZ0rZMPNNko7Z3j5H-28" value="&lt;font&gt;&lt;b style=&quot;font-size: 10px&quot;&gt;Display &lt;/b&gt;&lt;span style=&quot;font-size: 10px&quot;&gt;&lt;b&gt;details&lt;/b&gt;&lt;/span&gt;&lt;b style=&quot;font-size: 10px&quot;&gt;&amp;nbsp;about loans&lt;/b&gt;&lt;b style=&quot;font-size: 10px&quot;&gt;(6 difference types of loans)&lt;/b&gt;&lt;br&gt;&lt;/font&gt;" style="rounded=0;whiteSpace=wrap;html=1;hachureGap=4;pointerEvents=0;" vertex="1" parent="0ok2K6wH5HigkwixbM4u-457">
          <mxGeometry x="310" y="510" width="190" height="70" as="geometry" />
        </mxCell>
        <mxCell id="TcHNZ0rZMPNNko7Z3j5H-31" value="" style="rounded=0;whiteSpace=wrap;html=1;hachureGap=4;pointerEvents=0;fillColor=#8AF3FF;strokeWidth=3;dashed=1;" vertex="1" parent="0ok2K6wH5HigkwixbM4u-457">
          <mxGeometry x="60" y="760" width="480" height="90" as="geometry" />
        </mxCell>
        <mxCell id="TcHNZ0rZMPNNko7Z3j5H-32" value="&lt;span style=&quot;font-size: 10px&quot;&gt;&lt;b&gt;Are you satisfy about my service?&lt;/b&gt;&lt;/span&gt;" style="shape=parallelogram;perimeter=parallelogramPerimeter;whiteSpace=wrap;html=1;fixedSize=1;hachureGap=4;pointerEvents=0;" vertex="1" parent="0ok2K6wH5HigkwixbM4u-457">
          <mxGeometry x="202.5" y="785" width="190" height="40" as="geometry" />
        </mxCell>
        <mxCell id="TcHNZ0rZMPNNko7Z3j5H-33" value="same steps of (1st case)" style="text;html=1;align=center;verticalAlign=middle;resizable=0;points=[];autosize=1;strokeColor=none;fillColor=none;" vertex="1" parent="0ok2K6wH5HigkwixbM4u-457">
          <mxGeometry x="75" y="770" width="150" height="20" as="geometry" />
        </mxCell>
        <mxCell id="TcHNZ0rZMPNNko7Z3j5H-34" value="" style="rounded=0;whiteSpace=wrap;html=1;hachureGap=4;pointerEvents=0;fillColor=#8AF3FF;strokeWidth=3;dashed=1;" vertex="1" parent="0ok2K6wH5HigkwixbM4u-457">
          <mxGeometry x="60" y="760" width="480" height="90" as="geometry" />
        </mxCell>
        <mxCell id="TcHNZ0rZMPNNko7Z3j5H-35" value="&lt;span style=&quot;font-size: 10px&quot;&gt;&lt;b&gt;Are you satisfy about my service?&lt;/b&gt;&lt;/span&gt;" style="shape=parallelogram;perimeter=parallelogramPerimeter;whiteSpace=wrap;html=1;fixedSize=1;hachureGap=4;pointerEvents=0;" vertex="1" parent="0ok2K6wH5HigkwixbM4u-457">
          <mxGeometry x="202.5" y="785" width="190" height="40" as="geometry" />
        </mxCell>
        <mxCell id="TcHNZ0rZMPNNko7Z3j5H-36" value="same steps of (1st case)" style="text;html=1;align=center;verticalAlign=middle;resizable=0;points=[];autosize=1;strokeColor=none;fillColor=none;" vertex="1" parent="0ok2K6wH5HigkwixbM4u-457">
          <mxGeometry x="75" y="770" width="150" height="20" as="geometry" />
        </mxCell>
        <mxCell id="TcHNZ0rZMPNNko7Z3j5H-80" value="(6th Case) Leasing Facilities" style="swimlane;hachureGap=4;pointerEvents=0;fillColor=#8AF3FF;" vertex="1" parent="0ok2K6wH5HigkwixbM4u-317">
          <mxGeometry x="2200" y="20" width="550" height="970" as="geometry" />
        </mxCell>
        <mxCell id="TcHNZ0rZMPNNko7Z3j5H-81" style="edgeStyle=orthogonalEdgeStyle;rounded=0;orthogonalLoop=1;jettySize=auto;html=1;entryX=0.5;entryY=0;entryDx=0;entryDy=0;endArrow=open;startSize=14;endSize=5;sourcePerimeterSpacing=8;targetPerimeterSpacing=8;" edge="1" parent="TcHNZ0rZMPNNko7Z3j5H-80" source="TcHNZ0rZMPNNko7Z3j5H-82" target="TcHNZ0rZMPNNko7Z3j5H-90">
          <mxGeometry relative="1" as="geometry" />
        </mxCell>
        <mxCell id="TcHNZ0rZMPNNko7Z3j5H-82" value="&lt;font style=&quot;font-size: 10px&quot;&gt;&lt;b&gt;I need to know information about Leasing facilities?(leasing, leasing facility)&amp;nbsp;&lt;/b&gt;&lt;/font&gt;" style="ellipse;whiteSpace=wrap;html=1;hachureGap=4;pointerEvents=0;fillColor=#8AF3FF;" vertex="1" parent="TcHNZ0rZMPNNko7Z3j5H-80">
          <mxGeometry x="30" y="50" width="220" height="80" as="geometry" />
        </mxCell>
        <mxCell id="TcHNZ0rZMPNNko7Z3j5H-83" value="Reserved Words in This Section" style="swimlane;hachureGap=4;pointerEvents=0;" vertex="1" parent="TcHNZ0rZMPNNko7Z3j5H-80">
          <mxGeometry x="360" y="30" width="190" height="270" as="geometry" />
        </mxCell>
        <mxCell id="TcHNZ0rZMPNNko7Z3j5H-200" value="&lt;b style=&quot;font-size: 10px&quot;&gt;(12th Q)&lt;br&gt;&lt;/b&gt;&lt;b style=&quot;font-size: 10px&quot;&gt;leasing, &lt;br&gt;leasing facility&lt;/b&gt;&lt;span style=&quot;font-size: 10px&quot;&gt;&lt;b&gt;&lt;br&gt;&lt;/b&gt;&lt;/span&gt;" style="text;html=1;align=center;verticalAlign=middle;resizable=0;points=[];autosize=1;strokeColor=none;fillColor=none;" vertex="1" parent="TcHNZ0rZMPNNko7Z3j5H-83">
          <mxGeometry x="32.5" y="50" width="80" height="50" as="geometry" />
        </mxCell>
        <mxCell id="TcHNZ0rZMPNNko7Z3j5H-84" style="edgeStyle=orthogonalEdgeStyle;rounded=0;orthogonalLoop=1;jettySize=auto;html=1;entryX=0.5;entryY=0;entryDx=0;entryDy=0;endArrow=open;startSize=14;endSize=5;sourcePerimeterSpacing=8;targetPerimeterSpacing=8;" edge="1" parent="TcHNZ0rZMPNNko7Z3j5H-80" source="TcHNZ0rZMPNNko7Z3j5H-90" target="TcHNZ0rZMPNNko7Z3j5H-100">
          <mxGeometry relative="1" as="geometry" />
        </mxCell>
        <mxCell id="TcHNZ0rZMPNNko7Z3j5H-85" style="edgeStyle=orthogonalEdgeStyle;rounded=0;orthogonalLoop=1;jettySize=auto;html=1;entryX=0.5;entryY=0;entryDx=0;entryDy=0;endArrow=open;startSize=14;endSize=5;sourcePerimeterSpacing=8;targetPerimeterSpacing=8;" edge="1" parent="TcHNZ0rZMPNNko7Z3j5H-80" source="TcHNZ0rZMPNNko7Z3j5H-90" target="TcHNZ0rZMPNNko7Z3j5H-102">
          <mxGeometry relative="1" as="geometry" />
        </mxCell>
        <mxCell id="TcHNZ0rZMPNNko7Z3j5H-86" style="edgeStyle=orthogonalEdgeStyle;rounded=0;orthogonalLoop=1;jettySize=auto;html=1;entryX=0.5;entryY=0;entryDx=0;entryDy=0;endArrow=open;startSize=14;endSize=5;sourcePerimeterSpacing=8;targetPerimeterSpacing=8;" edge="1" parent="TcHNZ0rZMPNNko7Z3j5H-80" source="TcHNZ0rZMPNNko7Z3j5H-90" target="TcHNZ0rZMPNNko7Z3j5H-92">
          <mxGeometry relative="1" as="geometry" />
        </mxCell>
        <mxCell id="TcHNZ0rZMPNNko7Z3j5H-90" value="&lt;font style=&quot;font-size: 10px&quot;&gt;&lt;b&gt;(12th Q) Please tell me what is your preferences?&lt;/b&gt;&lt;/font&gt;" style="shape=parallelogram;perimeter=parallelogramPerimeter;whiteSpace=wrap;html=1;fixedSize=1;hachureGap=4;pointerEvents=0;" vertex="1" parent="TcHNZ0rZMPNNko7Z3j5H-80">
          <mxGeometry x="45" y="160" width="190" height="40" as="geometry" />
        </mxCell>
        <mxCell id="TcHNZ0rZMPNNko7Z3j5H-91" style="edgeStyle=orthogonalEdgeStyle;rounded=0;orthogonalLoop=1;jettySize=auto;html=1;entryX=0.5;entryY=0;entryDx=0;entryDy=0;endArrow=open;startSize=14;endSize=5;sourcePerimeterSpacing=8;targetPerimeterSpacing=8;" edge="1" parent="TcHNZ0rZMPNNko7Z3j5H-80" source="TcHNZ0rZMPNNko7Z3j5H-92" target="TcHNZ0rZMPNNko7Z3j5H-105">
          <mxGeometry relative="1" as="geometry">
            <Array as="points">
              <mxPoint x="75" y="320" />
              <mxPoint x="175" y="320" />
            </Array>
          </mxGeometry>
        </mxCell>
        <mxCell id="TcHNZ0rZMPNNko7Z3j5H-92" value="&lt;span style=&quot;font-size: 10px&quot;&gt;&lt;b&gt;Vehicle Leasing&lt;/b&gt;&lt;/span&gt;" style="rhombus;whiteSpace=wrap;html=1;hachureGap=4;pointerEvents=0;" vertex="1" parent="TcHNZ0rZMPNNko7Z3j5H-80">
          <mxGeometry x="45" y="230" width="60" height="60" as="geometry" />
        </mxCell>
        <mxCell id="TcHNZ0rZMPNNko7Z3j5H-99" style="edgeStyle=orthogonalEdgeStyle;rounded=0;orthogonalLoop=1;jettySize=auto;html=1;entryX=0.5;entryY=0;entryDx=0;entryDy=0;endArrow=open;startSize=14;endSize=5;sourcePerimeterSpacing=8;targetPerimeterSpacing=8;" edge="1" parent="TcHNZ0rZMPNNko7Z3j5H-80" source="TcHNZ0rZMPNNko7Z3j5H-100" target="TcHNZ0rZMPNNko7Z3j5H-105">
          <mxGeometry relative="1" as="geometry" />
        </mxCell>
        <mxCell id="TcHNZ0rZMPNNko7Z3j5H-100" value="&lt;font style=&quot;font-size: 10px&quot;&gt;&lt;b&gt;Operating leasing&lt;/b&gt;&lt;/font&gt;" style="rhombus;whiteSpace=wrap;html=1;hachureGap=4;pointerEvents=0;" vertex="1" parent="TcHNZ0rZMPNNko7Z3j5H-80">
          <mxGeometry x="250" y="240" width="60" height="60" as="geometry" />
        </mxCell>
        <mxCell id="TcHNZ0rZMPNNko7Z3j5H-101" style="edgeStyle=orthogonalEdgeStyle;rounded=0;orthogonalLoop=1;jettySize=auto;html=1;entryX=0.5;entryY=0;entryDx=0;entryDy=0;endArrow=open;startSize=14;endSize=5;sourcePerimeterSpacing=8;targetPerimeterSpacing=8;" edge="1" parent="TcHNZ0rZMPNNko7Z3j5H-80" source="TcHNZ0rZMPNNko7Z3j5H-102" target="TcHNZ0rZMPNNko7Z3j5H-105">
          <mxGeometry relative="1" as="geometry" />
        </mxCell>
        <mxCell id="TcHNZ0rZMPNNko7Z3j5H-102" value="&lt;font style=&quot;font-size: 10px&quot;&gt;&lt;b&gt;Finance leasing&lt;/b&gt;&lt;/font&gt;" style="rhombus;whiteSpace=wrap;html=1;hachureGap=4;pointerEvents=0;" vertex="1" parent="TcHNZ0rZMPNNko7Z3j5H-80">
          <mxGeometry x="145" y="230" width="60" height="60" as="geometry" />
        </mxCell>
        <mxCell id="TcHNZ0rZMPNNko7Z3j5H-103" style="edgeStyle=orthogonalEdgeStyle;rounded=0;orthogonalLoop=1;jettySize=auto;html=1;entryX=0.5;entryY=0;entryDx=0;entryDy=0;endArrow=open;startSize=14;endSize=5;sourcePerimeterSpacing=8;targetPerimeterSpacing=8;" edge="1" parent="TcHNZ0rZMPNNko7Z3j5H-80" source="TcHNZ0rZMPNNko7Z3j5H-105" target="TcHNZ0rZMPNNko7Z3j5H-107">
          <mxGeometry relative="1" as="geometry" />
        </mxCell>
        <mxCell id="TcHNZ0rZMPNNko7Z3j5H-104" style="edgeStyle=orthogonalEdgeStyle;rounded=0;orthogonalLoop=1;jettySize=auto;html=1;entryX=0.5;entryY=0;entryDx=0;entryDy=0;endArrow=open;startSize=14;endSize=5;sourcePerimeterSpacing=8;targetPerimeterSpacing=8;" edge="1" parent="TcHNZ0rZMPNNko7Z3j5H-80" source="TcHNZ0rZMPNNko7Z3j5H-105" target="TcHNZ0rZMPNNko7Z3j5H-109">
          <mxGeometry relative="1" as="geometry" />
        </mxCell>
        <mxCell id="TcHNZ0rZMPNNko7Z3j5H-105" value="&lt;font style=&quot;font-size: 10px&quot;&gt;&lt;b&gt;(13th Q) What do you need?&lt;/b&gt;&lt;/font&gt;" style="shape=parallelogram;perimeter=parallelogramPerimeter;whiteSpace=wrap;html=1;fixedSize=1;hachureGap=4;pointerEvents=0;" vertex="1" parent="TcHNZ0rZMPNNko7Z3j5H-80">
          <mxGeometry x="80" y="415" width="190" height="40" as="geometry" />
        </mxCell>
        <mxCell id="TcHNZ0rZMPNNko7Z3j5H-106" style="edgeStyle=orthogonalEdgeStyle;rounded=0;orthogonalLoop=1;jettySize=auto;html=1;entryX=0.5;entryY=0;entryDx=0;entryDy=0;endArrow=open;startSize=14;endSize=5;sourcePerimeterSpacing=8;targetPerimeterSpacing=8;" edge="1" parent="TcHNZ0rZMPNNko7Z3j5H-80" source="TcHNZ0rZMPNNko7Z3j5H-107" target="TcHNZ0rZMPNNko7Z3j5H-111">
          <mxGeometry relative="1" as="geometry" />
        </mxCell>
        <mxCell id="TcHNZ0rZMPNNko7Z3j5H-107" value="&lt;span style=&quot;font-size: 10px&quot;&gt;&lt;b&gt;Apply for a Lease&lt;/b&gt;&lt;/span&gt;" style="rhombus;whiteSpace=wrap;html=1;hachureGap=4;pointerEvents=0;" vertex="1" parent="TcHNZ0rZMPNNko7Z3j5H-80">
          <mxGeometry x="70" y="495" width="60" height="60" as="geometry" />
        </mxCell>
        <mxCell id="TcHNZ0rZMPNNko7Z3j5H-108" style="edgeStyle=orthogonalEdgeStyle;rounded=0;orthogonalLoop=1;jettySize=auto;html=1;entryX=0;entryY=0.5;entryDx=0;entryDy=0;endArrow=open;startSize=14;endSize=5;sourcePerimeterSpacing=8;targetPerimeterSpacing=8;" edge="1" parent="TcHNZ0rZMPNNko7Z3j5H-80" source="TcHNZ0rZMPNNko7Z3j5H-109" target="TcHNZ0rZMPNNko7Z3j5H-113">
          <mxGeometry relative="1" as="geometry" />
        </mxCell>
        <mxCell id="TcHNZ0rZMPNNko7Z3j5H-109" value="&lt;span style=&quot;font-size: 10px&quot;&gt;&lt;b&gt;Details about&amp;nbsp;&lt;/b&gt;&lt;/span&gt;&lt;b style=&quot;font-size: 10px&quot;&gt;Lease&lt;/b&gt;" style="rhombus;whiteSpace=wrap;html=1;hachureGap=4;pointerEvents=0;" vertex="1" parent="TcHNZ0rZMPNNko7Z3j5H-80">
          <mxGeometry x="185" y="495" width="60" height="60" as="geometry" />
        </mxCell>
        <mxCell id="TcHNZ0rZMPNNko7Z3j5H-110" style="edgeStyle=orthogonalEdgeStyle;rounded=0;orthogonalLoop=1;jettySize=auto;html=1;entryX=0.5;entryY=0;entryDx=0;entryDy=0;endArrow=open;startSize=14;endSize=5;sourcePerimeterSpacing=8;targetPerimeterSpacing=8;" edge="1" parent="TcHNZ0rZMPNNko7Z3j5H-80" source="TcHNZ0rZMPNNko7Z3j5H-111" target="TcHNZ0rZMPNNko7Z3j5H-118">
          <mxGeometry relative="1" as="geometry" />
        </mxCell>
        <mxCell id="TcHNZ0rZMPNNko7Z3j5H-111" value="&lt;font style=&quot;font-size: 10px&quot;&gt;&lt;b&gt;Display steps to apply a&amp;nbsp;&lt;/b&gt;&lt;b&gt;Lease&lt;/b&gt;&lt;b&gt;(3 difference types of loans)&lt;br&gt;&lt;/b&gt;&lt;/font&gt;" style="rounded=0;whiteSpace=wrap;html=1;hachureGap=4;pointerEvents=0;" vertex="1" parent="TcHNZ0rZMPNNko7Z3j5H-80">
          <mxGeometry x="60" y="600" width="190" height="70" as="geometry" />
        </mxCell>
        <mxCell id="TcHNZ0rZMPNNko7Z3j5H-112" style="edgeStyle=orthogonalEdgeStyle;rounded=0;orthogonalLoop=1;jettySize=auto;html=1;entryX=0.5;entryY=0;entryDx=0;entryDy=0;endArrow=open;startSize=14;endSize=5;sourcePerimeterSpacing=8;targetPerimeterSpacing=8;" edge="1" parent="TcHNZ0rZMPNNko7Z3j5H-80" source="TcHNZ0rZMPNNko7Z3j5H-113" target="TcHNZ0rZMPNNko7Z3j5H-118">
          <mxGeometry relative="1" as="geometry" />
        </mxCell>
        <mxCell id="TcHNZ0rZMPNNko7Z3j5H-113" value="&lt;font&gt;&lt;b style=&quot;font-size: 10px&quot;&gt;Display &lt;/b&gt;&lt;span style=&quot;font-size: 10px&quot;&gt;&lt;b&gt;details&lt;/b&gt;&lt;/span&gt;&lt;b style=&quot;font-size: 10px&quot;&gt;&amp;nbsp;about&amp;nbsp;&lt;/b&gt;&lt;b style=&quot;font-size: 10px&quot;&gt;Lease&lt;/b&gt;&lt;b style=&quot;font-size: 10px&quot;&gt;(3 difference types of loans)&lt;/b&gt;&lt;br&gt;&lt;/font&gt;" style="rounded=0;whiteSpace=wrap;html=1;hachureGap=4;pointerEvents=0;" vertex="1" parent="TcHNZ0rZMPNNko7Z3j5H-80">
          <mxGeometry x="310" y="510" width="190" height="70" as="geometry" />
        </mxCell>
        <mxCell id="TcHNZ0rZMPNNko7Z3j5H-114" value="" style="rounded=0;whiteSpace=wrap;html=1;hachureGap=4;pointerEvents=0;fillColor=#8AF3FF;strokeWidth=3;dashed=1;" vertex="1" parent="TcHNZ0rZMPNNko7Z3j5H-80">
          <mxGeometry x="60" y="760" width="480" height="90" as="geometry" />
        </mxCell>
        <mxCell id="TcHNZ0rZMPNNko7Z3j5H-115" value="&lt;span style=&quot;font-size: 10px&quot;&gt;&lt;b&gt;Are you satisfy about my service?&lt;/b&gt;&lt;/span&gt;" style="shape=parallelogram;perimeter=parallelogramPerimeter;whiteSpace=wrap;html=1;fixedSize=1;hachureGap=4;pointerEvents=0;" vertex="1" parent="TcHNZ0rZMPNNko7Z3j5H-80">
          <mxGeometry x="202.5" y="785" width="190" height="40" as="geometry" />
        </mxCell>
        <mxCell id="TcHNZ0rZMPNNko7Z3j5H-116" value="same steps of (1st case)" style="text;html=1;align=center;verticalAlign=middle;resizable=0;points=[];autosize=1;strokeColor=none;fillColor=none;" vertex="1" parent="TcHNZ0rZMPNNko7Z3j5H-80">
          <mxGeometry x="75" y="770" width="150" height="20" as="geometry" />
        </mxCell>
        <mxCell id="TcHNZ0rZMPNNko7Z3j5H-117" value="" style="rounded=0;whiteSpace=wrap;html=1;hachureGap=4;pointerEvents=0;fillColor=#8AF3FF;strokeWidth=3;dashed=1;" vertex="1" parent="TcHNZ0rZMPNNko7Z3j5H-80">
          <mxGeometry x="60" y="760" width="480" height="90" as="geometry" />
        </mxCell>
        <mxCell id="TcHNZ0rZMPNNko7Z3j5H-118" value="&lt;span style=&quot;font-size: 10px&quot;&gt;&lt;b&gt;Are you satisfy about my service?&lt;/b&gt;&lt;/span&gt;" style="shape=parallelogram;perimeter=parallelogramPerimeter;whiteSpace=wrap;html=1;fixedSize=1;hachureGap=4;pointerEvents=0;" vertex="1" parent="TcHNZ0rZMPNNko7Z3j5H-80">
          <mxGeometry x="202.5" y="785" width="190" height="40" as="geometry" />
        </mxCell>
        <mxCell id="TcHNZ0rZMPNNko7Z3j5H-119" value="same steps of (1st case)" style="text;html=1;align=center;verticalAlign=middle;resizable=0;points=[];autosize=1;strokeColor=none;fillColor=none;" vertex="1" parent="TcHNZ0rZMPNNko7Z3j5H-80">
          <mxGeometry x="75" y="770" width="150" height="20" as="geometry" />
        </mxCell>
        <mxCell id="TcHNZ0rZMPNNko7Z3j5H-120" value="(7th Case) Credit/Debit Cards" style="swimlane;hachureGap=4;pointerEvents=0;fillColor=#8AF3FF;" vertex="1" parent="0ok2K6wH5HigkwixbM4u-317">
          <mxGeometry x="2750" y="20" width="550" height="970" as="geometry" />
        </mxCell>
        <mxCell id="TcHNZ0rZMPNNko7Z3j5H-121" style="edgeStyle=orthogonalEdgeStyle;rounded=0;orthogonalLoop=1;jettySize=auto;html=1;entryX=0.5;entryY=0;entryDx=0;entryDy=0;endArrow=open;startSize=14;endSize=5;sourcePerimeterSpacing=8;targetPerimeterSpacing=8;" edge="1" parent="TcHNZ0rZMPNNko7Z3j5H-120" source="TcHNZ0rZMPNNko7Z3j5H-122" target="TcHNZ0rZMPNNko7Z3j5H-130">
          <mxGeometry relative="1" as="geometry" />
        </mxCell>
        <mxCell id="TcHNZ0rZMPNNko7Z3j5H-122" value="&lt;font style=&quot;font-size: 10px&quot;&gt;&lt;b&gt;I need a Debit/Credit card?(loans, loan, loan facilities, loan facility)&amp;nbsp;&lt;/b&gt;&lt;/font&gt;" style="ellipse;whiteSpace=wrap;html=1;hachureGap=4;pointerEvents=0;fillColor=#8AF3FF;" vertex="1" parent="TcHNZ0rZMPNNko7Z3j5H-120">
          <mxGeometry x="30" y="50" width="220" height="80" as="geometry" />
        </mxCell>
        <mxCell id="TcHNZ0rZMPNNko7Z3j5H-123" value="Reserved Words in This Section" style="swimlane;hachureGap=4;pointerEvents=0;" vertex="1" parent="TcHNZ0rZMPNNko7Z3j5H-120">
          <mxGeometry x="360" y="30" width="190" height="270" as="geometry" />
        </mxCell>
        <mxCell id="TcHNZ0rZMPNNko7Z3j5H-201" value="&lt;b style=&quot;font-size: 10px&quot;&gt;(11th Q)&lt;br&gt;&lt;/b&gt;&lt;b style=&quot;font-size: 10px&quot;&gt;leasing, &lt;br&gt;leasing facility&lt;/b&gt;&lt;span style=&quot;font-size: 10px&quot;&gt;&lt;b&gt;&lt;br&gt;&lt;/b&gt;&lt;/span&gt;" style="text;html=1;align=center;verticalAlign=middle;resizable=0;points=[];autosize=1;strokeColor=none;fillColor=none;" vertex="1" parent="TcHNZ0rZMPNNko7Z3j5H-123">
          <mxGeometry x="32.5" y="50" width="80" height="50" as="geometry" />
        </mxCell>
        <mxCell id="TcHNZ0rZMPNNko7Z3j5H-125" style="edgeStyle=orthogonalEdgeStyle;rounded=0;orthogonalLoop=1;jettySize=auto;html=1;entryX=0.5;entryY=0;entryDx=0;entryDy=0;endArrow=open;startSize=14;endSize=5;sourcePerimeterSpacing=8;targetPerimeterSpacing=8;" edge="1" parent="TcHNZ0rZMPNNko7Z3j5H-120" source="TcHNZ0rZMPNNko7Z3j5H-130" target="TcHNZ0rZMPNNko7Z3j5H-142">
          <mxGeometry relative="1" as="geometry" />
        </mxCell>
        <mxCell id="TcHNZ0rZMPNNko7Z3j5H-127" style="edgeStyle=orthogonalEdgeStyle;rounded=0;orthogonalLoop=1;jettySize=auto;html=1;entryX=0.5;entryY=0;entryDx=0;entryDy=0;endArrow=open;startSize=14;endSize=5;sourcePerimeterSpacing=8;targetPerimeterSpacing=8;" edge="1" parent="TcHNZ0rZMPNNko7Z3j5H-120" source="TcHNZ0rZMPNNko7Z3j5H-130" target="TcHNZ0rZMPNNko7Z3j5H-138">
          <mxGeometry relative="1" as="geometry" />
        </mxCell>
        <mxCell id="TcHNZ0rZMPNNko7Z3j5H-130" value="&lt;font style=&quot;font-size: 10px&quot;&gt;&lt;b&gt;(14th Q) What Type of card you need?&lt;/b&gt;&lt;/font&gt;" style="shape=parallelogram;perimeter=parallelogramPerimeter;whiteSpace=wrap;html=1;fixedSize=1;hachureGap=4;pointerEvents=0;" vertex="1" parent="TcHNZ0rZMPNNko7Z3j5H-120">
          <mxGeometry x="45" y="160" width="190" height="40" as="geometry" />
        </mxCell>
        <mxCell id="TcHNZ0rZMPNNko7Z3j5H-208" style="edgeStyle=orthogonalEdgeStyle;rounded=0;orthogonalLoop=1;jettySize=auto;html=1;entryX=0.542;entryY=-0.033;entryDx=0;entryDy=0;entryPerimeter=0;endArrow=open;startSize=14;endSize=5;sourcePerimeterSpacing=8;targetPerimeterSpacing=8;" edge="1" parent="TcHNZ0rZMPNNko7Z3j5H-120" source="TcHNZ0rZMPNNko7Z3j5H-138" target="TcHNZ0rZMPNNko7Z3j5H-205">
          <mxGeometry relative="1" as="geometry">
            <Array as="points">
              <mxPoint x="205" y="340" />
              <mxPoint x="403" y="340" />
            </Array>
          </mxGeometry>
        </mxCell>
        <mxCell id="TcHNZ0rZMPNNko7Z3j5H-138" value="&lt;span style=&quot;font-size: 10px&quot;&gt;&lt;b&gt;Debit Card&lt;/b&gt;&lt;/span&gt;" style="rhombus;whiteSpace=wrap;html=1;hachureGap=4;pointerEvents=0;" vertex="1" parent="TcHNZ0rZMPNNko7Z3j5H-120">
          <mxGeometry x="175" y="230" width="60" height="60" as="geometry" />
        </mxCell>
        <mxCell id="TcHNZ0rZMPNNko7Z3j5H-141" style="edgeStyle=orthogonalEdgeStyle;rounded=0;orthogonalLoop=1;jettySize=auto;html=1;entryX=0.5;entryY=0;entryDx=0;entryDy=0;endArrow=open;startSize=14;endSize=5;sourcePerimeterSpacing=8;targetPerimeterSpacing=8;" edge="1" parent="TcHNZ0rZMPNNko7Z3j5H-120" source="TcHNZ0rZMPNNko7Z3j5H-142" target="TcHNZ0rZMPNNko7Z3j5H-145">
          <mxGeometry relative="1" as="geometry" />
        </mxCell>
        <mxCell id="TcHNZ0rZMPNNko7Z3j5H-142" value="&lt;span style=&quot;font-size: 10px&quot;&gt;&lt;b&gt;Credit Card&lt;/b&gt;&lt;/span&gt;" style="rhombus;whiteSpace=wrap;html=1;hachureGap=4;pointerEvents=0;" vertex="1" parent="TcHNZ0rZMPNNko7Z3j5H-120">
          <mxGeometry x="55" y="230" width="60" height="60" as="geometry" />
        </mxCell>
        <mxCell id="TcHNZ0rZMPNNko7Z3j5H-143" style="edgeStyle=orthogonalEdgeStyle;rounded=0;orthogonalLoop=1;jettySize=auto;html=1;entryX=0.5;entryY=0;entryDx=0;entryDy=0;endArrow=open;startSize=14;endSize=5;sourcePerimeterSpacing=8;targetPerimeterSpacing=8;" edge="1" parent="TcHNZ0rZMPNNko7Z3j5H-120" source="TcHNZ0rZMPNNko7Z3j5H-145" target="TcHNZ0rZMPNNko7Z3j5H-147">
          <mxGeometry relative="1" as="geometry" />
        </mxCell>
        <mxCell id="TcHNZ0rZMPNNko7Z3j5H-144" style="edgeStyle=orthogonalEdgeStyle;rounded=0;orthogonalLoop=1;jettySize=auto;html=1;entryX=0.5;entryY=0;entryDx=0;entryDy=0;endArrow=open;startSize=14;endSize=5;sourcePerimeterSpacing=8;targetPerimeterSpacing=8;" edge="1" parent="TcHNZ0rZMPNNko7Z3j5H-120" source="TcHNZ0rZMPNNko7Z3j5H-145" target="TcHNZ0rZMPNNko7Z3j5H-149">
          <mxGeometry relative="1" as="geometry" />
        </mxCell>
        <mxCell id="TcHNZ0rZMPNNko7Z3j5H-145" value="&lt;font style=&quot;font-size: 10px&quot;&gt;&lt;b&gt;(11th Q) What do you need?&lt;/b&gt;&lt;/font&gt;" style="shape=parallelogram;perimeter=parallelogramPerimeter;whiteSpace=wrap;html=1;fixedSize=1;hachureGap=4;pointerEvents=0;" vertex="1" parent="TcHNZ0rZMPNNko7Z3j5H-120">
          <mxGeometry x="45" y="370" width="190" height="40" as="geometry" />
        </mxCell>
        <mxCell id="TcHNZ0rZMPNNko7Z3j5H-146" style="edgeStyle=orthogonalEdgeStyle;rounded=0;orthogonalLoop=1;jettySize=auto;html=1;entryX=0.5;entryY=0;entryDx=0;entryDy=0;endArrow=open;startSize=14;endSize=5;sourcePerimeterSpacing=8;targetPerimeterSpacing=8;" edge="1" parent="TcHNZ0rZMPNNko7Z3j5H-120" source="TcHNZ0rZMPNNko7Z3j5H-147" target="TcHNZ0rZMPNNko7Z3j5H-151">
          <mxGeometry relative="1" as="geometry" />
        </mxCell>
        <mxCell id="TcHNZ0rZMPNNko7Z3j5H-147" value="&lt;span style=&quot;font-size: 10px&quot;&gt;&lt;b&gt;Apply for a Credit Card&lt;/b&gt;&lt;/span&gt;" style="rhombus;whiteSpace=wrap;html=1;hachureGap=4;pointerEvents=0;" vertex="1" parent="TcHNZ0rZMPNNko7Z3j5H-120">
          <mxGeometry x="70" y="495" width="60" height="60" as="geometry" />
        </mxCell>
        <mxCell id="TcHNZ0rZMPNNko7Z3j5H-148" style="edgeStyle=orthogonalEdgeStyle;rounded=0;orthogonalLoop=1;jettySize=auto;html=1;entryX=0;entryY=0.5;entryDx=0;entryDy=0;endArrow=open;startSize=14;endSize=5;sourcePerimeterSpacing=8;targetPerimeterSpacing=8;shadow=1;" edge="1" parent="TcHNZ0rZMPNNko7Z3j5H-120" source="TcHNZ0rZMPNNko7Z3j5H-149" target="TcHNZ0rZMPNNko7Z3j5H-153">
          <mxGeometry relative="1" as="geometry" />
        </mxCell>
        <mxCell id="TcHNZ0rZMPNNko7Z3j5H-149" value="&lt;span style=&quot;font-size: 10px&quot;&gt;&lt;b&gt;Details about&amp;nbsp;&lt;/b&gt;&lt;/span&gt;&lt;b style=&quot;font-size: 10px&quot;&gt;Credit Card&lt;/b&gt;" style="rhombus;whiteSpace=wrap;html=1;hachureGap=4;pointerEvents=0;" vertex="1" parent="TcHNZ0rZMPNNko7Z3j5H-120">
          <mxGeometry x="185" y="495" width="60" height="60" as="geometry" />
        </mxCell>
        <mxCell id="TcHNZ0rZMPNNko7Z3j5H-150" style="edgeStyle=orthogonalEdgeStyle;rounded=0;orthogonalLoop=1;jettySize=auto;html=1;entryX=0.5;entryY=0;entryDx=0;entryDy=0;endArrow=open;startSize=14;endSize=5;sourcePerimeterSpacing=8;targetPerimeterSpacing=8;" edge="1" parent="TcHNZ0rZMPNNko7Z3j5H-120" source="TcHNZ0rZMPNNko7Z3j5H-151" target="TcHNZ0rZMPNNko7Z3j5H-158">
          <mxGeometry relative="1" as="geometry" />
        </mxCell>
        <mxCell id="TcHNZ0rZMPNNko7Z3j5H-151" value="&lt;font style=&quot;font-size: 10px&quot;&gt;&lt;b&gt;Display steps to apply a cards(6 difference types of loans)&lt;br&gt;&lt;/b&gt;&lt;/font&gt;" style="rounded=0;whiteSpace=wrap;html=1;hachureGap=4;pointerEvents=0;" vertex="1" parent="TcHNZ0rZMPNNko7Z3j5H-120">
          <mxGeometry x="60" y="600" width="190" height="70" as="geometry" />
        </mxCell>
        <mxCell id="TcHNZ0rZMPNNko7Z3j5H-152" style="edgeStyle=orthogonalEdgeStyle;rounded=0;orthogonalLoop=1;jettySize=auto;html=1;entryX=0.5;entryY=0;entryDx=0;entryDy=0;endArrow=open;startSize=14;endSize=5;sourcePerimeterSpacing=8;targetPerimeterSpacing=8;" edge="1" parent="TcHNZ0rZMPNNko7Z3j5H-120" source="TcHNZ0rZMPNNko7Z3j5H-153" target="TcHNZ0rZMPNNko7Z3j5H-158">
          <mxGeometry relative="1" as="geometry" />
        </mxCell>
        <mxCell id="TcHNZ0rZMPNNko7Z3j5H-153" value="&lt;font&gt;&lt;b style=&quot;font-size: 10px&quot;&gt;Display &lt;/b&gt;&lt;span style=&quot;font-size: 10px&quot;&gt;&lt;b&gt;details&lt;/b&gt;&lt;/span&gt;&lt;b style=&quot;font-size: 10px&quot;&gt;&amp;nbsp;about cards&lt;/b&gt;&lt;b style=&quot;font-size: 10px&quot;&gt;(6 difference types of loans)&lt;/b&gt;&lt;br&gt;&lt;/font&gt;" style="rounded=0;whiteSpace=wrap;html=1;hachureGap=4;pointerEvents=0;" vertex="1" parent="TcHNZ0rZMPNNko7Z3j5H-120">
          <mxGeometry x="310" y="610" width="190" height="70" as="geometry" />
        </mxCell>
        <mxCell id="TcHNZ0rZMPNNko7Z3j5H-154" value="" style="rounded=0;whiteSpace=wrap;html=1;hachureGap=4;pointerEvents=0;fillColor=#8AF3FF;strokeWidth=3;dashed=1;" vertex="1" parent="TcHNZ0rZMPNNko7Z3j5H-120">
          <mxGeometry x="60" y="760" width="480" height="90" as="geometry" />
        </mxCell>
        <mxCell id="TcHNZ0rZMPNNko7Z3j5H-155" value="&lt;span style=&quot;font-size: 10px&quot;&gt;&lt;b&gt;Are you satisfy about my service?&lt;/b&gt;&lt;/span&gt;" style="shape=parallelogram;perimeter=parallelogramPerimeter;whiteSpace=wrap;html=1;fixedSize=1;hachureGap=4;pointerEvents=0;" vertex="1" parent="TcHNZ0rZMPNNko7Z3j5H-120">
          <mxGeometry x="202.5" y="785" width="190" height="40" as="geometry" />
        </mxCell>
        <mxCell id="TcHNZ0rZMPNNko7Z3j5H-156" value="same steps of (1st case)" style="text;html=1;align=center;verticalAlign=middle;resizable=0;points=[];autosize=1;strokeColor=none;fillColor=none;" vertex="1" parent="TcHNZ0rZMPNNko7Z3j5H-120">
          <mxGeometry x="75" y="770" width="150" height="20" as="geometry" />
        </mxCell>
        <mxCell id="TcHNZ0rZMPNNko7Z3j5H-157" value="" style="rounded=0;whiteSpace=wrap;html=1;hachureGap=4;pointerEvents=0;fillColor=#8AF3FF;strokeWidth=3;dashed=1;" vertex="1" parent="TcHNZ0rZMPNNko7Z3j5H-120">
          <mxGeometry x="60" y="760" width="480" height="90" as="geometry" />
        </mxCell>
        <mxCell id="TcHNZ0rZMPNNko7Z3j5H-158" value="&lt;span style=&quot;font-size: 10px&quot;&gt;&lt;b&gt;Are you satisfy about my service?&lt;/b&gt;&lt;/span&gt;" style="shape=parallelogram;perimeter=parallelogramPerimeter;whiteSpace=wrap;html=1;fixedSize=1;hachureGap=4;pointerEvents=0;" vertex="1" parent="TcHNZ0rZMPNNko7Z3j5H-120">
          <mxGeometry x="202.5" y="785" width="190" height="40" as="geometry" />
        </mxCell>
        <mxCell id="TcHNZ0rZMPNNko7Z3j5H-159" value="same steps of (1st case)" style="text;html=1;align=center;verticalAlign=middle;resizable=0;points=[];autosize=1;strokeColor=none;fillColor=none;" vertex="1" parent="TcHNZ0rZMPNNko7Z3j5H-120">
          <mxGeometry x="75" y="770" width="150" height="20" as="geometry" />
        </mxCell>
        <mxCell id="TcHNZ0rZMPNNko7Z3j5H-205" value="&lt;font style=&quot;font-size: 10px&quot;&gt;&lt;b&gt;(11th Q) What do you need?&lt;/b&gt;&lt;/font&gt;" style="shape=parallelogram;perimeter=parallelogramPerimeter;whiteSpace=wrap;html=1;fixedSize=1;hachureGap=4;pointerEvents=0;" vertex="1" parent="TcHNZ0rZMPNNko7Z3j5H-120">
          <mxGeometry x="300" y="370" width="190" height="40" as="geometry" />
        </mxCell>
        <mxCell id="TcHNZ0rZMPNNko7Z3j5H-212" style="edgeStyle=orthogonalEdgeStyle;rounded=0;orthogonalLoop=1;jettySize=auto;html=1;entryX=0.75;entryY=0;entryDx=0;entryDy=0;endArrow=open;startSize=14;endSize=5;sourcePerimeterSpacing=8;targetPerimeterSpacing=8;" edge="1" parent="TcHNZ0rZMPNNko7Z3j5H-120" source="TcHNZ0rZMPNNko7Z3j5H-206" target="TcHNZ0rZMPNNko7Z3j5H-151">
          <mxGeometry relative="1" as="geometry">
            <Array as="points">
              <mxPoint x="355" y="580" />
              <mxPoint x="203" y="580" />
            </Array>
          </mxGeometry>
        </mxCell>
        <mxCell id="TcHNZ0rZMPNNko7Z3j5H-206" value="&lt;span style=&quot;font-size: 10px&quot;&gt;&lt;b&gt;Apply for a Credit Card&lt;/b&gt;&lt;/span&gt;" style="rhombus;whiteSpace=wrap;html=1;hachureGap=4;pointerEvents=0;" vertex="1" parent="TcHNZ0rZMPNNko7Z3j5H-120">
          <mxGeometry x="325" y="495" width="60" height="60" as="geometry" />
        </mxCell>
        <mxCell id="TcHNZ0rZMPNNko7Z3j5H-203" style="edgeStyle=orthogonalEdgeStyle;rounded=0;orthogonalLoop=1;jettySize=auto;html=1;entryX=0.5;entryY=0;entryDx=0;entryDy=0;endArrow=open;startSize=14;endSize=5;sourcePerimeterSpacing=8;targetPerimeterSpacing=8;" edge="1" parent="TcHNZ0rZMPNNko7Z3j5H-120" source="TcHNZ0rZMPNNko7Z3j5H-205" target="TcHNZ0rZMPNNko7Z3j5H-206">
          <mxGeometry relative="1" as="geometry" />
        </mxCell>
        <mxCell id="TcHNZ0rZMPNNko7Z3j5H-211" style="edgeStyle=orthogonalEdgeStyle;rounded=0;orthogonalLoop=1;jettySize=auto;html=1;entryX=0.5;entryY=0;entryDx=0;entryDy=0;endArrow=open;startSize=14;endSize=5;sourcePerimeterSpacing=8;targetPerimeterSpacing=8;" edge="1" parent="TcHNZ0rZMPNNko7Z3j5H-120" source="TcHNZ0rZMPNNko7Z3j5H-207" target="TcHNZ0rZMPNNko7Z3j5H-153">
          <mxGeometry relative="1" as="geometry" />
        </mxCell>
        <mxCell id="TcHNZ0rZMPNNko7Z3j5H-207" value="&lt;span style=&quot;font-size: 10px&quot;&gt;&lt;b&gt;Details about&amp;nbsp;&lt;/b&gt;&lt;/span&gt;&lt;b style=&quot;font-size: 10px&quot;&gt;Credit Card&lt;/b&gt;" style="rhombus;whiteSpace=wrap;html=1;hachureGap=4;pointerEvents=0;" vertex="1" parent="TcHNZ0rZMPNNko7Z3j5H-120">
          <mxGeometry x="440" y="495" width="60" height="60" as="geometry" />
        </mxCell>
        <mxCell id="TcHNZ0rZMPNNko7Z3j5H-204" style="edgeStyle=orthogonalEdgeStyle;rounded=0;orthogonalLoop=1;jettySize=auto;html=1;entryX=0.5;entryY=0;entryDx=0;entryDy=0;endArrow=open;startSize=14;endSize=5;sourcePerimeterSpacing=8;targetPerimeterSpacing=8;" edge="1" parent="TcHNZ0rZMPNNko7Z3j5H-120" source="TcHNZ0rZMPNNko7Z3j5H-205" target="TcHNZ0rZMPNNko7Z3j5H-207">
          <mxGeometry relative="1" as="geometry" />
        </mxCell>
        <mxCell id="TcHNZ0rZMPNNko7Z3j5H-160" value="(8th Case) Loan Facilities" style="swimlane;hachureGap=4;pointerEvents=0;fillColor=#8AF3FF;" vertex="1" parent="0ok2K6wH5HigkwixbM4u-317">
          <mxGeometry x="3300" y="20" width="550" height="970" as="geometry" />
        </mxCell>
        <mxCell id="TcHNZ0rZMPNNko7Z3j5H-161" style="edgeStyle=orthogonalEdgeStyle;rounded=0;orthogonalLoop=1;jettySize=auto;html=1;entryX=0.5;entryY=0;entryDx=0;entryDy=0;endArrow=open;startSize=14;endSize=5;sourcePerimeterSpacing=8;targetPerimeterSpacing=8;" edge="1" parent="TcHNZ0rZMPNNko7Z3j5H-160" source="TcHNZ0rZMPNNko7Z3j5H-162" target="TcHNZ0rZMPNNko7Z3j5H-170">
          <mxGeometry relative="1" as="geometry" />
        </mxCell>
        <mxCell id="TcHNZ0rZMPNNko7Z3j5H-162" value="&lt;font style=&quot;font-size: 10px&quot;&gt;&lt;b&gt;I need to know information about loan facilities?(loans, loan, loan facilities, loan facility)&amp;nbsp;&lt;/b&gt;&lt;/font&gt;" style="ellipse;whiteSpace=wrap;html=1;hachureGap=4;pointerEvents=0;fillColor=#8AF3FF;" vertex="1" parent="TcHNZ0rZMPNNko7Z3j5H-160">
          <mxGeometry x="30" y="50" width="220" height="80" as="geometry" />
        </mxCell>
        <mxCell id="TcHNZ0rZMPNNko7Z3j5H-163" value="Reserved Words in This Section" style="swimlane;hachureGap=4;pointerEvents=0;" vertex="1" parent="TcHNZ0rZMPNNko7Z3j5H-160">
          <mxGeometry x="360" y="30" width="190" height="270" as="geometry" />
        </mxCell>
        <mxCell id="TcHNZ0rZMPNNko7Z3j5H-202" value="&lt;b style=&quot;font-size: 10px&quot;&gt;(11th Q)&lt;br&gt;&lt;/b&gt;&lt;b style=&quot;font-size: 10px&quot;&gt;leasing, &lt;br&gt;leasing facility&lt;/b&gt;&lt;span style=&quot;font-size: 10px&quot;&gt;&lt;b&gt;&lt;br&gt;&lt;/b&gt;&lt;/span&gt;" style="text;html=1;align=center;verticalAlign=middle;resizable=0;points=[];autosize=1;strokeColor=none;fillColor=none;" vertex="1" parent="TcHNZ0rZMPNNko7Z3j5H-163">
          <mxGeometry x="40" y="50" width="80" height="50" as="geometry" />
        </mxCell>
        <mxCell id="TcHNZ0rZMPNNko7Z3j5H-164" style="edgeStyle=orthogonalEdgeStyle;rounded=0;orthogonalLoop=1;jettySize=auto;html=1;entryX=0.5;entryY=0;entryDx=0;entryDy=0;endArrow=open;startSize=14;endSize=5;sourcePerimeterSpacing=8;targetPerimeterSpacing=8;" edge="1" parent="TcHNZ0rZMPNNko7Z3j5H-160" source="TcHNZ0rZMPNNko7Z3j5H-170" target="TcHNZ0rZMPNNko7Z3j5H-180">
          <mxGeometry relative="1" as="geometry" />
        </mxCell>
        <mxCell id="TcHNZ0rZMPNNko7Z3j5H-165" style="edgeStyle=orthogonalEdgeStyle;rounded=0;orthogonalLoop=1;jettySize=auto;html=1;entryX=0.5;entryY=0;entryDx=0;entryDy=0;endArrow=open;startSize=14;endSize=5;sourcePerimeterSpacing=8;targetPerimeterSpacing=8;" edge="1" parent="TcHNZ0rZMPNNko7Z3j5H-160" source="TcHNZ0rZMPNNko7Z3j5H-170" target="TcHNZ0rZMPNNko7Z3j5H-182">
          <mxGeometry relative="1" as="geometry" />
        </mxCell>
        <mxCell id="TcHNZ0rZMPNNko7Z3j5H-166" style="edgeStyle=orthogonalEdgeStyle;rounded=0;orthogonalLoop=1;jettySize=auto;html=1;entryX=0.5;entryY=0;entryDx=0;entryDy=0;endArrow=open;startSize=14;endSize=5;sourcePerimeterSpacing=8;targetPerimeterSpacing=8;" edge="1" parent="TcHNZ0rZMPNNko7Z3j5H-160" source="TcHNZ0rZMPNNko7Z3j5H-170" target="TcHNZ0rZMPNNko7Z3j5H-172">
          <mxGeometry relative="1" as="geometry" />
        </mxCell>
        <mxCell id="TcHNZ0rZMPNNko7Z3j5H-167" style="edgeStyle=orthogonalEdgeStyle;rounded=0;orthogonalLoop=1;jettySize=auto;html=1;entryX=0.5;entryY=0;entryDx=0;entryDy=0;endArrow=open;startSize=14;endSize=5;sourcePerimeterSpacing=8;targetPerimeterSpacing=8;" edge="1" parent="TcHNZ0rZMPNNko7Z3j5H-160" source="TcHNZ0rZMPNNko7Z3j5H-170" target="TcHNZ0rZMPNNko7Z3j5H-178">
          <mxGeometry relative="1" as="geometry" />
        </mxCell>
        <mxCell id="TcHNZ0rZMPNNko7Z3j5H-168" style="edgeStyle=orthogonalEdgeStyle;rounded=0;orthogonalLoop=1;jettySize=auto;html=1;entryX=0.5;entryY=0;entryDx=0;entryDy=0;endArrow=open;startSize=14;endSize=5;sourcePerimeterSpacing=8;targetPerimeterSpacing=8;" edge="1" parent="TcHNZ0rZMPNNko7Z3j5H-160" source="TcHNZ0rZMPNNko7Z3j5H-170" target="TcHNZ0rZMPNNko7Z3j5H-174">
          <mxGeometry relative="1" as="geometry">
            <Array as="points">
              <mxPoint x="140" y="220" />
              <mxPoint x="330" y="220" />
            </Array>
          </mxGeometry>
        </mxCell>
        <mxCell id="TcHNZ0rZMPNNko7Z3j5H-169" style="edgeStyle=orthogonalEdgeStyle;rounded=0;orthogonalLoop=1;jettySize=auto;html=1;entryX=0.5;entryY=0;entryDx=0;entryDy=0;endArrow=open;startSize=14;endSize=5;sourcePerimeterSpacing=8;targetPerimeterSpacing=8;" edge="1" parent="TcHNZ0rZMPNNko7Z3j5H-160" source="TcHNZ0rZMPNNko7Z3j5H-170" target="TcHNZ0rZMPNNko7Z3j5H-176">
          <mxGeometry relative="1" as="geometry">
            <Array as="points">
              <mxPoint x="140" y="220" />
              <mxPoint x="265" y="220" />
            </Array>
          </mxGeometry>
        </mxCell>
        <mxCell id="TcHNZ0rZMPNNko7Z3j5H-170" value="&lt;font style=&quot;font-size: 10px&quot;&gt;&lt;b&gt;(10th Q) Please tell me what is your preferences?&lt;/b&gt;&lt;/font&gt;" style="shape=parallelogram;perimeter=parallelogramPerimeter;whiteSpace=wrap;html=1;fixedSize=1;hachureGap=4;pointerEvents=0;" vertex="1" parent="TcHNZ0rZMPNNko7Z3j5H-160">
          <mxGeometry x="45" y="160" width="190" height="40" as="geometry" />
        </mxCell>
        <mxCell id="TcHNZ0rZMPNNko7Z3j5H-171" style="edgeStyle=orthogonalEdgeStyle;rounded=0;orthogonalLoop=1;jettySize=auto;html=1;entryX=0.5;entryY=0;entryDx=0;entryDy=0;endArrow=open;startSize=14;endSize=5;sourcePerimeterSpacing=8;targetPerimeterSpacing=8;" edge="1" parent="TcHNZ0rZMPNNko7Z3j5H-160" source="TcHNZ0rZMPNNko7Z3j5H-172" target="TcHNZ0rZMPNNko7Z3j5H-185">
          <mxGeometry relative="1" as="geometry">
            <Array as="points">
              <mxPoint x="30" y="320" />
              <mxPoint x="175" y="320" />
            </Array>
          </mxGeometry>
        </mxCell>
        <mxCell id="TcHNZ0rZMPNNko7Z3j5H-172" value="&lt;span style=&quot;font-size: 10px&quot;&gt;&lt;b&gt;Personal Loans&lt;/b&gt;&lt;/span&gt;" style="rhombus;whiteSpace=wrap;html=1;hachureGap=4;pointerEvents=0;" vertex="1" parent="TcHNZ0rZMPNNko7Z3j5H-160">
          <mxGeometry y="230" width="60" height="60" as="geometry" />
        </mxCell>
        <mxCell id="TcHNZ0rZMPNNko7Z3j5H-173" style="edgeStyle=orthogonalEdgeStyle;rounded=0;orthogonalLoop=1;jettySize=auto;html=1;entryX=0.5;entryY=0;entryDx=0;entryDy=0;endArrow=open;startSize=14;endSize=5;sourcePerimeterSpacing=8;targetPerimeterSpacing=8;" edge="1" parent="TcHNZ0rZMPNNko7Z3j5H-160" source="TcHNZ0rZMPNNko7Z3j5H-174" target="TcHNZ0rZMPNNko7Z3j5H-185">
          <mxGeometry relative="1" as="geometry">
            <Array as="points">
              <mxPoint x="330" y="320" />
              <mxPoint x="175" y="320" />
            </Array>
          </mxGeometry>
        </mxCell>
        <mxCell id="TcHNZ0rZMPNNko7Z3j5H-174" value="&lt;span style=&quot;font-size: 10px&quot;&gt;&lt;b&gt;Car Loans&lt;/b&gt;&lt;/span&gt;" style="rhombus;whiteSpace=wrap;html=1;hachureGap=4;pointerEvents=0;" vertex="1" parent="TcHNZ0rZMPNNko7Z3j5H-160">
          <mxGeometry x="300" y="230" width="60" height="60" as="geometry" />
        </mxCell>
        <mxCell id="TcHNZ0rZMPNNko7Z3j5H-175" style="edgeStyle=orthogonalEdgeStyle;rounded=0;orthogonalLoop=1;jettySize=auto;html=1;entryX=0.5;entryY=0;entryDx=0;entryDy=0;endArrow=open;startSize=14;endSize=5;sourcePerimeterSpacing=8;targetPerimeterSpacing=8;" edge="1" parent="TcHNZ0rZMPNNko7Z3j5H-160" source="TcHNZ0rZMPNNko7Z3j5H-176" target="TcHNZ0rZMPNNko7Z3j5H-185">
          <mxGeometry relative="1" as="geometry" />
        </mxCell>
        <mxCell id="TcHNZ0rZMPNNko7Z3j5H-176" value="&lt;span style=&quot;font-size: 10px&quot;&gt;&lt;b&gt;Gold loans&lt;/b&gt;&lt;/span&gt;" style="rhombus;whiteSpace=wrap;html=1;hachureGap=4;pointerEvents=0;" vertex="1" parent="TcHNZ0rZMPNNko7Z3j5H-160">
          <mxGeometry x="235" y="230" width="60" height="60" as="geometry" />
        </mxCell>
        <mxCell id="TcHNZ0rZMPNNko7Z3j5H-177" style="edgeStyle=orthogonalEdgeStyle;rounded=0;orthogonalLoop=1;jettySize=auto;html=1;entryX=0.5;entryY=0;entryDx=0;entryDy=0;endArrow=open;startSize=14;endSize=5;sourcePerimeterSpacing=8;targetPerimeterSpacing=8;" edge="1" parent="TcHNZ0rZMPNNko7Z3j5H-160" source="TcHNZ0rZMPNNko7Z3j5H-178" target="TcHNZ0rZMPNNko7Z3j5H-185">
          <mxGeometry relative="1" as="geometry" />
        </mxCell>
        <mxCell id="TcHNZ0rZMPNNko7Z3j5H-178" value="&lt;span style=&quot;font-size: 10px&quot;&gt;&lt;b&gt;Small Business Loans&lt;/b&gt;&lt;/span&gt;" style="rhombus;whiteSpace=wrap;html=1;hachureGap=4;pointerEvents=0;" vertex="1" parent="TcHNZ0rZMPNNko7Z3j5H-160">
          <mxGeometry x="175" y="230" width="60" height="60" as="geometry" />
        </mxCell>
        <mxCell id="TcHNZ0rZMPNNko7Z3j5H-179" style="edgeStyle=orthogonalEdgeStyle;rounded=0;orthogonalLoop=1;jettySize=auto;html=1;entryX=0.5;entryY=0;entryDx=0;entryDy=0;endArrow=open;startSize=14;endSize=5;sourcePerimeterSpacing=8;targetPerimeterSpacing=8;" edge="1" parent="TcHNZ0rZMPNNko7Z3j5H-160" source="TcHNZ0rZMPNNko7Z3j5H-180" target="TcHNZ0rZMPNNko7Z3j5H-185">
          <mxGeometry relative="1" as="geometry" />
        </mxCell>
        <mxCell id="TcHNZ0rZMPNNko7Z3j5H-180" value="&lt;span style=&quot;font-size: 10px&quot;&gt;&lt;b&gt;Home-Equity Loans&lt;/b&gt;&lt;/span&gt;" style="rhombus;whiteSpace=wrap;html=1;hachureGap=4;pointerEvents=0;" vertex="1" parent="TcHNZ0rZMPNNko7Z3j5H-160">
          <mxGeometry x="115" y="230" width="60" height="60" as="geometry" />
        </mxCell>
        <mxCell id="TcHNZ0rZMPNNko7Z3j5H-181" style="edgeStyle=orthogonalEdgeStyle;rounded=0;orthogonalLoop=1;jettySize=auto;html=1;entryX=0.5;entryY=0;entryDx=0;entryDy=0;endArrow=open;startSize=14;endSize=5;sourcePerimeterSpacing=8;targetPerimeterSpacing=8;" edge="1" parent="TcHNZ0rZMPNNko7Z3j5H-160" source="TcHNZ0rZMPNNko7Z3j5H-182" target="TcHNZ0rZMPNNko7Z3j5H-185">
          <mxGeometry relative="1" as="geometry" />
        </mxCell>
        <mxCell id="TcHNZ0rZMPNNko7Z3j5H-182" value="&lt;span style=&quot;font-size: 10px&quot;&gt;&lt;b&gt;Credit Cards&lt;/b&gt;&lt;/span&gt;" style="rhombus;whiteSpace=wrap;html=1;hachureGap=4;pointerEvents=0;" vertex="1" parent="TcHNZ0rZMPNNko7Z3j5H-160">
          <mxGeometry x="55" y="230" width="60" height="60" as="geometry" />
        </mxCell>
        <mxCell id="TcHNZ0rZMPNNko7Z3j5H-183" style="edgeStyle=orthogonalEdgeStyle;rounded=0;orthogonalLoop=1;jettySize=auto;html=1;entryX=0.5;entryY=0;entryDx=0;entryDy=0;endArrow=open;startSize=14;endSize=5;sourcePerimeterSpacing=8;targetPerimeterSpacing=8;" edge="1" parent="TcHNZ0rZMPNNko7Z3j5H-160" source="TcHNZ0rZMPNNko7Z3j5H-185" target="TcHNZ0rZMPNNko7Z3j5H-187">
          <mxGeometry relative="1" as="geometry" />
        </mxCell>
        <mxCell id="TcHNZ0rZMPNNko7Z3j5H-184" style="edgeStyle=orthogonalEdgeStyle;rounded=0;orthogonalLoop=1;jettySize=auto;html=1;entryX=0.5;entryY=0;entryDx=0;entryDy=0;endArrow=open;startSize=14;endSize=5;sourcePerimeterSpacing=8;targetPerimeterSpacing=8;" edge="1" parent="TcHNZ0rZMPNNko7Z3j5H-160" source="TcHNZ0rZMPNNko7Z3j5H-185" target="TcHNZ0rZMPNNko7Z3j5H-189">
          <mxGeometry relative="1" as="geometry" />
        </mxCell>
        <mxCell id="TcHNZ0rZMPNNko7Z3j5H-185" value="&lt;font style=&quot;font-size: 10px&quot;&gt;&lt;b&gt;(11th Q) What do you need?&lt;/b&gt;&lt;/font&gt;" style="shape=parallelogram;perimeter=parallelogramPerimeter;whiteSpace=wrap;html=1;fixedSize=1;hachureGap=4;pointerEvents=0;" vertex="1" parent="TcHNZ0rZMPNNko7Z3j5H-160">
          <mxGeometry x="80" y="415" width="190" height="40" as="geometry" />
        </mxCell>
        <mxCell id="TcHNZ0rZMPNNko7Z3j5H-186" style="edgeStyle=orthogonalEdgeStyle;rounded=0;orthogonalLoop=1;jettySize=auto;html=1;entryX=0.5;entryY=0;entryDx=0;entryDy=0;endArrow=open;startSize=14;endSize=5;sourcePerimeterSpacing=8;targetPerimeterSpacing=8;" edge="1" parent="TcHNZ0rZMPNNko7Z3j5H-160" source="TcHNZ0rZMPNNko7Z3j5H-187" target="TcHNZ0rZMPNNko7Z3j5H-191">
          <mxGeometry relative="1" as="geometry" />
        </mxCell>
        <mxCell id="TcHNZ0rZMPNNko7Z3j5H-187" value="&lt;span style=&quot;font-size: 10px&quot;&gt;&lt;b&gt;Apply for a Loan&lt;/b&gt;&lt;/span&gt;" style="rhombus;whiteSpace=wrap;html=1;hachureGap=4;pointerEvents=0;" vertex="1" parent="TcHNZ0rZMPNNko7Z3j5H-160">
          <mxGeometry x="70" y="495" width="60" height="60" as="geometry" />
        </mxCell>
        <mxCell id="TcHNZ0rZMPNNko7Z3j5H-188" style="edgeStyle=orthogonalEdgeStyle;rounded=0;orthogonalLoop=1;jettySize=auto;html=1;entryX=0;entryY=0.5;entryDx=0;entryDy=0;endArrow=open;startSize=14;endSize=5;sourcePerimeterSpacing=8;targetPerimeterSpacing=8;" edge="1" parent="TcHNZ0rZMPNNko7Z3j5H-160" source="TcHNZ0rZMPNNko7Z3j5H-189" target="TcHNZ0rZMPNNko7Z3j5H-193">
          <mxGeometry relative="1" as="geometry" />
        </mxCell>
        <mxCell id="TcHNZ0rZMPNNko7Z3j5H-189" value="&lt;span style=&quot;font-size: 10px&quot;&gt;&lt;b&gt;Details about Loan&lt;/b&gt;&lt;/span&gt;" style="rhombus;whiteSpace=wrap;html=1;hachureGap=4;pointerEvents=0;" vertex="1" parent="TcHNZ0rZMPNNko7Z3j5H-160">
          <mxGeometry x="185" y="495" width="60" height="60" as="geometry" />
        </mxCell>
        <mxCell id="TcHNZ0rZMPNNko7Z3j5H-190" style="edgeStyle=orthogonalEdgeStyle;rounded=0;orthogonalLoop=1;jettySize=auto;html=1;entryX=0.5;entryY=0;entryDx=0;entryDy=0;endArrow=open;startSize=14;endSize=5;sourcePerimeterSpacing=8;targetPerimeterSpacing=8;" edge="1" parent="TcHNZ0rZMPNNko7Z3j5H-160" source="TcHNZ0rZMPNNko7Z3j5H-191" target="TcHNZ0rZMPNNko7Z3j5H-198">
          <mxGeometry relative="1" as="geometry" />
        </mxCell>
        <mxCell id="TcHNZ0rZMPNNko7Z3j5H-191" value="&lt;font style=&quot;font-size: 10px&quot;&gt;&lt;b&gt;Display steps to apply a loan(6 difference types of loans)&lt;br&gt;&lt;/b&gt;&lt;/font&gt;" style="rounded=0;whiteSpace=wrap;html=1;hachureGap=4;pointerEvents=0;" vertex="1" parent="TcHNZ0rZMPNNko7Z3j5H-160">
          <mxGeometry x="60" y="600" width="190" height="70" as="geometry" />
        </mxCell>
        <mxCell id="TcHNZ0rZMPNNko7Z3j5H-192" style="edgeStyle=orthogonalEdgeStyle;rounded=0;orthogonalLoop=1;jettySize=auto;html=1;entryX=0.5;entryY=0;entryDx=0;entryDy=0;endArrow=open;startSize=14;endSize=5;sourcePerimeterSpacing=8;targetPerimeterSpacing=8;" edge="1" parent="TcHNZ0rZMPNNko7Z3j5H-160" source="TcHNZ0rZMPNNko7Z3j5H-193" target="TcHNZ0rZMPNNko7Z3j5H-198">
          <mxGeometry relative="1" as="geometry" />
        </mxCell>
        <mxCell id="TcHNZ0rZMPNNko7Z3j5H-193" value="&lt;font&gt;&lt;b style=&quot;font-size: 10px&quot;&gt;Display &lt;/b&gt;&lt;span style=&quot;font-size: 10px&quot;&gt;&lt;b&gt;details&lt;/b&gt;&lt;/span&gt;&lt;b style=&quot;font-size: 10px&quot;&gt;&amp;nbsp;about loans&lt;/b&gt;&lt;b style=&quot;font-size: 10px&quot;&gt;(6 difference types of loans)&lt;/b&gt;&lt;br&gt;&lt;/font&gt;" style="rounded=0;whiteSpace=wrap;html=1;hachureGap=4;pointerEvents=0;" vertex="1" parent="TcHNZ0rZMPNNko7Z3j5H-160">
          <mxGeometry x="310" y="510" width="190" height="70" as="geometry" />
        </mxCell>
        <mxCell id="TcHNZ0rZMPNNko7Z3j5H-194" value="" style="rounded=0;whiteSpace=wrap;html=1;hachureGap=4;pointerEvents=0;fillColor=#8AF3FF;strokeWidth=3;dashed=1;" vertex="1" parent="TcHNZ0rZMPNNko7Z3j5H-160">
          <mxGeometry x="60" y="760" width="480" height="90" as="geometry" />
        </mxCell>
        <mxCell id="TcHNZ0rZMPNNko7Z3j5H-195" value="&lt;span style=&quot;font-size: 10px&quot;&gt;&lt;b&gt;Are you satisfy about my service?&lt;/b&gt;&lt;/span&gt;" style="shape=parallelogram;perimeter=parallelogramPerimeter;whiteSpace=wrap;html=1;fixedSize=1;hachureGap=4;pointerEvents=0;" vertex="1" parent="TcHNZ0rZMPNNko7Z3j5H-160">
          <mxGeometry x="202.5" y="785" width="190" height="40" as="geometry" />
        </mxCell>
        <mxCell id="TcHNZ0rZMPNNko7Z3j5H-196" value="same steps of (1st case)" style="text;html=1;align=center;verticalAlign=middle;resizable=0;points=[];autosize=1;strokeColor=none;fillColor=none;" vertex="1" parent="TcHNZ0rZMPNNko7Z3j5H-160">
          <mxGeometry x="75" y="770" width="150" height="20" as="geometry" />
        </mxCell>
        <mxCell id="TcHNZ0rZMPNNko7Z3j5H-197" value="" style="rounded=0;whiteSpace=wrap;html=1;hachureGap=4;pointerEvents=0;fillColor=#8AF3FF;strokeWidth=3;dashed=1;" vertex="1" parent="TcHNZ0rZMPNNko7Z3j5H-160">
          <mxGeometry x="60" y="760" width="480" height="90" as="geometry" />
        </mxCell>
        <mxCell id="TcHNZ0rZMPNNko7Z3j5H-198" value="&lt;span style=&quot;font-size: 10px&quot;&gt;&lt;b&gt;Are you satisfy about my service?&lt;/b&gt;&lt;/span&gt;" style="shape=parallelogram;perimeter=parallelogramPerimeter;whiteSpace=wrap;html=1;fixedSize=1;hachureGap=4;pointerEvents=0;" vertex="1" parent="TcHNZ0rZMPNNko7Z3j5H-160">
          <mxGeometry x="202.5" y="785" width="190" height="40" as="geometry" />
        </mxCell>
        <mxCell id="TcHNZ0rZMPNNko7Z3j5H-199" value="same steps of (1st case)" style="text;html=1;align=center;verticalAlign=middle;resizable=0;points=[];autosize=1;strokeColor=none;fillColor=none;" vertex="1" parent="TcHNZ0rZMPNNko7Z3j5H-160">
          <mxGeometry x="75" y="770" width="150" height="20" as="geometry" />
        </mxCell>
        <mxCell id="0ok2K6wH5HigkwixbM4u-305" style="edgeStyle=orthogonalEdgeStyle;rounded=0;orthogonalLoop=1;jettySize=auto;html=1;entryX=0.5;entryY=0;entryDx=0;entryDy=0;endArrow=open;startSize=14;endSize=5;sourcePerimeterSpacing=8;targetPerimeterSpacing=8;strokeWidth=1;" parent="1" source="0ok2K6wH5HigkwixbM4u-307" target="0ok2K6wH5HigkwixbM4u-308" edge="1">
          <mxGeometry relative="1" as="geometry" />
        </mxCell>
        <mxCell id="0ok2K6wH5HigkwixbM4u-306" style="edgeStyle=orthogonalEdgeStyle;rounded=0;orthogonalLoop=1;jettySize=auto;html=1;entryX=0.5;entryY=0;entryDx=0;entryDy=0;endArrow=open;startSize=14;endSize=5;sourcePerimeterSpacing=8;targetPerimeterSpacing=8;strokeWidth=1;" parent="1" source="0ok2K6wH5HigkwixbM4u-307" target="0ok2K6wH5HigkwixbM4u-309" edge="1">
          <mxGeometry relative="1" as="geometry" />
        </mxCell>
        <mxCell id="0ok2K6wH5HigkwixbM4u-311" style="edgeStyle=orthogonalEdgeStyle;rounded=0;orthogonalLoop=1;jettySize=auto;html=1;entryX=0.5;entryY=0;entryDx=0;entryDy=0;endArrow=open;startSize=14;endSize=5;sourcePerimeterSpacing=8;targetPerimeterSpacing=8;strokeWidth=1;" parent="1" source="0ok2K6wH5HigkwixbM4u-312" target="0ok2K6wH5HigkwixbM4u-313" edge="1">
          <mxGeometry relative="1" as="geometry">
            <Array as="points">
              <mxPoint x="600" y="640" />
              <mxPoint x="788" y="640" />
            </Array>
          </mxGeometry>
        </mxCell>
      </root>
    </mxGraphModel>
  </diagram>
</mxfile>
